<svg width="128" height="93" viewBox="0 0 128 93" fill="none" xmlns="http://www.w3.org/2000/svg">
<path d="M81.4545 93C68.4606 93 57.4545 88.4953 48.4364 79.4859C39.4182 70.4766 34.9091 59.4813 34.9091 46.5C34.9091 33.6156 39.4182 22.6445 48.4364 13.5867C57.4545 4.52891 68.4606 0 81.4545 0C94.3515 0 105.333 4.52891 114.4 13.5867C123.467 22.6445 128 33.6156 128 46.5C128 59.4813 123.467 70.4766 114.4 79.4859C105.333 88.4953 94.3515 93 81.4545 93ZM81.4545 81.375C91.1515 81.375 99.3939 77.9844 106.182 71.2031C112.97 64.4219 116.364 56.1875 116.364 46.5C116.364 36.8125 112.97 28.5781 106.182 21.7969C99.3939 15.0156 91.1515 11.625 81.4545 11.625C71.7576 11.625 63.5152 15.0156 56.7273 21.7969C49.9394 28.5781 46.5455 36.8125 46.5455 46.5C46.5455 56.1875 49.9394 64.4219 56.7273 71.2031C63.5152 77.9844 71.7576 81.375 81.4545 81.375ZM94.6909 68.1516L102.982 59.8688L87.2727 44.175V23.25H75.6364V48.9703L94.6909 68.1516ZM5.81818 29.0625V17.4375H29.0909V29.0625H5.81818ZM0 52.3125V40.6875H29.0909V52.3125H0ZM5.81818 75.5625V63.9375H29.0909V75.5625H5.81818Z" fill="#5B48EE"/>
</svg>
