<svg width="95" height="115" viewBox="0 0 95 115" fill="none" xmlns="http://www.w3.org/2000/svg">
<path d="M11.875 115C8.60937 115 5.8138 113.928 3.48828 111.783C1.16276 109.638 0 107.06 0 104.048V49.2857C0 46.2738 1.16276 43.6954 3.48828 41.5506C5.8138 39.4058 8.60937 38.3333 11.875 38.3333H17.8125V27.381C17.8125 19.8056 20.707 13.3482 26.4961 8.00893C32.2852 2.66964 39.2865 0 47.5 0C55.7135 0 62.7148 2.66964 68.5039 8.00893C74.293 13.3482 77.1875 19.8056 77.1875 27.381V38.3333H83.125C86.3906 38.3333 89.1862 39.4058 91.5117 41.5506C93.8372 43.6954 95 46.2738 95 49.2857V104.048C95 107.06 93.8372 109.638 91.5117 111.783C89.1862 113.928 86.3906 115 83.125 115H11.875ZM11.875 104.048H83.125V49.2857H11.875V104.048ZM47.5 87.619C50.7656 87.619 53.5612 86.5466 55.8867 84.4018C58.2122 82.2569 59.375 79.6786 59.375 76.6667C59.375 73.6548 58.2122 71.0764 55.8867 68.9316C53.5612 66.7867 50.7656 65.7143 47.5 65.7143C44.2344 65.7143 41.4388 66.7867 39.1133 68.9316C36.7878 71.0764 35.625 73.6548 35.625 76.6667C35.625 79.6786 36.7878 82.2569 39.1133 84.4018C41.4388 86.5466 44.2344 87.619 47.5 87.619ZM29.6875 38.3333H65.3125V27.381C65.3125 22.8175 63.5807 18.9385 60.1172 15.744C56.6536 12.5496 52.4479 10.9524 47.5 10.9524C42.5521 10.9524 38.3464 12.5496 34.8828 15.744C31.4193 18.9385 29.6875 22.8175 29.6875 27.381V38.3333Z" fill="#5B48EE"/>
</svg>
