<svg width="489" height="393" viewBox="0 0 489 393" fill="none" xmlns="http://www.w3.org/2000/svg">
<g clip-path="url(#clip0_43_2257)">
<path d="M283.906 157.098C325.227 140.828 367.744 168.102 381.461 111.809C389.652 78.176 373.724 46.0836 343.528 22.6372C308.431 -4.62915 277.567 -11.8918 238.269 11.7668C198.549 35.6455 188.789 39.4969 143.299 35.2604C71.9348 28.6108 14.0928 113.074 81.1418 161.531C113.728 185.111 163.054 207.159 203.847 207.701C217.718 207.882 236.53 206.404 248.411 198.269C264.988 186.966 261.982 165.697 283.906 157.098Z" fill="#5B48EE"/>
<path opacity="0.9" d="M283.906 157.098C325.227 140.828 367.744 168.102 381.461 111.809C389.652 78.176 373.724 46.0836 343.528 22.6372C308.431 -4.62915 277.567 -11.8918 238.269 11.7668C198.549 35.6455 188.789 39.4969 143.299 35.2604C71.9348 28.6108 14.0928 113.074 81.1418 161.531C113.728 185.111 163.054 207.159 203.847 207.701C217.718 207.882 236.53 206.404 248.411 198.269C264.988 186.966 261.982 165.697 283.906 157.098Z" fill="white"/>
<path d="M244.5 336.062C349.227 336.062 434.124 332.079 434.124 327.165C434.124 322.251 349.227 318.267 244.5 318.267C139.773 318.267 54.8755 322.251 54.8755 327.165C54.8755 332.079 139.773 336.062 244.5 336.062Z" fill="#F5F5F5"/>
<path d="M223.809 317.333H129.353V327.819H223.809V317.333Z" fill="#5B48EE"/>
<path opacity="0.3" d="M223.809 317.333H129.353V327.819H223.809V317.333Z" fill="black"/>
<path d="M134.175 318.827H131.809V326.333H134.175V318.827Z" fill="#263238"/>
<path d="M138.328 318.827H135.961V326.333H138.328V318.827Z" fill="#263238"/>
<path d="M142.488 318.827H140.121V326.333H142.488V318.827Z" fill="#263238"/>
<path d="M146.64 318.827H144.273V326.333H146.64V318.827Z" fill="#263238"/>
<path d="M150.792 318.827H148.425V326.333H150.792V318.827Z" fill="#263238"/>
<path d="M154.944 318.827H152.578V326.333H154.944V318.827Z" fill="#263238"/>
<path d="M159.105 318.827H156.738V326.333H159.105V318.827Z" fill="#263238"/>
<path d="M163.257 318.827H160.89V326.333H163.257V318.827Z" fill="#263238"/>
<path d="M167.409 318.827H165.042V326.333H167.409V318.827Z" fill="#263238"/>
<path d="M171.561 318.827H169.194V326.333H171.561V318.827Z" fill="#263238"/>
<path d="M175.713 318.827H173.346V326.333H175.713V318.827Z" fill="#263238"/>
<path d="M179.873 318.827H177.506V326.333H179.873V318.827Z" fill="#263238"/>
<path d="M184.025 318.827H181.658V326.333H184.025V318.827Z" fill="#263238"/>
<path d="M188.177 318.827H185.811V326.333H188.177V318.827Z" fill="#263238"/>
<path d="M192.329 318.827H189.962V326.333H192.329V318.827Z" fill="#263238"/>
<path d="M196.49 318.827H194.123V326.333H196.49V318.827Z" fill="#263238"/>
<path d="M200.642 318.827H198.275V326.333H200.642V318.827Z" fill="#263238"/>
<path d="M204.794 318.827H202.427V326.333H204.794V318.827Z" fill="#263238"/>
<path d="M208.946 318.827H206.579V326.333H208.946V318.827Z" fill="#263238"/>
<path d="M213.106 318.827H210.739V326.333H213.106V318.827Z" fill="#263238"/>
<path d="M217.258 318.827H214.891V326.333H217.258V318.827Z" fill="#263238"/>
<path d="M221.41 318.827H219.043V326.333H221.41V318.827Z" fill="#263238"/>
<path d="M223.817 327.827H238.552V317.341H223.817V327.827Z" fill="#263238"/>
<path d="M223.818 132.034H124.442V317.334H223.818V132.034Z" fill="#5B48EE"/>
<path opacity="0.3" d="M223.818 132.034H124.442V317.334H223.818V132.034Z" fill="white"/>
<path d="M236.944 130.446H130.952V132.034H236.944V130.446Z" fill="#263238"/>
<path d="M121.307 218.376H120.5V226.181H121.307V218.376Z" fill="#5B48EE"/>
<path d="M121.307 228.806H120.5V249.109H121.307V228.806Z" fill="#5B48EE"/>
<path d="M223.81 317.333H243.463L243.463 132.034H223.81L223.81 317.333Z" fill="#5B48EE"/>
<g style="mix-blend-mode:multiply" opacity="0.6">
<path d="M218.858 181.049H129.393C127.935 181.049 126.752 182.2 126.752 183.619V196.871C126.752 198.29 127.935 199.441 129.393 199.441H218.858C220.317 199.441 221.499 198.29 221.499 196.871V183.619C221.499 182.2 220.317 181.049 218.858 181.049Z" fill="#5B48EE"/>
</g>
<path opacity="0.2" d="M218.858 181.049H129.393C127.935 181.049 126.752 182.2 126.752 183.619V196.871C126.752 198.29 127.935 199.441 129.393 199.441H218.858C220.317 199.441 221.499 198.29 221.499 196.871V183.619C221.499 182.2 220.317 181.049 218.858 181.049Z" fill="black"/>
<path d="M213.526 187.801L209.705 180.129V200.377H221.539V190.245H217.581C216.738 190.249 215.91 190.021 215.193 189.589C214.476 189.157 213.898 188.537 213.526 187.801Z" fill="#5B48EE"/>
<path d="M221.499 134.25H126.752V154.553H221.499V134.25Z" fill="#5B48EE"/>
<path opacity="0.2" d="M221.499 134.25H126.752V154.553H221.499V134.25Z" fill="white"/>
<path d="M221.499 294.697H126.752V314.999H221.499V294.697Z" fill="#5B48EE"/>
<path opacity="0.2" d="M221.499 294.697H126.752V314.999H221.499V294.697Z" fill="white"/>
<path d="M221.499 271.777H126.752V292.079H221.499V271.777Z" fill="#5B48EE"/>
<path opacity="0.2" d="M221.499 271.777H126.752V292.079H221.499V271.777Z" fill="white"/>
<path d="M221.499 248.857H126.752V269.159H221.499V248.857Z" fill="#5B48EE"/>
<path opacity="0.2" d="M221.499 248.857H126.752V269.159H221.499V248.857Z" fill="white"/>
<path d="M221.499 225.938H126.752V246.24H221.499V225.938Z" fill="#5B48EE"/>
<path opacity="0.2" d="M221.499 225.938H126.752V246.24H221.499V225.938Z" fill="white"/>
<path d="M221.499 203.018H126.752V223.32H221.499V203.018Z" fill="#5B48EE"/>
<path opacity="0.2" d="M221.499 203.018H126.752V223.32H221.499V203.018Z" fill="white"/>
<path d="M209.705 180.098H114.958V200.4H209.705V180.098Z" fill="#5B48EE"/>
<path opacity="0.2" d="M209.705 180.098H114.958V200.4H209.705V180.098Z" fill="white"/>
<path d="M221.499 157.17H126.752V177.473H221.499V157.17Z" fill="#5B48EE"/>
<path opacity="0.2" d="M221.499 157.17H126.752V177.473H221.499V157.17Z" fill="white"/>
<path d="M215.602 137.151H179.583C177.901 137.151 176.537 138.478 176.537 140.114V148.689C176.537 150.326 177.901 151.653 179.583 151.653H215.602C217.284 151.653 218.648 150.326 218.648 148.689V140.114C218.648 138.478 217.284 137.151 215.602 137.151Z" fill="#5B48EE"/>
<path opacity="0.2" d="M213.098 145.003V143.808C213.098 143.114 212.519 142.551 211.806 142.551H200.133C199.419 142.551 198.84 143.114 198.84 143.808V145.003C198.84 145.698 199.419 146.261 200.133 146.261H211.806C212.519 146.261 213.098 145.698 213.098 145.003Z" fill="white"/>
<path d="M215.602 160.071H179.583C177.901 160.071 176.537 161.397 176.537 163.034V171.609C176.537 173.246 177.901 174.572 179.583 174.572H215.602C217.284 174.572 218.648 173.246 218.648 171.609V163.034C218.648 161.397 217.284 160.071 215.602 160.071Z" fill="#5B48EE"/>
<path opacity="0.2" d="M213.098 167.923V166.728C213.098 166.034 212.519 165.471 211.806 165.471H200.133C199.419 165.471 198.84 166.034 198.84 166.728V167.923C198.84 168.618 199.419 169.181 200.133 169.181H211.806C212.519 169.181 213.098 168.618 213.098 167.923Z" fill="white"/>
<path d="M203.809 182.998H167.789C166.107 182.998 164.743 184.325 164.743 185.961V194.537C164.743 196.173 166.107 197.5 167.789 197.5H203.809C205.49 197.5 206.854 196.173 206.854 194.537V185.961C206.854 184.325 205.49 182.998 203.809 182.998Z" fill="#5B48EE"/>
<path opacity="0.2" d="M201.304 190.842V189.648C201.304 188.953 200.726 188.39 200.012 188.39H188.339C187.625 188.39 187.046 188.953 187.046 189.648V190.842C187.046 191.537 187.625 192.1 188.339 192.1H200.012C200.726 192.1 201.304 191.537 201.304 190.842Z" fill="white"/>
<path d="M215.602 205.918H179.583C177.901 205.918 176.537 207.245 176.537 208.881V217.456C176.537 219.093 177.901 220.42 179.583 220.42H215.602C217.284 220.42 218.648 219.093 218.648 217.456V208.881C218.648 207.245 217.284 205.918 215.602 205.918Z" fill="#5B48EE"/>
<path opacity="0.2" d="M213.098 213.762V212.568C213.098 211.873 212.519 211.31 211.806 211.31H200.133C199.419 211.31 198.84 211.873 198.84 212.568V213.762C198.84 214.457 199.419 215.02 200.133 215.02H211.806C212.519 215.02 213.098 214.457 213.098 213.762Z" fill="white"/>
<path d="M215.602 228.838H179.583C177.901 228.838 176.537 230.165 176.537 231.801V240.376C176.537 242.013 177.901 243.34 179.583 243.34H215.602C217.284 243.34 218.648 242.013 218.648 240.376V231.801C218.648 230.165 217.284 228.838 215.602 228.838Z" fill="#5B48EE"/>
<path opacity="0.2" d="M213.098 236.682V235.487C213.098 234.793 212.519 234.229 211.806 234.229H200.133C199.419 234.229 198.84 234.793 198.84 235.487V236.682C198.84 237.376 199.419 237.939 200.133 237.939H211.806C212.519 237.939 213.098 237.376 213.098 236.682Z" fill="white"/>
<path d="M215.602 251.758H179.583C177.901 251.758 176.537 253.085 176.537 254.721V263.296C176.537 264.933 177.901 266.26 179.583 266.26H215.602C217.284 266.26 218.648 264.933 218.648 263.296V254.721C218.648 253.085 217.284 251.758 215.602 251.758Z" fill="#5B48EE"/>
<path opacity="0.2" d="M213.098 259.602V258.407C213.098 257.712 212.519 257.149 211.806 257.149H200.133C199.419 257.149 198.84 257.712 198.84 258.407V259.602C198.84 260.296 199.419 260.859 200.133 260.859H211.806C212.519 260.859 213.098 260.296 213.098 259.602Z" fill="white"/>
<path d="M215.602 274.677H179.583C177.901 274.677 176.537 276.004 176.537 277.64V286.216C176.537 287.852 177.901 289.179 179.583 289.179H215.602C217.284 289.179 218.648 287.852 218.648 286.216V277.64C218.648 276.004 217.284 274.677 215.602 274.677Z" fill="#5B48EE"/>
<path opacity="0.2" d="M213.098 282.529V281.335C213.098 280.64 212.519 280.077 211.806 280.077H200.133C199.419 280.077 198.84 280.64 198.84 281.335V282.529C198.84 283.224 199.419 283.787 200.133 283.787H211.806C212.519 283.787 213.098 283.224 213.098 282.529Z" fill="white"/>
<path d="M215.602 297.597H179.583C177.901 297.597 176.537 298.924 176.537 300.56V309.136C176.537 310.772 177.901 312.099 179.583 312.099H215.602C217.284 312.099 218.648 310.772 218.648 309.136V300.56C218.648 298.924 217.284 297.597 215.602 297.597Z" fill="#5B48EE"/>
<path opacity="0.2" d="M213.106 305.449V304.254C213.106 303.56 212.527 302.997 211.813 302.997H200.141C199.427 302.997 198.848 303.56 198.848 304.254V305.449C198.848 306.143 199.427 306.707 200.141 306.707H211.813C212.527 306.707 213.106 306.143 213.106 305.449Z" fill="white"/>
<path d="M169.21 146.748C170.539 146.748 171.617 145.699 171.617 144.406C171.617 143.112 170.539 142.063 169.21 142.063C167.88 142.063 166.803 143.112 166.803 144.406C166.803 145.699 167.88 146.748 169.21 146.748Z" fill="#5B48EE"/>
<path d="M162.328 146.748C163.657 146.748 164.735 145.699 164.735 144.406C164.735 143.112 163.657 142.063 162.328 142.063C160.998 142.063 159.92 143.112 159.92 144.406C159.92 145.699 160.998 146.748 162.328 146.748Z" fill="#5B48EE"/>
<path d="M155.453 146.748C156.783 146.748 157.86 145.699 157.86 144.406C157.86 143.112 156.783 142.063 155.453 142.063C154.124 142.063 153.046 143.112 153.046 144.406C153.046 145.699 154.124 146.748 155.453 146.748Z" fill="#5B48EE"/>
<path opacity="0.4" d="M155.453 146.748C156.783 146.748 157.86 145.699 157.86 144.406C157.86 143.112 156.783 142.063 155.453 142.063C154.124 142.063 153.046 143.112 153.046 144.406C153.046 145.699 154.124 146.748 155.453 146.748Z" fill="white"/>
<path d="M150.978 144.405C150.978 144.872 150.836 145.328 150.57 145.715C150.303 146.103 149.925 146.405 149.482 146.584C149.039 146.762 148.552 146.809 148.082 146.718C147.612 146.627 147.18 146.402 146.841 146.073C146.502 145.743 146.271 145.323 146.178 144.865C146.084 144.408 146.132 143.934 146.316 143.503C146.499 143.072 146.81 142.704 147.208 142.445C147.607 142.186 148.075 142.047 148.555 142.047C149.197 142.047 149.814 142.296 150.268 142.738C150.723 143.18 150.978 143.78 150.978 144.405Z" fill="#5B48EE"/>
<path d="M169.21 169.668C170.539 169.668 171.617 168.619 171.617 167.326C171.617 166.032 170.539 164.983 169.21 164.983C167.88 164.983 166.803 166.032 166.803 167.326C166.803 168.619 167.88 169.668 169.21 169.668Z" fill="#5B48EE"/>
<path d="M162.328 169.668C163.657 169.668 164.735 168.619 164.735 167.326C164.735 166.032 163.657 164.983 162.328 164.983C160.998 164.983 159.92 166.032 159.92 167.326C159.92 168.619 160.998 169.668 162.328 169.668Z" fill="#5B48EE"/>
<path d="M155.453 169.668C156.783 169.668 157.86 168.619 157.86 167.326C157.86 166.032 156.783 164.983 155.453 164.983C154.124 164.983 153.046 166.032 153.046 167.326C153.046 168.619 154.124 169.668 155.453 169.668Z" fill="#5B48EE"/>
<path d="M150.978 167.365C150.978 167.831 150.836 168.287 150.57 168.675C150.303 169.063 149.925 169.365 149.482 169.543C149.039 169.722 148.552 169.769 148.082 169.678C147.612 169.587 147.18 169.362 146.841 169.032C146.502 168.702 146.271 168.282 146.178 167.825C146.084 167.367 146.132 166.893 146.316 166.462C146.499 166.032 146.81 165.663 147.208 165.404C147.607 165.145 148.075 165.007 148.555 165.007C149.197 165.007 149.814 165.255 150.268 165.697C150.723 166.14 150.978 166.739 150.978 167.365Z" fill="#5B48EE"/>
<path opacity="0.4" d="M150.978 167.365C150.978 167.831 150.836 168.287 150.57 168.675C150.303 169.063 149.925 169.365 149.482 169.543C149.039 169.722 148.552 169.769 148.082 169.678C147.612 169.587 147.18 169.362 146.841 169.032C146.502 168.702 146.271 168.282 146.178 167.825C146.084 167.367 146.132 166.893 146.316 166.462C146.499 166.032 146.81 165.663 147.208 165.404C147.607 165.145 148.075 165.007 148.555 165.007C149.197 165.007 149.814 165.255 150.268 165.697C150.723 166.14 150.978 166.739 150.978 167.365Z" fill="white"/>
<path d="M157.416 192.588C158.746 192.588 159.823 191.539 159.823 190.246C159.823 188.952 158.746 187.903 157.416 187.903C156.087 187.903 155.009 188.952 155.009 190.246C155.009 191.539 156.087 192.588 157.416 192.588Z" fill="#5B48EE"/>
<path opacity="0.4" d="M157.416 192.588C158.746 192.588 159.823 191.539 159.823 190.246C159.823 188.952 158.746 187.903 157.416 187.903C156.087 187.903 155.009 188.952 155.009 190.246C155.009 191.539 156.087 192.588 157.416 192.588Z" fill="white"/>
<path d="M150.534 192.588C151.863 192.588 152.941 191.539 152.941 190.246C152.941 188.952 151.863 187.903 150.534 187.903C149.204 187.903 148.126 188.952 148.126 190.246C148.126 191.539 149.204 192.588 150.534 192.588Z" fill="#5B48EE"/>
<path d="M143.659 192.588C144.989 192.588 146.066 191.539 146.066 190.246C146.066 188.952 144.989 187.903 143.659 187.903C142.33 187.903 141.252 188.952 141.252 190.246C141.252 191.539 142.33 192.588 143.659 192.588Z" fill="#5B48EE"/>
<path opacity="0.4" d="M143.659 192.588C144.989 192.588 146.066 191.539 146.066 190.246C146.066 188.952 144.989 187.903 143.659 187.903C142.33 187.903 141.252 188.952 141.252 190.246C141.252 191.539 142.33 192.588 143.659 192.588Z" fill="white"/>
<path d="M136.777 192.588C138.106 192.588 139.184 191.539 139.184 190.246C139.184 188.952 138.106 187.903 136.777 187.903C135.447 187.903 134.37 188.952 134.37 190.246C134.37 191.539 135.447 192.588 136.777 192.588Z" fill="#5B48EE"/>
<path d="M169.21 215.507C170.539 215.507 171.617 214.458 171.617 213.165C171.617 211.871 170.539 210.822 169.21 210.822C167.88 210.822 166.803 211.871 166.803 213.165C166.803 214.458 167.88 215.507 169.21 215.507Z" fill="#5B48EE"/>
<path opacity="0.4" d="M169.21 215.507C170.539 215.507 171.617 214.458 171.617 213.165C171.617 211.871 170.539 210.822 169.21 210.822C167.88 210.822 166.803 211.871 166.803 213.165C166.803 214.458 167.88 215.507 169.21 215.507Z" fill="white"/>
<path d="M162.328 215.507C163.657 215.507 164.735 214.458 164.735 213.165C164.735 211.871 163.657 210.822 162.328 210.822C160.998 210.822 159.92 211.871 159.92 213.165C159.92 214.458 160.998 215.507 162.328 215.507Z" fill="#5B48EE"/>
<path opacity="0.4" d="M162.328 215.507C163.657 215.507 164.735 214.458 164.735 213.165C164.735 211.871 163.657 210.822 162.328 210.822C160.998 210.822 159.92 211.871 159.92 213.165C159.92 214.458 160.998 215.507 162.328 215.507Z" fill="white"/>
<path d="M155.453 215.507C156.783 215.507 157.86 214.458 157.86 213.165C157.86 211.871 156.783 210.822 155.453 210.822C154.124 210.822 153.046 211.871 153.046 213.165C153.046 214.458 154.124 215.507 155.453 215.507Z" fill="#5B48EE"/>
<path d="M150.978 213.165C150.978 213.631 150.836 214.087 150.57 214.475C150.303 214.863 149.925 215.165 149.482 215.344C149.039 215.522 148.552 215.569 148.082 215.478C147.612 215.387 147.18 215.162 146.841 214.833C146.502 214.503 146.271 214.083 146.178 213.625C146.084 213.168 146.132 212.694 146.316 212.263C146.499 211.832 146.81 211.464 147.208 211.205C147.607 210.945 148.075 210.807 148.555 210.807C149.197 210.807 149.814 211.056 150.268 211.498C150.723 211.94 150.978 212.54 150.978 213.165Z" fill="#5B48EE"/>
<path d="M169.21 238.427C170.539 238.427 171.617 237.378 171.617 236.084C171.617 234.791 170.539 233.742 169.21 233.742C167.88 233.742 166.803 234.791 166.803 236.084C166.803 237.378 167.88 238.427 169.21 238.427Z" fill="#5B48EE"/>
<path d="M162.328 238.427C163.657 238.427 164.735 237.378 164.735 236.084C164.735 234.791 163.657 233.742 162.328 233.742C160.998 233.742 159.92 234.791 159.92 236.084C159.92 237.378 160.998 238.427 162.328 238.427Z" fill="#5B48EE"/>
<path opacity="0.4" d="M162.328 238.427C163.657 238.427 164.735 237.378 164.735 236.084C164.735 234.791 163.657 233.742 162.328 233.742C160.998 233.742 159.92 234.791 159.92 236.084C159.92 237.378 160.998 238.427 162.328 238.427Z" fill="white"/>
<path d="M155.453 238.427C156.783 238.427 157.86 237.378 157.86 236.084C157.86 234.791 156.783 233.742 155.453 233.742C154.124 233.742 153.046 234.791 153.046 236.084C153.046 237.378 154.124 238.427 155.453 238.427Z" fill="#5B48EE"/>
<path d="M150.978 236.085C150.978 236.551 150.836 237.007 150.57 237.395C150.303 237.782 149.925 238.085 149.482 238.263C149.039 238.442 148.552 238.488 148.082 238.397C147.612 238.306 147.18 238.082 146.841 237.752C146.502 237.422 146.271 237.002 146.178 236.545C146.084 236.087 146.132 235.613 146.316 235.182C146.499 234.751 146.81 234.383 147.208 234.124C147.607 233.865 148.075 233.727 148.555 233.727C149.197 233.727 149.814 233.975 150.268 234.417C150.723 234.859 150.978 235.459 150.978 236.085Z" fill="#5B48EE"/>
<path d="M169.21 261.347C170.539 261.347 171.617 260.298 171.617 259.004C171.617 257.711 170.539 256.662 169.21 256.662C167.88 256.662 166.803 257.711 166.803 259.004C166.803 260.298 167.88 261.347 169.21 261.347Z" fill="#5B48EE"/>
<path d="M162.328 261.347C163.657 261.347 164.735 260.298 164.735 259.004C164.735 257.711 163.657 256.662 162.328 256.662C160.998 256.662 159.92 257.711 159.92 259.004C159.92 260.298 160.998 261.347 162.328 261.347Z" fill="#5B48EE"/>
<path d="M155.453 261.347C156.783 261.347 157.86 260.298 157.86 259.004C157.86 257.711 156.783 256.662 155.453 256.662C154.124 256.662 153.046 257.711 153.046 259.004C153.046 260.298 154.124 261.347 155.453 261.347Z" fill="#5B48EE"/>
<path opacity="0.4" d="M155.453 261.347C156.783 261.347 157.86 260.298 157.86 259.004C157.86 257.711 156.783 256.662 155.453 256.662C154.124 256.662 153.046 257.711 153.046 259.004C153.046 260.298 154.124 261.347 155.453 261.347Z" fill="white"/>
<path d="M150.978 259.004C150.978 259.471 150.836 259.927 150.57 260.315C150.303 260.702 149.925 261.005 149.482 261.183C149.039 261.361 148.552 261.408 148.082 261.317C147.612 261.226 147.18 261.002 146.841 260.672C146.502 260.342 146.271 259.922 146.178 259.465C146.084 259.007 146.132 258.533 146.316 258.102C146.499 257.671 146.81 257.303 147.208 257.044C147.607 256.785 148.075 256.646 148.555 256.646C149.197 256.646 149.814 256.895 150.268 257.337C150.723 257.779 150.978 258.379 150.978 259.004Z" fill="#5B48EE"/>
<path opacity="0.4" d="M150.978 259.004C150.978 259.471 150.836 259.927 150.57 260.315C150.303 260.702 149.925 261.005 149.482 261.183C149.039 261.361 148.552 261.408 148.082 261.317C147.612 261.226 147.18 261.002 146.841 260.672C146.502 260.342 146.271 259.922 146.178 259.465C146.084 259.007 146.132 258.533 146.316 258.102C146.499 257.671 146.81 257.303 147.208 257.044C147.607 256.785 148.075 256.646 148.555 256.646C149.197 256.646 149.814 256.895 150.268 257.337C150.723 257.779 150.978 258.379 150.978 259.004Z" fill="white"/>
<path d="M171.617 281.932C171.617 282.398 171.475 282.854 171.209 283.242C170.943 283.63 170.564 283.932 170.121 284.11C169.678 284.289 169.191 284.335 168.721 284.244C168.251 284.153 167.819 283.929 167.48 283.599C167.141 283.269 166.911 282.849 166.817 282.392C166.724 281.934 166.772 281.46 166.955 281.029C167.138 280.598 167.449 280.23 167.848 279.971C168.246 279.712 168.715 279.574 169.194 279.574C169.837 279.574 170.453 279.822 170.908 280.264C171.362 280.707 171.617 281.306 171.617 281.932Z" fill="#5B48EE"/>
<path opacity="0.4" d="M171.617 281.932C171.617 282.398 171.475 282.854 171.209 283.242C170.943 283.63 170.564 283.932 170.121 284.11C169.678 284.289 169.191 284.335 168.721 284.244C168.251 284.153 167.819 283.929 167.48 283.599C167.141 283.269 166.911 282.849 166.817 282.392C166.724 281.934 166.772 281.46 166.955 281.029C167.138 280.598 167.449 280.23 167.848 279.971C168.246 279.712 168.715 279.574 169.194 279.574C169.837 279.574 170.453 279.822 170.908 280.264C171.362 280.707 171.617 281.306 171.617 281.932Z" fill="white"/>
<path d="M164.743 281.932C164.743 282.398 164.601 282.854 164.335 283.242C164.069 283.63 163.69 283.932 163.247 284.11C162.804 284.289 162.317 284.335 161.847 284.244C161.377 284.153 160.945 283.929 160.606 283.599C160.267 283.269 160.037 282.849 159.943 282.392C159.85 281.934 159.898 281.46 160.081 281.029C160.264 280.598 160.575 280.23 160.974 279.971C161.372 279.712 161.841 279.574 162.32 279.574C162.963 279.574 163.579 279.822 164.034 280.264C164.488 280.707 164.743 281.306 164.743 281.932Z" fill="#5B48EE"/>
<path d="M157.86 281.932C157.86 282.398 157.718 282.854 157.452 283.242C157.186 283.63 156.807 283.932 156.364 284.11C155.922 284.289 155.434 284.335 154.964 284.244C154.494 284.153 154.062 283.929 153.723 283.599C153.385 283.269 153.154 282.849 153.06 282.392C152.967 281.934 153.015 281.46 153.198 281.029C153.382 280.598 153.692 280.23 154.091 279.971C154.489 279.712 154.958 279.574 155.437 279.574C156.08 279.574 156.696 279.822 157.151 280.264C157.605 280.707 157.86 281.306 157.86 281.932Z" fill="#5B48EE"/>
<path d="M150.978 281.932C150.978 282.398 150.836 282.854 150.57 283.242C150.303 283.63 149.925 283.932 149.482 284.11C149.039 284.289 148.552 284.335 148.082 284.244C147.612 284.153 147.18 283.929 146.841 283.599C146.502 283.269 146.271 282.849 146.178 282.392C146.084 281.934 146.132 281.46 146.316 281.029C146.499 280.598 146.81 280.23 147.208 279.971C147.607 279.712 148.075 279.574 148.555 279.574C149.197 279.574 149.814 279.822 150.268 280.264C150.723 280.707 150.978 281.306 150.978 281.932Z" fill="#5B48EE"/>
<path d="M169.21 307.194C170.539 307.194 171.617 306.146 171.617 304.852C171.617 303.558 170.539 302.51 169.21 302.51C167.88 302.51 166.803 303.558 166.803 304.852C166.803 306.146 167.88 307.194 169.21 307.194Z" fill="#5B48EE"/>
<path d="M162.328 307.194C163.657 307.194 164.735 306.146 164.735 304.852C164.735 303.558 163.657 302.51 162.328 302.51C160.998 302.51 159.92 303.558 159.92 304.852C159.92 306.146 160.998 307.194 162.328 307.194Z" fill="#5B48EE"/>
<path d="M155.453 307.194C156.783 307.194 157.86 306.146 157.86 304.852C157.86 303.558 156.783 302.51 155.453 302.51C154.124 302.51 153.046 303.558 153.046 304.852C153.046 306.146 154.124 307.194 155.453 307.194Z" fill="#5B48EE"/>
<path opacity="0.4" d="M155.453 307.194C156.783 307.194 157.86 306.146 157.86 304.852C157.86 303.558 156.783 302.51 155.453 302.51C154.124 302.51 153.046 303.558 153.046 304.852C153.046 306.146 154.124 307.194 155.453 307.194Z" fill="white"/>
<path d="M150.978 304.852C150.978 305.318 150.836 305.774 150.57 306.162C150.303 306.549 149.925 306.852 149.482 307.03C149.039 307.209 148.552 307.255 148.082 307.164C147.612 307.073 147.18 306.849 146.841 306.519C146.502 306.189 146.271 305.769 146.178 305.312C146.084 304.854 146.132 304.38 146.316 303.949C146.499 303.518 146.81 303.15 147.208 302.891C147.607 302.632 148.075 302.494 148.555 302.494C149.197 302.494 149.814 302.742 150.268 303.184C150.723 303.626 150.978 304.226 150.978 304.852Z" fill="#5B48EE"/>
<path d="M141.357 144.406C141.357 145.41 141.051 146.392 140.477 147.227C139.903 148.063 139.088 148.713 138.134 149.097C137.18 149.482 136.13 149.582 135.118 149.385C134.105 149.189 133.175 148.704 132.446 147.993C131.717 147.282 131.22 146.377 131.02 145.391C130.819 144.406 130.924 143.385 131.32 142.457C131.716 141.529 132.386 140.737 133.246 140.18C134.105 139.623 135.114 139.327 136.147 139.328C137.53 139.33 138.855 139.866 139.832 140.818C140.809 141.77 141.357 143.06 141.357 144.406Z" fill="#5B48EE"/>
<path opacity="0.4" d="M141.357 144.406C141.357 145.41 141.051 146.392 140.477 147.227C139.903 148.063 139.088 148.713 138.134 149.097C137.18 149.482 136.13 149.582 135.118 149.385C134.105 149.189 133.175 148.704 132.446 147.993C131.717 147.282 131.22 146.377 131.02 145.391C130.819 144.406 130.924 143.385 131.32 142.457C131.716 141.529 132.386 140.737 133.246 140.18C134.105 139.623 135.114 139.327 136.147 139.328C137.53 139.33 138.855 139.866 139.832 140.818C140.809 141.77 141.357 143.06 141.357 144.406Z" fill="white"/>
<path d="M141.357 167.365C141.357 168.369 141.051 169.351 140.477 170.186C139.903 171.022 139.088 171.672 138.134 172.056C137.18 172.441 136.13 172.541 135.118 172.344C134.105 172.148 133.175 171.663 132.446 170.952C131.717 170.241 131.22 169.336 131.02 168.35C130.819 167.365 130.924 166.344 131.32 165.416C131.716 164.488 132.386 163.696 133.246 163.139C134.105 162.582 135.114 162.286 136.147 162.287C137.53 162.289 138.855 162.825 139.832 163.777C140.809 164.729 141.357 166.019 141.357 167.365Z" fill="#5B48EE"/>
<path opacity="0.4" d="M141.357 167.365C141.357 168.369 141.051 169.351 140.477 170.186C139.903 171.022 139.088 171.672 138.134 172.056C137.18 172.441 136.13 172.541 135.118 172.344C134.105 172.148 133.175 171.663 132.446 170.952C131.717 170.241 131.22 169.336 131.02 168.35C130.819 167.365 130.924 166.344 131.32 165.416C131.716 164.488 132.386 163.696 133.246 163.139C134.105 162.582 135.114 162.286 136.147 162.287C137.53 162.289 138.855 162.825 139.832 163.777C140.809 164.729 141.357 166.019 141.357 167.365Z" fill="white"/>
<path d="M129.563 190.245C129.563 191.25 129.257 192.232 128.683 193.067C128.109 193.902 127.294 194.553 126.34 194.937C125.386 195.321 124.336 195.421 123.323 195.224C122.311 195.028 121.381 194.544 120.652 193.833C119.922 193.122 119.426 192.216 119.225 191.231C119.025 190.245 119.129 189.224 119.526 188.297C119.922 187.369 120.592 186.576 121.451 186.019C122.31 185.462 123.32 185.166 124.352 185.167C125.735 185.17 127.06 185.705 128.037 186.657C129.014 187.609 129.563 188.9 129.563 190.245Z" fill="#5B48EE"/>
<path opacity="0.4" d="M129.563 190.245C129.563 191.25 129.257 192.232 128.683 193.067C128.109 193.902 127.294 194.553 126.34 194.937C125.386 195.321 124.336 195.421 123.323 195.224C122.311 195.028 121.381 194.544 120.652 193.833C119.922 193.122 119.426 192.216 119.225 191.231C119.025 190.245 119.129 189.224 119.526 188.297C119.922 187.369 120.592 186.576 121.451 186.019C122.31 185.462 123.32 185.166 124.352 185.167C125.735 185.17 127.06 185.705 128.037 186.657C129.014 187.609 129.563 188.9 129.563 190.245Z" fill="white"/>
<path d="M141.357 213.165C141.357 214.17 141.051 215.152 140.477 215.987C139.903 216.822 139.088 217.473 138.134 217.857C137.18 218.241 136.13 218.341 135.118 218.144C134.105 217.948 133.175 217.463 132.446 216.753C131.717 216.042 131.22 215.136 131.02 214.151C130.819 213.165 130.924 212.144 131.32 211.216C131.716 210.289 132.386 209.496 133.246 208.939C134.105 208.382 135.114 208.086 136.147 208.087C137.53 208.089 138.855 208.625 139.832 209.577C140.809 210.529 141.357 211.82 141.357 213.165Z" fill="#5B48EE"/>
<path opacity="0.4" d="M141.357 213.165C141.357 214.17 141.051 215.152 140.477 215.987C139.903 216.822 139.088 217.473 138.134 217.857C137.18 218.241 136.13 218.341 135.118 218.144C134.105 217.948 133.175 217.463 132.446 216.753C131.717 216.042 131.22 215.136 131.02 214.151C130.819 213.165 130.924 212.144 131.32 211.216C131.716 210.289 132.386 209.496 133.246 208.939C134.105 208.382 135.114 208.086 136.147 208.087C137.53 208.089 138.855 208.625 139.832 209.577C140.809 210.529 141.357 211.82 141.357 213.165Z" fill="white"/>
<path d="M141.357 236.084C141.359 237.089 141.054 238.072 140.481 238.908C139.908 239.744 139.093 240.396 138.14 240.782C137.186 241.167 136.136 241.268 135.123 241.073C134.11 240.877 133.179 240.393 132.449 239.683C131.719 238.972 131.221 238.067 131.02 237.081C130.819 236.095 130.923 235.074 131.319 234.145C131.715 233.217 132.385 232.424 133.245 231.867C134.104 231.31 135.114 231.013 136.147 231.015C137.528 231.017 138.852 231.552 139.829 232.502C140.805 233.452 141.355 234.74 141.357 236.084Z" fill="#5B48EE"/>
<path opacity="0.4" d="M141.357 236.084C141.359 237.089 141.054 238.072 140.481 238.908C139.908 239.744 139.093 240.396 138.14 240.782C137.186 241.167 136.136 241.268 135.123 241.073C134.11 240.877 133.179 240.393 132.449 239.683C131.719 238.972 131.221 238.067 131.02 237.081C130.819 236.095 130.923 235.074 131.319 234.145C131.715 233.217 132.385 232.424 133.245 231.867C134.104 231.31 135.114 231.013 136.147 231.015C137.528 231.017 138.852 231.552 139.829 232.502C140.805 233.452 141.355 234.74 141.357 236.084Z" fill="white"/>
<path d="M141.357 259.004C141.359 260.009 141.054 260.992 140.481 261.828C139.908 262.664 139.093 263.316 138.14 263.702C137.186 264.087 136.136 264.188 135.123 263.992C134.11 263.797 133.179 263.313 132.449 262.602C131.719 261.892 131.221 260.986 131.02 260.001C130.819 259.015 130.923 257.994 131.319 257.065C131.715 256.137 132.385 255.344 133.245 254.787C134.104 254.23 135.114 253.933 136.147 253.935C137.528 253.937 138.852 254.471 139.829 255.422C140.805 256.372 141.355 257.66 141.357 259.004Z" fill="#5B48EE"/>
<path opacity="0.4" d="M141.357 259.004C141.359 260.009 141.054 260.992 140.481 261.828C139.908 262.664 139.093 263.316 138.14 263.702C137.186 264.087 136.136 264.188 135.123 263.992C134.11 263.797 133.179 263.313 132.449 262.602C131.719 261.892 131.221 260.986 131.02 260.001C130.819 259.015 130.923 257.994 131.319 257.065C131.715 256.137 132.385 255.344 133.245 254.787C134.104 254.23 135.114 253.933 136.147 253.935C137.528 253.937 138.852 254.471 139.829 255.422C140.805 256.372 141.355 257.66 141.357 259.004Z" fill="white"/>
<path d="M141.357 281.932C141.357 282.937 141.051 283.919 140.477 284.754C139.903 285.589 139.088 286.24 138.134 286.624C137.18 287.008 136.13 287.108 135.118 286.911C134.105 286.715 133.175 286.231 132.446 285.52C131.717 284.809 131.22 283.903 131.02 282.918C130.819 281.932 130.924 280.911 131.32 279.984C131.716 279.056 132.386 278.263 133.246 277.706C134.105 277.149 135.114 276.853 136.147 276.854C136.832 276.854 137.51 276.986 138.143 277.241C138.775 277.496 139.35 277.871 139.834 278.342C140.318 278.814 140.702 279.374 140.963 279.99C141.224 280.606 141.358 281.266 141.357 281.932Z" fill="#5B48EE"/>
<path opacity="0.4" d="M141.357 281.932C141.357 282.937 141.051 283.919 140.477 284.754C139.903 285.589 139.088 286.24 138.134 286.624C137.18 287.008 136.13 287.108 135.118 286.911C134.105 286.715 133.175 286.231 132.446 285.52C131.717 284.809 131.22 283.903 131.02 282.918C130.819 281.932 130.924 280.911 131.32 279.984C131.716 279.056 132.386 278.263 133.246 277.706C134.105 277.149 135.114 276.853 136.147 276.854C136.832 276.854 137.51 276.986 138.143 277.241C138.775 277.496 139.35 277.871 139.834 278.342C140.318 278.814 140.702 279.374 140.963 279.99C141.224 280.606 141.358 281.266 141.357 281.932Z" fill="white"/>
<path d="M141.357 304.852C141.357 305.857 141.051 306.839 140.477 307.674C139.903 308.509 139.088 309.16 138.134 309.544C137.18 309.928 136.13 310.028 135.118 309.831C134.105 309.635 133.175 309.15 132.446 308.44C131.717 307.729 131.22 306.823 131.02 305.838C130.819 304.852 130.924 303.831 131.32 302.903C131.716 301.976 132.386 301.183 133.246 300.626C134.105 300.069 135.114 299.773 136.147 299.774C136.832 299.774 137.51 299.906 138.143 300.161C138.775 300.416 139.35 300.79 139.834 301.262C140.318 301.734 140.702 302.293 140.963 302.909C141.224 303.525 141.358 304.186 141.357 304.852Z" fill="#5B48EE"/>
<path opacity="0.4" d="M141.357 304.852C141.357 305.857 141.051 306.839 140.477 307.674C139.903 308.509 139.088 309.16 138.134 309.544C137.18 309.928 136.13 310.028 135.118 309.831C134.105 309.635 133.175 309.15 132.446 308.44C131.717 307.729 131.22 306.823 131.02 305.838C130.819 304.852 130.924 303.831 131.32 302.903C131.716 301.976 132.386 301.183 133.246 300.626C134.105 300.069 135.114 299.773 136.147 299.774C136.832 299.774 137.51 299.906 138.143 300.161C138.775 300.416 139.35 300.79 139.834 301.262C140.318 301.734 140.702 302.293 140.963 302.909C141.224 303.525 141.358 304.186 141.357 304.852Z" fill="white"/>
<path d="M217.654 114.347C217.232 112.454 216.296 110.658 214.911 109.089C213.527 107.519 211.728 106.215 209.644 105.269C209.644 105.167 209.644 105.065 209.644 104.962C209.644 101.483 207.924 98.1464 204.863 95.6863C201.802 93.2261 197.65 91.844 193.321 91.844H187.062V92.8422C184.995 93.5367 183.127 94.5646 181.575 95.8625C180.022 97.1604 178.817 98.7006 178.035 100.388C177.499 100.313 176.956 100.274 176.412 100.27C174.459 100.272 172.552 100.745 170.936 101.626C169.321 102.507 168.07 103.757 167.346 105.214C165.106 104.778 162.752 104.918 160.617 105.615C158.46 106.289 156.595 107.456 155.251 108.971C153.908 110.486 153.145 112.284 153.057 114.143C153.023 115.392 153.3 116.635 153.872 117.797C154.443 118.959 155.298 120.018 156.386 120.911C157.474 121.805 158.772 122.514 160.206 122.999C161.64 123.483 163.179 123.732 164.734 123.732H208.95C211.284 123.751 213.534 123.03 215.211 121.725C216.888 120.42 217.857 118.636 217.908 116.76V116.682C217.914 115.899 217.829 115.117 217.654 114.347Z" fill="#5B48EE"/>
<path d="M211.405 114.347C210.986 112.456 210.054 110.661 208.675 109.092C207.295 107.523 205.503 106.218 203.424 105.269C203.424 105.167 203.424 105.064 203.424 104.962C203.423 101.887 202.077 98.9099 199.622 96.551C197.167 94.1921 193.759 92.6013 189.993 92.0564C186.227 91.5116 182.343 92.0474 179.019 93.5702C175.694 95.0929 173.141 97.506 171.805 100.388C169.605 100.076 167.339 100.387 165.392 101.266C163.445 102.146 161.937 103.541 161.126 105.214C158.886 104.778 156.532 104.918 154.397 105.615C152.24 106.289 150.375 107.456 149.031 108.971C147.688 110.486 146.925 112.284 146.837 114.143C146.802 115.392 147.078 116.634 147.648 117.796C148.219 118.959 149.073 120.018 150.16 120.911C151.246 121.804 152.545 122.514 153.978 122.998C155.411 123.483 156.95 123.732 158.505 123.732H202.73C205.063 123.749 207.311 123.027 208.988 121.722C210.664 120.418 211.634 118.635 211.688 116.76V116.681C211.684 115.898 211.589 115.116 211.405 114.347Z" fill="#5B48EE"/>
<path opacity="0.3" d="M211.405 114.347C210.986 112.456 210.054 110.661 208.675 109.092C207.295 107.523 205.503 106.218 203.424 105.269C203.424 105.167 203.424 105.064 203.424 104.962C203.423 101.887 202.077 98.9099 199.622 96.551C197.167 94.1921 193.759 92.6013 189.993 92.0564C186.227 91.5116 182.343 92.0474 179.019 93.5702C175.694 95.0929 173.141 97.506 171.805 100.388C169.605 100.076 167.339 100.387 165.392 101.266C163.445 102.146 161.937 103.541 161.126 105.214C158.886 104.778 156.532 104.918 154.397 105.615C152.24 106.289 150.375 107.456 149.031 108.971C147.688 110.486 146.925 112.284 146.837 114.143C146.802 115.392 147.078 116.634 147.648 117.796C148.219 118.959 149.073 120.018 150.16 120.911C151.246 121.804 152.545 122.514 153.978 122.998C155.411 123.483 156.95 123.732 158.505 123.732H202.73C205.063 123.749 207.311 123.027 208.988 121.722C210.664 120.418 211.634 118.635 211.688 116.76V116.681C211.684 115.898 211.589 115.116 211.405 114.347Z" fill="white"/>
<path d="M188.275 83.5676H187.453V85.5405H188.275V83.5676Z" fill="#5B48EE"/>
<path opacity="0.2" d="M188.275 83.5676H187.453V85.5405H188.275V83.5676Z" fill="black"/>
<path d="M345.606 128.385H344.784V124.455H345.606V128.385ZM345.606 120.525H344.784V116.595H345.606V120.525ZM345.606 112.665H344.784V108.735H345.606V112.665ZM345.606 104.805H344.784V100.875H345.606V104.805ZM345.606 96.9454H344.784V93.0154H345.606V96.9454ZM345.606 89.0854H344.784V85.1554H345.606V89.0854ZM345.606 81.2254H344.784V77.2954H345.606V81.2254ZM188.275 79.5905H187.453V76.9417C187.453 76.5215 187.482 76.1016 187.541 75.6841L188.353 75.7627C188.302 76.1544 188.276 76.5479 188.275 76.9417V79.5905ZM344.07 73.554C343.544 72.3572 342.737 71.2526 341.694 70.3L342.3 69.9541C343.417 70.9702 344.281 72.1497 344.843 73.4282L344.07 73.554ZM189.781 72.1628L189.067 71.8484C189.871 70.6469 190.953 69.5798 192.255 68.7044L192.783 69.2153C191.554 70.032 190.534 71.0331 189.781 72.1628ZM337.967 68.0441C336.574 67.4723 335.056 67.1226 333.498 67.0145L333.566 66.3542C335.247 66.4689 336.883 66.8425 338.388 67.4546L337.967 68.0441ZM196.901 67.4389L196.656 66.818C197.956 66.4848 199.312 66.3151 200.676 66.3149H201.605V66.9752H200.676C199.395 66.9744 198.122 67.1308 196.901 67.4389ZM328.608 66.9752H323.718V66.3149H328.608V66.9752ZM318.828 66.9752H313.938V66.3149H318.828V66.9752ZM309.048 66.9752H304.158V66.3149H309.048V66.9752ZM299.268 66.9752H294.378V66.3149H299.268V66.9752ZM289.488 66.9752H284.598V66.3149H289.488V66.9752ZM279.708 66.9752H274.818V66.3149H279.708V66.9752ZM269.928 66.9752H265.038V66.3149H269.928V66.9752ZM260.148 66.9752H255.258V66.3149H260.148V66.9752ZM250.368 66.9752H245.478V66.3149H250.368V66.9752ZM240.588 66.9752H235.698V66.3149H240.588V66.9752ZM230.808 66.9752H225.918V66.3149H230.808V66.9752ZM221.028 66.9752H216.138V66.3149H221.028V66.9752ZM211.248 66.9752H206.358V66.3149H211.248V66.9752Z" fill="#5B48EE"/>
<path opacity="0.2" d="M345.606 128.385H344.784V124.455H345.606V128.385ZM345.606 120.525H344.784V116.595H345.606V120.525ZM345.606 112.665H344.784V108.735H345.606V112.665ZM345.606 104.805H344.784V100.875H345.606V104.805ZM345.606 96.9454H344.784V93.0154H345.606V96.9454ZM345.606 89.0854H344.784V85.1554H345.606V89.0854ZM345.606 81.2254H344.784V77.2954H345.606V81.2254ZM188.275 79.5905H187.453V76.9417C187.453 76.5215 187.482 76.1016 187.541 75.6841L188.353 75.7627C188.302 76.1544 188.276 76.5479 188.275 76.9417V79.5905ZM344.07 73.554C343.544 72.3572 342.737 71.2526 341.694 70.3L342.3 69.9541C343.417 70.9702 344.281 72.1497 344.843 73.4282L344.07 73.554ZM189.781 72.1628L189.067 71.8484C189.871 70.6469 190.953 69.5798 192.255 68.7044L192.783 69.2153C191.554 70.032 190.534 71.0331 189.781 72.1628ZM337.967 68.0441C336.574 67.4723 335.056 67.1226 333.498 67.0145L333.566 66.3542C335.247 66.4689 336.883 66.8425 338.388 67.4546L337.967 68.0441ZM196.901 67.4389L196.656 66.818C197.956 66.4848 199.312 66.3151 200.676 66.3149H201.605V66.9752H200.676C199.395 66.9744 198.122 67.1308 196.901 67.4389ZM328.608 66.9752H323.718V66.3149H328.608V66.9752ZM318.828 66.9752H313.938V66.3149H318.828V66.9752ZM309.048 66.9752H304.158V66.3149H309.048V66.9752ZM299.268 66.9752H294.378V66.3149H299.268V66.9752ZM289.488 66.9752H284.598V66.3149H289.488V66.9752ZM279.708 66.9752H274.818V66.3149H279.708V66.9752ZM269.928 66.9752H265.038V66.3149H269.928V66.9752ZM260.148 66.9752H255.258V66.3149H260.148V66.9752ZM250.368 66.9752H245.478V66.3149H250.368V66.9752ZM240.588 66.9752H235.698V66.3149H240.588V66.9752ZM230.808 66.9752H225.918V66.3149H230.808V66.9752ZM221.028 66.9752H216.138V66.3149H221.028V66.9752ZM211.248 66.9752H206.358V66.3149H211.248V66.9752Z" fill="black"/>
<path d="M345.606 132.331H344.784V134.304H345.606V132.331Z" fill="#5B48EE"/>
<path opacity="0.2" d="M345.606 132.331H344.784V134.304H345.606V132.331Z" fill="black"/>
<path d="M279.903 321.977H287.092L287.864 308.607H280.676L279.903 321.977Z" fill="#E4897B"/>
<path d="M287.336 321.309H279.512C279.37 321.309 279.233 321.349 279.124 321.423C279.014 321.496 278.941 321.598 278.916 321.71L277.752 326.843C277.725 326.968 277.732 327.097 277.774 327.22C277.815 327.344 277.89 327.458 277.993 327.555C278.095 327.653 278.223 327.731 278.368 327.784C278.512 327.838 278.669 327.865 278.828 327.864C281.654 327.825 285.742 327.691 289.302 327.691C293.459 327.691 294.045 327.88 298.916 327.88C301.85 327.88 302.583 325.522 301.341 325.263C295.669 324.272 294.094 324.17 289.126 321.765C288.596 321.479 287.975 321.321 287.336 321.309Z" fill="#263238"/>
<path d="M287.854 308.615L287.463 315.501H280.275L280.676 308.615H287.854Z" fill="#CE6F64"/>
<path d="M328.06 129.784C327.923 131.6 327.767 133.589 327.698 135.491C327.63 137.393 327.581 139.326 327.61 141.221C327.64 143.115 327.728 145.001 327.933 146.809C328.09 148.515 328.434 150.206 328.96 151.863C329.16 152.494 329.445 153.105 329.811 153.687C329.918 153.862 330.042 154.03 330.182 154.19L330.622 154.763C330.906 155.141 331.248 155.549 331.6 155.911C332.882 157.444 334.3 158.969 335.767 160.501C338.701 163.527 341.899 166.585 345.038 169.58L341.292 173.093C336.96 170.831 332.88 168.272 329.097 165.445C327.156 164.005 325.314 162.481 323.581 160.879C323.141 160.462 322.691 160.093 322.28 159.621L321.644 158.961C321.396 158.712 321.171 158.449 320.97 158.175C320.045 157.042 319.297 155.822 318.74 154.543C317.814 152.366 317.159 150.12 316.784 147.839C316.383 145.677 316.207 143.547 316.07 141.441C315.933 139.334 315.943 137.236 316.07 135.153C316.197 133.07 316.275 131.034 316.569 128.865L328.06 129.784Z" fill="#E4897B"/>
<path d="M330.564 141.622L327.513 142.604L322.378 144.247L313.263 147.179C313.263 147.179 309.107 129.8 311.307 124.518C313.772 118.717 322.476 118.851 327.18 125.461C331.835 131.907 330.564 141.622 330.564 141.622Z" fill="#5B48EE"/>
<path opacity="0.6" d="M330.564 141.622L327.513 142.604L322.378 144.247L313.263 147.179C313.263 147.179 309.107 129.8 311.307 124.518C313.772 118.717 322.476 118.851 327.18 125.461C331.835 131.907 330.564 141.622 330.564 141.622Z" fill="white"/>
<path d="M327.102 142.746L322.417 144.247C321.635 141.519 320.911 136.953 323.229 133.534C326.398 135.664 326.887 139.963 327.102 142.746Z" fill="#5B48EE"/>
<path opacity="0.4" d="M327.102 142.746L322.417 144.247C321.635 141.519 320.911 136.953 323.229 133.534C326.398 135.664 326.887 139.963 327.102 142.746Z" fill="white"/>
<path d="M322.447 166.892H283.121C282.838 164.054 283.728 156.367 283.121 145.898C282.984 143.484 282.769 140.93 282.446 138.25C281.729 132.161 280.48 126.12 278.71 120.172C283.037 119.495 287.415 119.048 291.816 118.836C297.386 118.576 302.97 118.576 308.539 118.836C312.391 119.149 316.204 119.711 319.943 120.518C319.943 120.518 329.205 133.667 322.447 166.892Z" fill="#5B48EE"/>
<path opacity="0.6" d="M322.447 166.892H283.121C282.838 164.054 283.728 156.367 283.121 145.898C282.984 143.484 282.769 140.93 282.446 138.25C281.729 132.161 280.48 126.12 278.71 120.172C283.037 119.495 287.415 119.048 291.816 118.836C297.386 118.576 302.97 118.576 308.539 118.836C312.391 119.149 316.204 119.711 319.943 120.518C319.943 120.518 329.205 133.667 322.447 166.892Z" fill="white"/>
<path d="M283.141 145.897C283.004 143.484 282.789 140.93 282.466 138.25C283.737 137.613 285.4 137.574 285.742 141.315C286.055 144.773 284.598 145.732 283.141 145.897Z" fill="#5B48EE"/>
<path opacity="0.4" d="M283.141 145.897C283.004 143.484 282.789 140.93 282.466 138.25C283.737 137.613 285.4 137.574 285.742 141.315C286.055 144.773 284.598 145.732 283.141 145.897Z" fill="white"/>
<path d="M356.158 173.793L350.486 176.63L343.483 175.428L349.058 169.871L356.158 173.793Z" fill="#E4897B"/>
<path d="M342.505 168.99L349.058 169.839L343.483 175.396C343.483 175.396 339.982 175.113 339.033 171.309L342.505 168.99Z" fill="#E4897B"/>
<path d="M292.823 103.705C294.065 108.028 295.473 115.951 291.845 118.835C291.845 118.835 293.674 121.736 303.669 121.736C312.793 121.736 308.559 118.835 308.559 118.835C302.505 117.68 302.505 114.119 303.395 110.747L292.823 103.705Z" fill="#E4897B"/>
<path d="M297.136 106.582L303.395 110.748C303.17 111.522 303.032 112.311 302.984 113.106C301.077 114.599 297.439 110.818 297.116 108.893C296.952 108.128 296.959 107.345 297.136 106.582Z" fill="#CE6F64"/>
<path d="M314.172 92.7481C316.676 95.2475 313.752 103.123 308.569 102.966C303.385 102.809 309.419 87.9692 314.172 92.7481Z" fill="#263238"/>
<path d="M293.889 96.521C293.322 102.353 292.627 105.725 295.757 109.199C296.762 110.337 298.133 111.235 299.722 111.797C301.311 112.359 303.06 112.565 304.783 112.392C306.506 112.22 308.139 111.675 309.508 110.817C310.877 109.959 311.931 108.818 312.559 107.517C315.014 102.557 315.493 93.8643 308.852 90.5788C307.443 89.8312 305.815 89.3933 304.13 89.3088C302.445 89.2243 300.762 89.4961 299.248 90.0972C297.734 90.6984 296.443 91.6078 295.503 92.7348C294.562 93.8619 294.006 95.1673 293.889 96.521Z" fill="#E4897B"/>
<path d="M291.268 89.1875L299.092 91.4197C295.659 95.1061 300.647 103.799 294.583 102.172C291.806 101.433 282.749 93.3847 291.268 89.1875Z" fill="#263238"/>
<path d="M295.063 90.6966C297.997 92.4416 310.036 94.5166 316.911 91.4355C315.496 91.1352 314.123 90.7191 312.813 90.1936C312.813 90.1936 317.958 89.9971 320.236 86.9396C317.038 87.375 313.752 87.0414 310.789 85.9806C311.927 85.7105 312.982 85.2522 313.886 84.6349C314.791 84.0177 315.525 83.2552 316.041 82.3965C306.544 82.4908 286.094 84.0392 289.635 89.4076C293.175 94.776 295.063 90.6966 295.063 90.6966Z" fill="#263238"/>
<path d="M290.955 89.9893C289.513 89.4376 288.205 88.6844 287.092 87.7649C286.642 88.6688 286.642 91.1132 290.955 89.9893Z" fill="#263238"/>
<path d="M289.488 102.416C290.26 103.791 291.661 104.875 293.4 105.442C295.679 106.189 297.019 104.656 296.549 102.801C296.129 101.158 294.437 98.7924 292.07 98.8238C289.703 98.8552 288.608 100.742 289.488 102.416Z" fill="#E4897B"/>
<path d="M301.958 321.977H309.136L310.623 308.607H303.444L301.958 321.977Z" fill="#E4897B"/>
<path d="M309.468 321.309H301.644C301.501 321.308 301.363 321.347 301.253 321.421C301.144 321.494 301.071 321.597 301.048 321.71L299.854 326.843C299.827 326.968 299.835 327.097 299.876 327.221C299.918 327.344 299.993 327.458 300.095 327.555C300.198 327.653 300.326 327.731 300.47 327.784C300.614 327.838 300.771 327.865 300.93 327.864C303.766 327.825 307.845 327.691 311.405 327.691C315.561 327.691 319.17 327.88 324.04 327.88C326.974 327.88 327.708 325.522 326.456 325.263C320.793 324.272 316.197 324.17 311.238 321.765C310.713 321.483 310.1 321.325 309.468 321.309Z" fill="#263238"/>
<path d="M310.623 308.615L309.86 315.501H302.671L303.434 308.615H310.623Z" fill="#CE6F64"/>
<path d="M312.471 322.197C312.956 322.292 313.467 322.251 313.918 322.079C314.065 322.008 314.186 321.906 314.268 321.784C314.351 321.663 314.392 321.526 314.388 321.388C314.399 321.307 314.384 321.224 314.343 321.15C314.301 321.075 314.236 321.011 314.153 320.963C313.4 320.531 310.867 321.388 310.573 321.49C310.544 321.502 310.52 321.519 310.502 321.542C310.485 321.564 310.476 321.59 310.476 321.616C310.479 321.644 310.492 321.672 310.512 321.695C310.533 321.718 310.561 321.737 310.593 321.749C311.198 321.951 311.827 322.101 312.471 322.197ZM313.742 321.128C313.819 321.135 313.893 321.156 313.957 321.191C314.006 321.191 314.045 321.254 314.045 321.364C314.047 321.458 314.02 321.55 313.965 321.633C313.91 321.715 313.83 321.785 313.732 321.836C312.859 322.032 311.925 321.953 311.121 321.616C311.946 321.317 312.837 321.151 313.742 321.128Z" fill="#5B48EE"/>
<path d="M310.632 321.757H310.72C311.522 321.521 313.175 320.429 313.126 319.761C313.115 319.654 313.06 319.554 312.969 319.475C312.879 319.397 312.759 319.345 312.627 319.328C312.5 319.297 312.366 319.289 312.234 319.304C312.102 319.319 311.976 319.357 311.865 319.415C310.887 319.863 310.495 321.521 310.486 321.592C310.479 321.63 310.491 321.669 310.518 321.701C310.545 321.733 310.586 321.755 310.632 321.765V321.757ZM312.461 319.572H312.539C312.764 319.627 312.774 319.705 312.774 319.745C312.774 320.138 311.728 320.987 310.906 321.317C311.062 320.663 311.461 320.063 312.05 319.595C312.18 319.551 312.325 319.543 312.461 319.572Z" fill="#5B48EE"/>
<path d="M299.962 313.85H311.698C311.698 313.85 329.703 258.578 329.361 239.832C329.018 221.802 322.515 166.892 322.515 166.892H296.598C296.598 166.892 298.603 179.106 300.891 194.174C302.935 207.473 305.185 223.012 306.475 234.33C306.847 237.694 307.15 240.681 307.326 243.134C308.666 261.542 299.962 313.85 299.962 313.85Z" fill="#5B48EE"/>
<path opacity="0.3" d="M299.962 313.85H311.698C311.698 313.85 329.703 258.578 329.361 239.832C329.018 221.802 322.515 166.892 322.515 166.892H296.598C296.598 166.892 298.603 179.106 300.891 194.174C302.935 207.473 305.185 223.012 306.475 234.33C306.847 237.694 307.15 240.681 307.326 243.134C308.666 261.542 299.962 313.85 299.962 313.85Z" fill="black"/>
<path d="M300.891 194.142C302.935 207.441 305.185 222.981 306.475 234.299C309.204 224.419 315.864 195.699 305.869 181.173C303.365 184.074 301.84 189.033 300.891 194.142Z" fill="#5B48EE"/>
<path opacity="0.4" d="M300.891 194.142C302.935 207.441 305.185 222.981 306.475 234.299C309.204 224.419 315.864 195.699 305.869 181.173C303.365 184.074 301.84 189.033 300.891 194.142Z" fill="black"/>
<path d="M308.5 166.892C308.5 166.892 307.522 219.844 303.698 236.759C299.512 255.285 291.18 313.85 291.18 313.85H277.752C277.752 313.85 279.708 256.779 281.762 238.441C283.972 218.532 283.16 166.915 283.16 166.915L308.5 166.892Z" fill="#5B48EE"/>
<path opacity="0.3" d="M308.5 166.892C308.5 166.892 307.522 219.844 303.698 236.759C299.512 255.285 291.18 313.85 291.18 313.85H277.752C277.752 313.85 279.708 256.779 281.762 238.441C283.972 218.532 283.16 166.915 283.16 166.915L308.5 166.892Z" fill="black"/>
<path d="M277.204 314.086H291.708L292.774 309.684L276.706 309.323L277.204 314.086Z" fill="#263238"/>
<path d="M299.297 314.086H313.801L314.877 309.684L298.857 309.912L299.297 314.086Z" fill="#263238"/>
<path d="M282.857 307.46C282.84 307.459 282.825 307.455 282.81 307.449C282.796 307.443 282.783 307.434 282.773 307.424C282.763 307.413 282.755 307.401 282.751 307.389C282.747 307.376 282.746 307.363 282.749 307.35C282.837 306.799 283.845 255.584 285.683 239.109C287.639 221.228 286.427 173.785 286.466 173.384C286.471 173.358 286.487 173.335 286.513 173.319C286.538 173.303 286.57 173.295 286.603 173.297C286.635 173.301 286.665 173.314 286.687 173.335C286.709 173.355 286.72 173.381 286.72 173.407C286.72 173.808 287.923 221.251 285.928 239.133C284.099 255.639 283.092 306.831 282.994 307.381C282.987 307.405 282.969 307.427 282.944 307.441C282.919 307.456 282.888 307.462 282.857 307.46Z" fill="#5B48EE"/>
<path opacity="0.3" d="M282.857 307.46C282.84 307.459 282.825 307.455 282.81 307.449C282.796 307.443 282.783 307.434 282.773 307.424C282.763 307.413 282.755 307.401 282.751 307.389C282.747 307.376 282.746 307.363 282.749 307.35C282.837 306.799 283.845 255.584 285.683 239.109C287.639 221.228 286.427 173.785 286.466 173.384C286.471 173.358 286.487 173.335 286.513 173.319C286.538 173.303 286.57 173.295 286.603 173.297C286.635 173.301 286.665 173.314 286.687 173.335C286.709 173.355 286.72 173.381 286.72 173.407C286.72 173.808 287.923 221.251 285.928 239.133C284.099 255.639 283.092 306.831 282.994 307.381C282.987 307.405 282.969 307.427 282.944 307.441C282.919 307.456 282.888 307.462 282.857 307.46Z" fill="white"/>
<path d="M304.559 99.7277C304.471 100.191 304.715 100.616 305.107 100.671C305.498 100.726 305.869 100.388 305.948 99.8849C306.026 99.3818 305.781 98.9888 305.4 98.9338C305.019 98.8788 304.637 99.2561 304.559 99.7277Z" fill="#263238"/>
<path d="M311.336 100.38C311.258 100.852 311.503 101.268 311.884 101.323C312.265 101.378 312.647 101.041 312.725 100.537C312.803 100.034 312.559 99.6414 312.177 99.5864C311.796 99.5314 311.415 99.9087 311.336 100.38Z" fill="#263238"/>
<path d="M309.048 100.545C309.505 102.084 310.216 103.567 311.161 104.955C310.708 105.123 310.216 105.21 309.718 105.21C309.22 105.21 308.727 105.123 308.275 104.955L309.048 100.545Z" fill="#DE5753"/>
<path d="M307.092 106.896C307.114 106.899 307.137 106.899 307.16 106.895C307.182 106.891 307.203 106.883 307.222 106.872C307.24 106.86 307.255 106.846 307.267 106.83C307.278 106.814 307.285 106.797 307.287 106.778C307.29 106.741 307.276 106.704 307.247 106.675C307.218 106.646 307.177 106.627 307.131 106.621C306.387 106.554 305.672 106.35 305.041 106.026C304.41 105.702 303.88 105.265 303.493 104.75C303.483 104.733 303.47 104.718 303.452 104.705C303.435 104.692 303.415 104.683 303.393 104.677C303.371 104.671 303.347 104.669 303.324 104.671C303.301 104.672 303.278 104.678 303.258 104.687C303.238 104.695 303.22 104.706 303.205 104.719C303.19 104.732 303.179 104.748 303.171 104.765C303.164 104.781 303.161 104.799 303.162 104.817C303.164 104.835 303.17 104.852 303.18 104.868C303.591 105.427 304.159 105.901 304.838 106.253C305.517 106.605 306.288 106.825 307.092 106.896Z" fill="#263238"/>
<path d="M302.769 96.3324C302.821 96.3442 302.875 96.346 302.928 96.3378C302.98 96.3296 303.03 96.3116 303.072 96.2852C303.405 96.0617 303.8 95.9057 304.224 95.8305C304.648 95.7552 305.088 95.7629 305.507 95.8529C305.55 95.8652 305.596 95.8705 305.642 95.8685C305.687 95.8664 305.732 95.8571 305.773 95.841C305.814 95.8249 305.85 95.8023 305.88 95.7747C305.91 95.747 305.933 95.7148 305.947 95.68C305.973 95.607 305.962 95.5291 305.919 95.462C305.875 95.3949 305.802 95.3436 305.713 95.3184C305.184 95.2003 304.628 95.1864 304.092 95.2781C303.556 95.3698 303.055 95.5643 302.632 95.8451C302.595 95.8672 302.564 95.8954 302.541 95.9277C302.518 95.9601 302.504 95.9959 302.5 96.0329C302.495 96.0699 302.5 96.1072 302.515 96.1425C302.529 96.1779 302.552 96.2104 302.583 96.2381C302.632 96.2835 302.697 96.3163 302.769 96.3324Z" fill="#263238"/>
<path d="M284.519 119.103L286.368 118.969C286.458 118.966 286.546 118.988 286.619 119.031C286.692 119.074 286.745 119.135 286.769 119.205C292.93 141.504 291.082 165.178 291.082 165.178H289.038C289.466 149.848 287.846 134.525 284.206 119.472C284.185 119.431 284.177 119.387 284.183 119.342C284.189 119.298 284.208 119.256 284.239 119.219C284.27 119.183 284.312 119.153 284.361 119.132C284.41 119.112 284.464 119.102 284.519 119.103Z" fill="#5B48EE"/>
<path opacity="0.1" d="M284.519 119.103L286.368 118.969C286.458 118.966 286.546 118.988 286.619 119.031C286.692 119.074 286.745 119.135 286.769 119.205C292.93 141.504 291.082 165.178 291.082 165.178H289.038C289.466 149.848 287.846 134.525 284.206 119.472C284.185 119.431 284.177 119.387 284.183 119.342C284.189 119.298 284.208 119.256 284.239 119.219C284.27 119.183 284.312 119.153 284.361 119.132C284.41 119.112 284.464 119.102 284.519 119.103Z" fill="white"/>
<path d="M289.419 165.705H290.837C290.923 165.706 291.009 165.693 291.088 165.667C291.168 165.64 291.24 165.602 291.3 165.552C291.361 165.503 291.408 165.445 291.439 165.38C291.471 165.316 291.486 165.247 291.483 165.178C291.473 165.035 291.396 164.9 291.267 164.801C291.138 164.702 290.967 164.645 290.788 164.644H289.38C289.294 164.644 289.208 164.657 289.129 164.684C289.049 164.712 288.977 164.751 288.917 164.801C288.856 164.851 288.809 164.91 288.778 164.975C288.747 165.039 288.732 165.109 288.735 165.178C288.745 165.319 288.821 165.452 288.948 165.55C289.075 165.648 289.243 165.703 289.419 165.705Z" fill="#263238"/>
<path d="M291.062 167.096L290.994 165.602C290.984 165.416 290.884 165.24 290.717 165.111C290.549 164.982 290.326 164.911 290.094 164.911C289.982 164.91 289.871 164.927 289.767 164.961C289.664 164.996 289.57 165.047 289.492 165.112C289.414 165.177 289.354 165.254 289.314 165.338C289.275 165.422 289.257 165.512 289.263 165.602L289.331 167.096C289.341 167.281 289.439 167.456 289.605 167.584C289.77 167.713 289.991 167.786 290.221 167.787C290.333 167.787 290.444 167.769 290.548 167.735C290.651 167.7 290.745 167.648 290.823 167.584C290.901 167.52 290.963 167.443 291.004 167.359C291.045 167.275 291.065 167.186 291.062 167.096Z" fill="#263238"/>
<path d="M314.397 97.5505C314.449 97.5623 314.503 97.5623 314.554 97.5505C314.598 97.5408 314.639 97.5238 314.674 97.5008C314.71 97.4778 314.739 97.4492 314.76 97.4168C314.781 97.3844 314.793 97.3488 314.797 97.3124C314.8 97.2759 314.794 97.2392 314.779 97.2047C314.625 96.7708 314.347 96.372 313.966 96.0403C313.586 95.7086 313.114 95.4532 312.588 95.2947C312.545 95.284 312.5 95.2804 312.455 95.2842C312.41 95.2879 312.367 95.299 312.328 95.3166C312.288 95.3342 312.254 95.3581 312.226 95.3868C312.199 95.4154 312.179 95.4483 312.168 95.4834C312.143 95.5563 312.155 95.634 312.201 95.7C312.246 95.766 312.322 95.8151 312.412 95.8371C312.825 95.9675 313.194 96.1731 313.491 96.4377C313.788 96.7023 314.005 97.0186 314.124 97.3619C314.142 97.4112 314.177 97.4552 314.226 97.4886C314.275 97.5221 314.334 97.5436 314.397 97.5505Z" fill="#263238"/>
<path d="M283.16 129.501C282.035 133.203 280.901 137.055 279.903 140.804C279.414 142.683 278.925 144.553 278.583 146.393C278.213 148.093 278.007 149.815 277.967 151.541C278.097 154.726 279.492 157.794 281.947 160.297C283.268 161.701 284.769 162.99 286.427 164.14C287.268 164.746 288.148 165.327 289.067 165.87C289.527 166.137 289.996 166.404 290.466 166.656C290.935 166.907 291.444 167.182 291.825 167.371L289.693 171.67C288.911 171.482 288.324 171.317 287.659 171.12C286.994 170.924 286.407 170.711 285.781 170.491C284.549 170.043 283.336 169.548 282.143 168.998C279.728 167.86 277.495 166.49 275.493 164.919C273.381 163.257 271.611 161.336 270.25 159.228C268.845 157.018 267.951 154.621 267.61 152.154C267.355 149.89 267.355 147.611 267.61 145.347C267.835 143.225 268.158 141.15 268.588 139.098C269.414 135.032 270.524 131.007 271.913 127.041L283.16 129.501Z" fill="#E4897B"/>
<path d="M278.73 120.172C270.955 121.288 266.554 137.99 266.554 137.99L285.781 143.492C286.672 139.286 286.672 134.989 285.781 130.783C284.392 123.693 286.114 119.111 278.73 120.172Z" fill="#5B48EE"/>
<path opacity="0.6" d="M278.73 120.172C270.955 121.288 266.554 137.99 266.554 137.99L285.781 143.492C286.672 139.286 286.672 134.989 285.781 130.783C284.392 123.693 286.114 119.111 278.73 120.172Z" fill="white"/>
<path d="M315.659 119.401L317.508 119.677C317.585 119.688 317.655 119.718 317.71 119.763C317.764 119.808 317.8 119.866 317.811 119.928C322.701 142.235 319.464 165.178 319.464 165.178H317.41C319.366 140.899 315.855 122.6 315.248 119.724C315.237 119.679 315.24 119.632 315.257 119.589C315.274 119.545 315.304 119.505 315.345 119.473C315.386 119.441 315.436 119.418 315.491 119.405C315.546 119.393 315.603 119.391 315.659 119.401Z" fill="#5B48EE"/>
<path opacity="0.1" d="M315.659 119.401L317.508 119.677C317.585 119.688 317.655 119.718 317.71 119.763C317.764 119.808 317.8 119.866 317.811 119.928C322.701 142.235 319.464 165.178 319.464 165.178H317.41C319.366 140.899 315.855 122.6 315.248 119.724C315.237 119.679 315.24 119.632 315.257 119.589C315.274 119.545 315.304 119.505 315.345 119.473C315.386 119.441 315.436 119.418 315.491 119.405C315.546 119.393 315.603 119.391 315.659 119.401Z" fill="white"/>
<path d="M317.772 165.705H319.19C319.364 165.705 319.532 165.649 319.656 165.551C319.781 165.452 319.852 165.318 319.855 165.178C319.855 165.038 319.786 164.903 319.663 164.803C319.541 164.703 319.374 164.646 319.199 164.644H317.781C317.606 164.646 317.438 164.703 317.314 164.802C317.19 164.902 317.119 165.037 317.116 165.178C317.115 165.247 317.131 165.316 317.163 165.381C317.196 165.445 317.244 165.504 317.305 165.553C317.366 165.602 317.439 165.641 317.519 165.667C317.599 165.693 317.685 165.706 317.772 165.705Z" fill="#263238"/>
<path d="M319.327 167.096V165.602C319.328 165.511 319.307 165.421 319.264 165.336C319.221 165.252 319.158 165.175 319.078 165.111C318.998 165.046 318.902 164.996 318.797 164.961C318.692 164.927 318.58 164.91 318.466 164.911C318.237 164.911 318.017 164.983 317.854 165.113C317.691 165.242 317.598 165.418 317.596 165.602V167.096C317.594 167.186 317.616 167.276 317.658 167.36C317.7 167.444 317.762 167.52 317.841 167.584C317.921 167.649 318.015 167.7 318.119 167.735C318.223 167.77 318.334 167.787 318.447 167.787C318.676 167.786 318.896 167.713 319.06 167.584C319.224 167.455 319.319 167.28 319.327 167.096Z" fill="#263238"/>
<path d="M290.339 322.197C290.827 322.292 291.341 322.251 291.796 322.079C291.943 322.008 292.064 321.906 292.146 321.784C292.229 321.663 292.27 321.526 292.265 321.388C292.277 321.307 292.262 321.224 292.22 321.15C292.179 321.075 292.114 321.011 292.031 320.963C291.278 320.531 288.735 321.388 288.451 321.49C288.42 321.5 288.394 321.517 288.377 321.54C288.359 321.563 288.351 321.589 288.353 321.616C288.355 321.644 288.366 321.671 288.385 321.694C288.404 321.718 288.43 321.737 288.461 321.749C289.066 321.95 289.695 322.1 290.339 322.197ZM291.61 321.128C291.69 321.135 291.767 321.156 291.835 321.191C291.867 321.211 291.891 321.238 291.905 321.269C291.919 321.299 291.922 321.332 291.913 321.364C291.917 321.458 291.89 321.551 291.835 321.634C291.781 321.716 291.699 321.786 291.6 321.836C290.73 322.032 289.799 321.953 288.999 321.616C289.821 321.317 290.708 321.151 291.61 321.128Z" fill="#5B48EE"/>
<path d="M288.51 321.757H288.598C289.409 321.521 291.062 320.429 291.003 319.761C290.992 319.654 290.937 319.554 290.847 319.475C290.756 319.397 290.636 319.345 290.505 319.328C290.377 319.297 290.243 319.289 290.111 319.304C289.98 319.319 289.854 319.357 289.742 319.415C288.813 319.863 288.382 321.521 288.363 321.592C288.357 321.616 288.36 321.642 288.37 321.665C288.38 321.688 288.398 321.709 288.422 321.726C288.447 321.742 288.477 321.753 288.51 321.757ZM290.348 319.572H290.426C290.642 319.627 290.651 319.705 290.651 319.745C290.651 320.138 289.615 320.987 288.793 321.317C288.942 320.663 289.338 320.062 289.928 319.595C290.058 319.552 290.202 319.543 290.338 319.572H290.348Z" fill="#5B48EE"/>
<path d="M286.016 170.562L288.266 167.277L294.437 167.45L299.239 169.022L302.505 172.889L294.114 172.48C294.114 172.48 288.97 173.651 286.016 170.562Z" fill="#E4897B"/>
<path d="M303.053 121.728L301.576 120.895L298.632 123.253L303.053 121.728Z" fill="#5B48EE"/>
<path opacity="0.4" d="M303.053 121.728L301.576 120.895L298.632 123.253L303.053 121.728Z" fill="white"/>
<path d="M301.576 120.895C301.576 120.895 299.18 123.732 298.779 125.784C295.718 124.778 289.909 122.262 288.999 118.71C290.085 118.431 291.118 118.034 292.07 117.531C292.07 117.531 295.19 119.606 301.576 120.895Z" fill="#5B48EE"/>
<path opacity="0.2" d="M301.576 120.895C301.576 120.895 299.18 123.732 298.779 125.784C295.718 124.778 289.909 122.262 288.999 118.71C290.085 118.431 291.118 118.034 292.07 117.531C292.07 117.531 295.19 119.606 301.576 120.895Z" fill="white"/>
<path d="M303.053 121.728L303.6 120.761L307.659 123.253L303.053 121.728Z" fill="#5B48EE"/>
<path opacity="0.4" d="M303.053 121.728L303.6 120.761L307.659 123.253L303.053 121.728Z" fill="white"/>
<path d="M303.601 120.761C305.212 121.965 306.302 123.551 306.711 125.288C309.645 124.282 310.711 120.997 309.83 118.82C308.669 118.403 307.456 118.087 306.212 117.876C306.293 118.531 306.072 119.187 305.59 119.719C305.109 120.251 304.4 120.622 303.601 120.761Z" fill="#5B48EE"/>
<path opacity="0.2" d="M303.601 120.761C305.212 121.965 306.302 123.551 306.711 125.288C309.645 124.282 310.711 120.997 309.83 118.82C308.669 118.403 307.456 118.087 306.212 117.876C306.293 118.531 306.072 119.187 305.59 119.719C305.109 120.251 304.4 120.622 303.601 120.761Z" fill="white"/>
<path d="M374.036 144.184L312.451 142.431L303.542 171.364L365.126 173.117L374.036 144.184Z" fill="#5B48EE"/>
<path opacity="0.1" d="M374.036 144.184L312.451 142.431L303.542 171.364L365.126 173.117L374.036 144.184Z" fill="white"/>
<path d="M375.923 144.231L314.349 142.486L305.439 171.419L367.024 173.172L375.923 144.231Z" fill="#263238"/>
<path d="M367.024 173.172L366.769 174.775L305.185 173.022L305.439 171.419L367.024 173.172Z" fill="#263238"/>
<path d="M305.439 171.419L305.185 173.022L281.019 172.338L281.263 170.735L305.439 171.419Z" fill="#5B48EE"/>
<path opacity="0.1" d="M305.439 171.419L305.185 173.022L281.019 172.338L281.263 170.735L305.439 171.419Z" fill="white"/>
</g>
<defs>
<clipPath id="clip0_43_2257">
<rect width="489" height="393" fill="white"/>
</clipPath>
</defs>
</svg>
