<svg width="396" height="478" viewBox="0 0 396 478" fill="none" xmlns="http://www.w3.org/2000/svg">
<path d="M198 456.911C292.961 456.911 369.943 403.263 369.943 337.086C369.943 270.908 292.961 217.26 198 217.26C103.038 217.26 26.0566 270.908 26.0566 337.086C26.0566 403.263 103.038 456.911 198 456.911Z" fill="#EBEBEB"/>
<path d="M320.514 421.166L319.58 421.825C316.665 423.859 313.674 425.796 310.606 427.638C310.107 427.953 309.608 428.24 309.109 428.546C304.12 431.491 298.956 434.209 293.618 436.701C292.604 437.179 291.583 437.657 290.561 438.097L290.307 438.211L287.464 439.454L286.838 439.703C285.856 440.133 284.858 440.534 283.861 440.936C282.863 441.337 281.651 441.815 280.542 442.236C279.433 442.657 278.356 443.058 277.255 443.469C277.161 443.491 277.068 443.523 276.978 443.565L274.499 444.444C272.836 445.018 271.173 445.563 269.486 446.108C268.646 446.366 267.807 446.634 266.959 446.882C266.112 447.131 265.233 447.408 264.362 447.666C262.627 448.173 260.877 448.622 259.126 449.119L256.489 449.798C255.317 450.098 254.137 450.384 252.949 450.658C251.785 450.936 250.612 451.184 249.432 451.452H249.345C248.173 451.71 246.969 451.959 245.821 452.188C244.672 452.417 243.445 452.656 242.265 452.876H242.067C238.519 453.514 234.944 454.084 231.343 454.588C230.606 454.702 229.862 454.798 229.118 454.894C228.373 454.989 227.676 455.066 226.947 455.152C225.886 455.285 224.817 455.41 223.779 455.515C222.932 455.611 222.085 455.697 221.237 455.763C220.659 455.83 220.089 455.869 219.511 455.926C218.932 455.983 218.172 456.041 217.507 456.089C216.992 456.136 216.485 456.175 215.97 456.203L213.697 456.366C213.048 456.414 212.406 456.452 211.757 456.48C211.107 456.509 210.276 456.567 209.539 456.586C209.215 456.586 208.882 456.586 208.557 456.586C207.654 456.643 206.759 456.672 205.856 456.7C204.629 456.7 203.393 456.767 202.166 456.777C200.938 456.786 199.528 456.777 198.206 456.777L26.0566 336.971C26.0566 336.101 26.0566 335.26 26.0962 334.399C26.0962 333.376 26.1834 332.353 26.2546 331.321C26.2546 330.843 26.3259 330.365 26.3655 329.906C26.4051 329.447 26.4526 328.95 26.5002 328.472C26.5477 327.994 26.6031 327.516 26.6586 327.038C26.714 326.56 26.7457 326.302 26.8011 325.939C26.9358 324.868 27.1021 323.816 27.2842 322.746C27.3714 322.268 27.4506 321.79 27.5456 321.321C27.7198 320.365 27.9099 319.476 28.1158 318.558C28.2267 318.052 28.3455 317.545 28.4643 317.048L28.797 315.729C29.0504 314.773 29.3197 313.759 29.589 312.794C29.7236 312.316 29.8662 311.838 30.0166 311.369C30.3176 310.413 30.6265 309.505 30.9512 308.578C31.1175 308.109 31.2838 307.622 31.4581 307.172C31.6323 306.723 31.759 306.35 31.9174 305.958C36.2022 294.821 42.8312 284.028 51.8046 273.961L52.6599 273.005L53.1985 272.412C53.5232 272.059 53.8479 271.705 54.1806 271.37C54.7746 270.739 55.3844 270.108 55.9942 269.458L57.0951 268.349C57.4594 267.986 57.8317 267.613 58.2118 267.25L59.3998 266.189C60.1918 265.462 60.9838 264.745 61.7758 264.028L62.9718 262.957L63.9063 262.126L65.5695 260.72C65.9418 260.414 66.3061 260.099 66.6783 259.764C69.7671 257.215 73.0354 254.739 76.4833 252.336C76.5783 252.26 76.6734 252.202 76.7763 252.135L320.514 421.166Z" fill="#FAFAFA"/>
<path d="M180.837 373.978C172.826 371.69 164.431 372.356 156.737 375.89C154.361 376.97 151.985 378.481 150.821 381.138C148.793 385.717 151.28 391.367 154.377 394.972C160.087 401.616 167.841 405.096 175.531 407.294C183.221 409.493 191.181 410.554 198.776 413.279C209.072 416.988 218.576 423.652 228.714 427.992C238.851 432.332 250.557 434.177 260.164 428.269C264.504 425.602 268.504 420.545 268.084 414.684C267.712 409.474 264.053 405.583 260.497 402.591C235.62 381.645 204.114 376.779 173.979 372.582" fill="#F0F0F0"/>
<path d="M82.6929 51.8012C82.6929 51.8012 106.896 79.7539 111.997 134.01C116.686 183.86 105.558 230.642 101.329 249.461C100.378 253.193 103.309 257.508 113.914 257.508C124.518 257.508 124.772 249.461 124.772 249.461C124.772 249.461 132.502 191.122 125.477 139.3C118.523 88.1628 101.479 64.4951 89.1318 48.9346L82.6929 51.8012Z" fill="#B16668"/>
<path d="M86.7636 50.7048C86.7636 50.7048 82.566 36.5122 58.8139 36.0898C35.0618 35.6673 18.7625 72.8235 16.1885 95.8374C16.1885 95.8374 22.6195 86.7847 30.9434 81.8862L40.0831 60.9142L35.9172 80.2165C39.8299 79.5835 43.5854 77.8667 46.9181 75.1872C46.9181 75.1872 50.7038 62.3224 55.1628 55.0702L52.3274 71.8981C54.9366 72.1619 57.5543 71.5442 59.9148 70.1077C64.2629 67.6836 77.3071 62.423 86.7636 50.7048Z" fill="#5B48EE"/>
<path d="M85.1399 51.4492C85.1399 51.4492 83.5559 43.7041 89.4721 26.9768C95.4755 10.0382 111.648 1.83045 120.843 0.382024C130.038 -1.0664 143.281 1.28729 156.634 12.9451C149.154 13.2908 141.863 16.0199 135.432 20.8813C130.859 16.7605 125.355 14.6421 119.75 14.8462C119.75 14.8462 128.383 20.9819 130.712 24.0799C130.712 24.0799 123.584 31.8049 114.872 32.4184C114.872 32.4184 107.474 26.8359 101.408 26.6951C101.408 26.6951 108.345 30.628 111.022 35.9188C110.927 35.949 94.5251 50.735 85.1399 51.4492Z" fill="#5B48EE"/>
<path opacity="0.15" d="M85.1399 51.4492C85.1399 51.4492 83.5559 43.7041 89.4721 26.9768C95.4755 10.0382 111.648 1.83045 120.843 0.382024C130.038 -1.0664 143.281 1.28729 156.634 12.9451C149.154 13.2908 141.863 16.0199 135.432 20.8813C130.859 16.7605 125.355 14.6421 119.75 14.8462C119.75 14.8462 128.383 20.9819 130.712 24.0799C130.712 24.0799 123.584 31.8049 114.872 32.4184C114.872 32.4184 107.474 26.8359 101.408 26.6951C101.408 26.6951 108.345 30.628 111.022 35.9188C110.927 35.949 94.5251 50.735 85.1399 51.4492Z" fill="black"/>
<path d="M85.8135 51.1676C85.8135 51.1676 95.5313 36.6129 114.199 38.6749C132.866 40.7369 149.799 68.418 153.878 82.7413C153.878 82.7413 145.38 75.6098 129.073 72.6828L120.503 57.3939L122.602 71.4054L111.672 68.5689L103.61 52.4048L105.938 66.9595C105.938 66.9595 91.5317 59.8582 85.8135 51.1676Z" fill="#5B48EE"/>
<path d="M86.7637 50.7046C87.3911 57.1114 87.085 63.6101 85.8609 69.8762C83.8096 79.472 79.7545 84.622 79.7545 84.622L75.1293 75.5693L75.351 94.419C73.576 100.179 70.9525 105.457 67.6211 109.969L64.5323 91.8641L62.7186 116.568C62.7186 116.568 52.6048 133.848 50.0466 142.277C50.0466 142.277 44.4234 112.102 52.8503 87.2875C61.2772 62.4731 72.0721 47.9285 86.7637 50.7046Z" fill="#5B48EE"/>
<path opacity="0.15" d="M86.7637 50.7046C87.3911 57.1114 87.085 63.6101 85.8609 69.8762C83.8096 79.472 79.7545 84.622 79.7545 84.622L75.1293 75.5693L75.351 94.419C73.576 100.179 70.9525 105.457 67.6211 109.969L64.5323 91.8641L62.7186 116.568C62.7186 116.568 52.6048 133.848 50.0466 142.277C50.0466 142.277 44.4234 112.102 52.8503 87.2875C61.2772 62.4731 72.0721 47.9285 86.7637 50.7046Z" fill="black"/>
<path d="M346.009 192.816L331.262 205.005L345.209 198.628C345.087 203.131 344.146 207.547 342.453 211.563C342.453 211.563 333.242 216.955 328.237 222.652L340.505 217.968C340.891 220.546 340.761 223.197 340.125 225.702C340.045 226.046 339.958 226.4 339.863 226.754C339.214 229.115 338.279 233.598 336.695 238.904C335.358 243.548 333.661 248.029 331.626 252.288C330.613 254.38 329.486 256.389 328.252 258.302C328.181 258.426 328.102 258.541 328.023 258.665C325.747 256.829 323.371 255.035 320.895 253.283C319.477 248.904 317.917 238.292 317.632 229.679C316.602 196.745 338.184 179.728 355.038 174.852C355.038 174.852 348.876 182.94 346.009 192.816Z" fill="#5B48EE"/>
<path opacity="0.25" d="M346.009 192.816L331.262 205.005L345.209 198.628C345.087 203.131 344.146 207.547 342.453 211.563C342.453 211.563 333.242 216.955 328.237 222.652L340.505 217.968C340.891 220.546 340.761 223.197 340.125 225.702C340.045 226.046 339.958 226.4 339.863 226.754C339.214 229.115 338.279 233.598 336.695 238.904C335.358 243.548 333.661 248.029 331.626 252.288C330.613 254.38 329.486 256.389 328.252 258.302C328.181 258.426 328.102 258.541 328.023 258.665C325.747 256.829 323.371 255.035 320.895 253.283C319.477 248.904 317.917 238.292 317.632 229.679C316.602 196.745 338.184 179.728 355.038 174.852C355.038 174.852 348.876 182.94 346.009 192.816Z" fill="black"/>
<path d="M381.847 213.083C381.332 213.408 372.953 218.819 363.718 233.159L349.763 234.803L359.822 238.981L352.86 248.541L338.604 249.315L349.106 253.522C349.106 253.522 343.696 261.867 335.571 265.137C333.812 263.493 331.983 261.896 330.09 260.309L328.324 258.875V258.311C328.04 249.153 330.291 240.141 334.723 232.7C336.257 230.068 338.094 227.715 340.18 225.712C352.155 213.972 372.327 211.075 381.847 213.083Z" fill="#5B48EE"/>
<path d="M381.847 213.083C381.435 213.522 374.68 220.578 364.154 234.813H349.763L359.822 238.99L352.86 248.55L338.604 249.325L349.106 253.531C349.106 253.531 343.696 261.877 335.571 265.146C333.812 263.502 331.983 261.906 330.09 260.319L328.324 258.885V258.321C328.04 249.162 330.291 240.151 334.723 232.709C336.257 230.078 338.094 227.725 340.18 225.721C352.155 213.972 372.327 211.075 381.847 213.083Z" fill="#5B48EE"/>
<path opacity="0.1" d="M381.847 213.083C366.799 213.14 349.51 221.878 339.919 234.048C338.753 235.558 337.693 237.182 336.751 238.904C334.537 243.049 332.83 247.556 331.682 252.288C331.024 254.915 330.495 257.587 330.098 260.29L328.332 258.856V258.292C328.047 249.134 330.299 240.122 334.731 232.681C336.265 230.049 338.102 227.696 340.188 225.692C352.155 213.972 372.327 211.075 381.847 213.083Z" fill="black"/>
<path d="M88.7516 335.48C88.3714 347.066 86.2093 359.38 84.3005 365.116C83.0983 368.405 81.6565 371.56 79.9921 374.542L71.7949 368.806C63.8749 354.208 60.8336 337.583 59.1229 331.522C57.2379 324.658 58.2596 319.811 58.2596 319.811L74.6302 326.015C67.9457 318.425 55.6697 311.216 55.6697 311.216C53.4107 305.876 52.1508 300.001 51.979 294.008L70.5831 302.526L50.9177 286.274C49.3482 281.069 47.2662 276.11 44.7164 271.504C42.9735 268.274 41.0358 265.203 38.9189 262.317C42.269 263.291 45.5585 264.546 48.7635 266.074C68.9437 275.691 89.9871 297.746 88.7516 335.48Z" fill="#5B48EE"/>
<path opacity="0.25" d="M88.7516 335.48C88.3714 347.057 86.2093 359.38 84.3005 365.116C83.1004 368.407 81.6585 371.561 79.9921 374.542L71.7949 368.806C63.8749 354.208 60.8336 337.583 59.1229 331.522C57.2379 324.658 58.2596 319.811 58.2596 319.811L74.6302 326.015C67.9457 318.425 55.6697 311.216 55.6697 311.216C53.4107 305.876 52.1508 300.001 51.979 294.008L70.5831 302.526L50.9177 286.274C49.3482 281.069 47.2662 276.11 44.7164 271.504C42.9735 268.274 41.0358 265.203 38.9189 262.317C42.269 263.291 45.5585 264.546 48.7635 266.074C68.9437 275.691 89.9871 297.746 88.7516 335.48Z" fill="black"/>
<path d="M71.4701 368.194C71.4701 368.194 76.8161 350.355 65.6409 330.91C54.4658 311.465 25.8746 306.618 13.5273 309.218C13.5273 309.218 23.0313 314.954 33.5808 331.436L48.9931 333.252L37.9051 337.879L45.5954 348.395L61.3562 349.265L49.7455 353.911C49.7455 353.911 58.8377 368.06 71.4701 368.194Z" fill="#5B48EE"/>
<path d="M71.4701 368.194C71.4701 368.194 76.8161 350.355 65.6409 330.91C54.4658 311.465 25.8746 306.618 13.5273 309.218C13.5273 309.218 21.083 317 33.0897 333.243H48.9931L37.9051 337.87L45.5954 348.386L61.3562 349.256L49.7455 353.902C49.7455 353.902 58.8377 368.06 71.4701 368.194Z" fill="#5B48EE"/>
<path opacity="0.1" d="M65.6409 330.929C76.8161 350.355 71.4701 368.213 71.4701 368.213C71.4701 368.213 70.4405 345.881 59.8435 332.43C49.2465 318.979 30.1356 309.333 13.5273 309.256C25.8746 306.637 54.4737 311.503 65.6409 330.929Z" fill="black"/>
<path d="M308.357 142.97C308.42 142.651 308.535 142.352 308.698 142.09C308.989 141.464 309.135 140.755 309.123 140.037C309.11 139.32 308.939 138.619 308.627 138.008C308.433 137.714 308.268 137.393 308.136 137.052C307.914 136.306 308.191 135.484 308.136 134.691C307.93 131.144 302.592 132.693 300.928 133.4C300.445 133.601 298.061 134.528 296.968 134.997C297.018 133.035 296.821 131.075 296.382 129.184C295.59 125.504 292.509 124.137 292.367 126.374C292.21 128.914 291.863 131.433 291.329 133.897C291.035 135.719 290.559 137.491 289.912 139.174C288.799 141.973 287.308 144.529 285.5 146.736C282.182 150.56 266.825 163.782 266.825 163.782C262.532 160.455 245.045 148.237 239.105 143.582C233.616 139.28 223.217 142.444 223.217 142.444L236.238 165.388C236.238 165.388 257.962 179.393 264.061 183.38C269.05 186.649 271.561 184.575 277.295 178.399C281.857 173.189 287.86 165.675 294.347 158.744C296.937 155.981 298.774 154.556 300.683 154.451C301.372 154.451 302.069 154.365 302.758 154.27C304.286 154.069 306.108 153.6 306.852 151.765C307.106 151.134 307.233 150.436 307.439 149.786C307.763 148.83 308.278 147.874 308.595 146.918C308.829 146.249 308.908 145.515 308.825 144.796C308.69 144.213 308.294 143.62 308.357 142.97Z" fill="#FFA8A7"/>
<path d="M298.355 136.058C296.596 136.574 296.05 137.903 295.931 140.886C295.868 142.654 295.25 145.876 293.555 147.052C294.329 147.003 295.073 146.669 295.686 146.096C296.478 145.226 296.699 145.14 297.087 145.704C297.38 146.082 297.74 146.373 298.141 146.555C297.852 146.905 297.664 147.358 297.605 147.847C297.547 148.336 297.621 148.835 297.816 149.27C298.497 150.857 301.927 151.182 304.833 149.652C304.833 149.652 300.176 150.991 299.218 149.155C298.26 147.32 300.802 145.331 302.624 144.891C302.624 144.891 298.149 145.79 297.579 143.993C297.008 142.195 298.893 141.039 301.539 140.446C301.539 140.446 297.848 140.943 297.309 139.404C296.676 137.568 297.84 136.612 298.355 136.058Z" fill="#F28F8F"/>
<path d="M156.135 189.489C157.363 191.563 160.222 189.078 165.322 186.133C170.423 183.189 166.534 155.111 166.534 155.111C166.534 155.111 158.147 155.943 157.236 165.541C156.325 175.139 156.135 189.489 156.135 189.489Z" fill="#5B48EE"/>
<path opacity="0.25" d="M156.135 189.489C157.363 191.563 160.222 189.078 165.322 186.133C170.423 183.189 166.534 155.111 166.534 155.111C166.534 155.111 158.147 155.943 157.236 165.541C156.325 175.139 156.135 189.489 156.135 189.489Z" fill="black"/>
<path d="M196.622 135.953C201.564 135.389 212.945 141.268 214.98 145.761C217.111 150.465 227.858 215.903 224.041 222.471C219.241 230.711 194.167 248.283 182.73 248.923C173.29 249.44 163.675 239.841 162.043 236.935C159.374 232.155 157.996 163.925 160.618 157.922C164.871 148.18 190.326 136.708 196.622 135.953Z" fill="#5B48EE"/>
<path opacity="0.1" d="M196.622 135.953C201.564 135.389 212.945 141.268 214.98 145.761C217.111 150.465 227.858 215.903 224.041 222.471C219.241 230.711 194.167 248.283 182.73 248.923C173.29 249.44 163.675 239.841 162.043 236.935C159.374 232.155 157.996 163.925 160.618 157.922C164.871 148.18 190.326 136.708 196.622 135.953Z" fill="white"/>
<path opacity="0.2" d="M196.622 135.953C201.564 135.389 212.945 141.268 214.98 145.761C217.111 150.465 227.858 215.903 224.041 222.471C219.241 230.711 194.167 248.283 182.73 248.923C173.29 249.44 163.675 239.841 162.043 236.935C159.374 232.155 157.996 163.925 160.618 157.922C164.871 148.18 190.326 136.708 196.622 135.953Z" fill="black"/>
<path d="M159.263 192.73C159.263 189.862 159.216 187.041 159.216 184.307C159.216 183.217 159.216 182.137 159.216 181.076C159.216 178.954 159.255 176.908 159.287 174.967C159.287 174.011 159.327 173.055 159.35 172.099C159.35 170.722 159.438 169.422 159.485 168.199C159.533 166.975 159.596 165.828 159.667 164.786C159.667 164.432 159.715 164.088 159.739 163.763C159.952 160.809 160.245 158.734 160.61 157.883C160.736 157.616 160.871 157.338 161.03 157.052L161.188 156.774C161.299 156.583 161.41 156.392 161.536 156.201L161.75 155.866L162.138 155.331L162.392 154.987C162.59 154.729 162.796 154.47 163.017 154.203L163.461 153.696L163.762 153.361L164.277 152.807L164.538 152.539L165.14 151.937C169.726 153.753 174.066 155.484 174.193 155.57C174.478 155.761 179.206 158.629 179.515 166.984L181.645 200.76L181.859 203.963C182.081 208.446 187.902 249.468 177.273 248.063H176.846C169.615 245.702 163.326 239.239 162.043 236.945C161.744 236.25 161.541 235.5 161.441 234.727C161.37 234.287 161.291 233.771 161.22 233.264C161.18 232.996 161.148 232.719 161.109 232.432C160.998 231.553 160.895 230.578 160.792 229.497C160.792 229.144 160.729 228.78 160.697 228.398C160.206 222.738 159.818 214.89 159.556 206.467C159.509 204.775 159.461 203.073 159.422 201.353C159.422 200.205 159.366 199.058 159.35 197.901C159.35 197.328 159.35 196.754 159.35 196.181C159.295 195.024 159.279 193.877 159.263 192.73Z" fill="#5B48EE"/>
<path opacity="0.4" d="M159.921 161.765C159.997 160.456 160.232 159.168 160.618 157.941C164.871 148.218 190.326 136.679 196.622 135.953C201.564 135.389 212.945 141.268 214.981 145.761C215.619 147.695 216.12 149.691 216.478 151.727C206.974 158.973 182.342 175.416 179.642 174.508C176.323 173.39 160.238 162.3 159.929 161.784L159.921 161.765Z" fill="black"/>
<path d="M158.052 206.324C158.337 206.114 162.439 201.812 162.923 201.458C163.778 200.837 177.266 210.224 178.565 211.897C179.46 213.073 179.317 232.365 178.897 233.78C178.739 234.287 174.145 238.13 174.026 238.637C173.599 240.052 159.382 230.559 158.384 228.044C157.387 225.53 156.816 207.232 158.052 206.324Z" fill="#5B48EE"/>
<path opacity="0.18" d="M158.052 206.324C158.337 206.114 162.439 201.812 162.923 201.458C163.778 200.837 177.266 210.224 178.565 211.897C179.46 213.073 179.317 232.365 178.897 233.78C178.739 234.287 174.145 238.13 174.026 238.637C173.599 240.052 159.382 230.559 158.384 228.044C157.387 225.53 156.816 207.232 158.052 206.324Z" fill="black"/>
<path d="M173.694 216.763C174.597 217.93 174.446 237.231 174.026 238.637C173.607 240.042 159.382 230.558 158.384 228.044C157.386 225.53 156.8 207.232 158.052 206.324C158.907 205.702 172.395 215.1 173.694 216.763Z" fill="#5B48EE"/>
<path opacity="0.4" d="M162.922 201.458C162.439 201.802 158.345 206.114 158.06 206.314C158.907 205.703 172.395 215.091 173.686 216.764L178.557 211.907C177.266 210.215 163.778 200.837 162.922 201.458Z" fill="black"/>
<path opacity="0.3" d="M173.694 216.763C174.597 217.93 174.446 237.231 174.026 238.637C173.607 240.042 159.382 230.558 158.384 228.044C157.386 225.53 156.8 207.232 158.052 206.324C158.907 205.702 172.395 215.1 173.694 216.763Z" fill="black"/>
<path d="M178.557 211.907C177.559 211.228 174.803 213.322 173.646 214.708C172.49 216.094 171.492 222.222 168.364 223.446C165.235 224.669 160.444 219.966 159.287 216.754C158.131 213.542 156.626 206.811 158.028 204.23C159.43 201.649 162.051 200.091 164.364 201.362C166.677 202.634 178.113 208.924 178.557 211.907Z" fill="#5B48EE"/>
<path opacity="0.1" d="M178.557 211.907C177.559 211.228 174.803 213.322 173.646 214.708C172.49 216.094 171.492 222.222 168.364 223.446C165.235 224.669 160.444 219.966 159.287 216.754C158.131 213.542 156.626 206.811 158.028 204.23C159.43 201.649 162.051 200.091 164.364 201.362C166.677 202.634 178.113 208.924 178.557 211.907Z" fill="black"/>
<path d="M164.348 215.788C164.734 216.034 165.056 216.403 165.28 216.855C165.503 217.307 165.619 217.824 165.615 218.35C165.633 218.559 165.603 218.768 165.529 218.958C165.455 219.147 165.34 219.309 165.197 219.426C165.053 219.542 164.885 219.61 164.712 219.621C164.539 219.632 164.367 219.586 164.214 219.488C163.824 219.248 163.498 218.881 163.274 218.428C163.05 217.974 162.936 217.454 162.946 216.926C162.986 215.893 163.612 215.377 164.348 215.788Z" fill="#37474F"/>
<path d="M179.998 174.537C179.998 174.537 177.773 166.745 169.488 161.86C161.204 156.975 161.069 158.753 158.836 164.346C156.824 169.375 156.959 187.481 156.951 189.202C156.943 190.923 155.232 190.77 154.836 179.728C154.44 168.686 155.121 158.008 163.263 150.752C174.24 140.972 191.664 133.725 200.155 135.207C208.645 136.689 216.462 141.134 216.478 151.727C216.478 151.727 206.649 170.168 179.998 174.537Z" fill="#5B48EE"/>
<path opacity="0.1" d="M179.998 174.537C179.998 174.537 177.773 166.745 169.488 161.86C161.204 156.975 161.069 158.753 158.836 164.346C156.824 169.375 156.959 187.481 156.951 189.202C156.943 190.923 155.232 190.77 154.836 179.728C154.44 168.686 155.121 158.008 163.263 150.752C174.24 140.972 191.664 133.725 200.155 135.207C208.645 136.689 216.462 141.134 216.478 151.727C216.478 151.727 206.649 170.168 179.998 174.537Z" fill="black"/>
<path d="M202.388 148.553C202.388 148.553 205.627 150.532 205.92 152.922C206.213 155.312 207.504 161.038 206.768 162.682C206.031 164.327 203.529 164.719 203.148 163.638C202.768 162.558 202.063 155.656 201.43 153.906C200.796 152.157 198.262 150.082 198.262 150.082L202.388 148.553Z" fill="#5B48EE"/>
<path d="M183.578 155.446C183.578 155.446 186.746 157.128 187.07 159.528C187.395 161.927 188.654 167.405 187.95 169.088C187.245 170.77 184.71 171.134 184.322 170.044C183.934 168.954 183.237 162.071 182.604 160.321C181.97 158.572 179.436 156.899 179.436 156.899L183.578 155.446Z" fill="#5B48EE"/>
<g opacity="0.3">
<path d="M202.388 148.553C202.388 148.553 205.627 150.532 205.92 152.922C206.213 155.312 207.504 161.038 206.767 162.682C206.031 164.327 203.528 164.719 203.148 163.638C202.768 162.558 202.063 155.656 201.429 153.906C200.796 152.157 198.261 150.082 198.261 150.082L202.388 148.553Z" fill="white"/>
<path d="M183.578 155.446C183.578 155.446 186.746 157.128 187.07 159.528C187.395 161.927 188.654 167.405 187.95 169.088C187.245 170.77 184.71 171.134 184.322 170.044C183.934 168.954 183.237 162.071 182.604 160.321C181.97 158.572 179.436 156.899 179.436 156.899L183.578 155.446Z" fill="white"/>
</g>
<path d="M205.303 115.169C207.1 114.433 209.263 115.169 211.472 117.445C215.812 122.062 218.402 131.354 217.262 138.209C216.66 141.794 215.147 143.945 213.215 144.605L163.437 162.769L155.129 133.486L169.14 130.895L174.288 128.869L191.585 122.253L193.961 121.221L205.303 115.169Z" fill="#455A64"/>
<path d="M161.473 135.666C165.813 140.283 168.403 149.576 167.263 156.421C166.122 163.266 161.679 165.025 157.339 160.455C152.999 155.885 150.401 146.545 151.541 139.7C152.682 132.855 157.133 131.048 161.473 135.666Z" fill="#37474F"/>
<path d="M193.018 121.622C193.018 121.622 203.481 128.984 202.388 148.553L198.285 150.092C198.285 150.092 199.497 131.249 187.989 123.659L193.018 121.622Z" fill="#5B48EE"/>
<path d="M174.288 128.859C174.288 128.859 184.766 135.809 183.681 155.379L179.562 156.88C179.562 156.88 180.624 138.477 169.14 130.886L174.288 128.859Z" fill="#5B48EE"/>
<g opacity="0.15">
<path d="M201.168 135.226C202.282 139.532 202.699 144.057 202.396 148.553L198.285 150.092C198.444 145.705 197.956 141.319 196.844 137.138L201.168 135.226Z" fill="black"/>
<path d="M182.722 143.199C183.621 147.162 183.945 151.283 183.681 155.379L179.562 156.88C179.679 152.901 179.245 148.927 178.279 145.121L182.722 143.199Z" fill="black"/>
</g>
<path d="M154.916 142.444C156.579 141.153 158.361 142.893 159.177 144.614C159.793 146.109 160.066 147.776 159.969 149.442C160.024 150.142 159.908 150.847 159.636 151.469C159.335 151.994 158.844 152.233 158.448 151.698C158.297 151.488 158.448 150.838 158.725 150.914C159.002 150.991 158.907 151.077 158.971 150.962C159.034 150.847 159.018 150.474 159.026 150.312C159.011 149.668 158.945 149.028 158.828 148.4C158.729 147.4 158.485 146.43 158.107 145.532C157.754 144.737 157.246 144.058 156.626 143.553C156.088 143.161 155.28 142.998 155.09 143.897C154.781 145.331 155.478 147.272 155.882 148.61C156.383 150.611 157.189 152.482 158.258 154.126C158.868 155.015 160.57 156.994 161.64 156.182C162.709 155.369 162.622 152.941 162.63 151.784C162.637 149.888 162.369 148.005 161.838 146.22C161.326 144.137 160.49 142.19 159.375 140.484C158.911 139.852 158.318 139.378 157.656 139.108C157.125 138.888 155.882 138.41 155.676 139.327C155.62 139.547 155.256 139.977 155.082 139.652C154.464 138.524 155.375 137.559 156.302 137.282C157.021 137.095 157.767 137.109 158.481 137.321C159.196 137.533 159.862 137.938 160.428 138.505C162.091 140.083 163.026 142.96 163.754 145.283C164.555 147.774 164.886 150.449 164.721 153.113C164.57 155.187 164.016 157.797 162.067 158.323C159.984 158.887 157.806 157.042 156.634 155.101C155.35 152.819 154.485 150.231 154.1 147.511C153.759 145.866 153.545 143.448 154.916 142.444Z" fill="#263238"/>
<path d="M239.596 219.182L206.981 220.607L206.086 285.051C206.086 285.051 197.374 292.699 191.83 302.335C187.775 309.304 174.557 338.759 172.213 343.204L167.817 351.521C167.389 353.003 167.635 356.196 170.549 357.984C173.464 359.771 176.798 358.672 177.424 357.362C177.424 357.362 178.018 355.699 183.039 349.934C188.06 344.17 224.223 302.708 226.164 299.869C229.054 295.624 230.765 291.762 234.242 276.838C238.519 258.33 239.976 227.26 239.596 219.182Z" fill="#FFA8A7"/>
<path d="M240.079 217.605C240.079 217.605 240.079 230.444 238.606 250.826C237.133 271.208 235.763 285.949 229.102 297.058C222.441 308.167 212.304 319.916 209.088 323.424C204.911 321.833 201.064 319.178 197.81 315.639C194.555 312.1 191.968 307.759 190.223 302.909L199.83 286.427L194.753 224.87L240.079 217.605Z" fill="#455A64"/>
<path d="M199.038 287.976C199.038 287.976 202.768 302.411 203.306 304.821C203.845 307.23 208.058 323.453 208.058 323.453C208.058 323.453 208.47 301.714 207.67 297.765C206.87 293.817 199.038 287.976 199.038 287.976Z" fill="#37474F"/>
<path d="M239.097 224.411C239.097 224.411 239.564 234.621 234.923 242.279C230.282 249.937 226.805 252.135 226.805 252.135L230.805 286.073L222.948 251.017L239.097 224.411Z" fill="#37474F"/>
<path d="M162.669 357.305C162.027 357.066 160.697 359.638 160.554 360.546C160.412 361.454 160.871 363.567 161.6 365.603C162.518 368.047 163.099 370.657 163.318 373.328C163.542 377.052 164.331 380.694 165.647 384.073C167.35 388.327 172.236 395.736 180.964 393.891C186.255 392.763 186.825 390.067 186.619 388.566L162.669 357.305Z" fill="#455A64"/>
<path d="M179.269 356.062C178.557 359.255 177.519 368.06 181.574 374.762C184.306 379.274 185.922 383.853 185.384 388.146C184.821 392.601 171.254 388.557 169.243 385.603C167.211 382.583 165.871 378.974 165.354 375.134C164.784 371.769 165.005 369.446 164.34 366.97C163.627 364.293 161.964 361.091 162.305 358.557C162.471 357.162 163.992 354.829 165.409 352.946C166.708 351.215 167.785 349.456 168.657 349.867L168.118 350.9C168.889 352.034 169.853 352.953 170.945 353.596C171.397 353.911 171.452 356.196 172.007 356.339C172.561 356.483 172.411 354.628 173.416 354.188C176.695 352.764 179.269 356.062 179.269 356.062Z" fill="#5B48EE"/>
<path opacity="0.4" d="M178.992 356.072C178.279 359.255 177.242 368.069 181.297 374.771C184.029 379.283 185.645 383.863 185.106 388.155C184.544 392.61 170.977 388.566 168.965 385.612C166.928 382.579 165.587 378.952 165.077 375.096C164.506 371.731 164.728 369.36 164.063 366.922C163.35 364.245 161.687 361.052 162.027 358.509C162.194 357.123 163.714 354.791 165.132 352.907C166.431 351.177 167.508 349.418 168.379 349.829L167.841 350.852C168.609 351.991 169.574 352.915 170.668 353.557C171.12 353.863 171.175 356.158 171.729 356.292C172.284 356.425 172.133 354.59 173.139 354.141C176.378 352.764 178.992 356.072 178.992 356.072Z" fill="black"/>
<path d="M169.243 385.593C169.243 385.593 171.682 379.044 177.495 377.773C183.309 376.501 184.829 379.236 185.471 380.192C186.112 381.148 189.019 386.731 185.392 390.306C185.392 390.306 176.181 395.354 169.243 385.593Z" fill="#FAFAFA"/>
<path d="M237.854 385.641C237.854 385.641 233.894 330.728 232.072 307.058C228.445 279.687 221.198 251.896 221.198 251.896C221.198 251.896 226.1 248.598 230.647 240.721C237.252 229.249 237.101 219.622 237.101 219.622L233.284 219.306L191.973 221.343C192.1 229.583 191.846 241.151 192.765 251.83C194.682 273.722 212.296 312.469 212.296 312.469C212.13 315.49 210.324 328.3 212.882 339.495C216.913 357.152 225.799 379.312 227.463 388.958L229.118 397.036L239.414 393.977L237.83 385.641H237.854Z" fill="#FFA8A7"/>
<path d="M191.007 218.981C190.334 228.216 189.803 235.836 189.906 242.614C190.009 249.392 191.609 258.665 194.199 268.043C196.788 277.422 204.304 300.069 205.287 303.368C206.269 306.666 208.653 328.396 208.653 328.396C208.653 328.396 224.809 332.688 235.628 324.084C235.628 324.084 234.044 302.306 233.07 296.781C232.096 291.255 222.948 251.046 222.948 251.046C222.948 251.046 239.311 237.901 239.58 219.211L191.007 218.981Z" fill="#455A64"/>
<path d="M227.605 401.587C226.972 401.931 227.399 405.057 227.803 405.889C228.679 407.376 229.861 408.562 231.232 409.331C233.185 410.487 234.888 412.175 236.206 414.263C238.46 417.442 241.26 419.99 244.411 421.73C248.173 423.642 252.957 423.307 257.155 420.841C261.352 418.374 261.653 416.873 261.376 414.856L227.605 401.587Z" fill="#455A64"/>
<path d="M239.905 386.778C241.172 389.866 244.507 398.098 249.726 401.51C253.876 404.235 259.372 407.16 261.4 410.965C263.507 414.923 256.149 418.661 252.846 418.929C250.272 419.13 246.883 419.541 244.134 417.915C242.794 417.118 241.526 416.157 240.349 415.047C237.973 412.887 236.159 410.038 234.424 408.298C232.69 406.558 229.213 405.086 228.009 402.839C227.344 401.606 227.217 398.518 227.217 395.86C227.217 393.413 226.893 391.186 227.819 390.775L228.104 392.151C229.387 392.163 230.668 392.028 231.93 391.75C232.46 391.616 233.815 393.365 234.306 393.012C234.797 392.658 233.648 391.339 234.179 390.144C236.016 386.301 239.905 386.778 239.905 386.778Z" fill="#5B48EE"/>
<path opacity="0.4" d="M239.905 386.778C241.172 389.866 244.507 398.098 249.726 401.51C253.876 404.235 259.372 407.16 261.4 410.965C263.507 414.923 256.149 418.661 252.846 418.929C250.272 419.13 246.883 419.541 244.134 417.915C242.794 417.118 241.526 416.157 240.349 415.047C237.973 412.887 236.159 410.038 234.424 408.298C232.69 406.558 229.213 405.086 228.009 402.839C227.344 401.606 227.217 398.518 227.217 395.86C227.217 393.413 226.893 391.186 227.819 390.775L228.104 392.151C229.387 392.163 230.668 392.028 231.93 391.75C232.46 391.616 233.815 393.365 234.306 393.012C234.797 392.658 233.648 391.339 234.179 390.144C236.016 386.301 239.905 386.778 239.905 386.778Z" fill="black"/>
<path d="M244.158 417.916C244.158 417.916 244.53 409.962 249.828 406.138C255.127 402.314 257.416 404.943 258.342 405.583C259.269 406.224 263.823 409.742 261.376 414.856C261.36 414.904 254.62 423.642 244.158 417.916Z" fill="#FAFAFA"/>
<path d="M239.865 162.3C238.867 153.562 234.377 143.658 223.162 143.123L208.684 143.955C205.12 145.073 195.418 147.941 191.696 149.518L190.999 184.967C190.999 184.967 190.112 212.289 190.389 226.926C200.756 234.861 226.029 236.438 240.19 223.465C240.61 211.381 240.855 170.952 239.865 162.3Z" fill="#5B48EE"/>
<path opacity="0.4" d="M239.865 162.3C238.867 153.562 234.377 143.658 223.162 143.123L208.684 143.955C205.12 145.073 195.418 147.941 191.696 149.518L190.999 184.967C190.999 184.967 190.112 212.289 190.389 226.926C200.756 234.861 226.029 236.438 240.19 223.465C240.61 211.381 240.855 170.952 239.865 162.3Z" fill="black"/>
<path d="M239.002 105.456C238.899 100.939 237.359 96.6425 234.702 93.4584C232.045 90.2744 228.475 88.4467 224.732 88.3545C220.989 88.2623 217.36 89.9126 214.598 92.9632C211.835 96.0138 210.152 100.231 209.896 104.739L203.196 99.204C202.412 99.1221 201.624 99.2579 200.891 99.6009C200.158 99.944 199.499 100.485 198.966 101.183C197.184 103.525 198.404 110.59 200.883 117.435C200.883 117.435 203.457 130.016 204.407 132.062C205.038 133.325 206.048 134.246 207.227 134.633L206.886 126.985L233.323 124.117L230.67 121.919C233.236 120.453 235.392 118.114 236.872 115.189C238.353 112.264 239.093 108.882 239.002 105.456Z" fill="#263238"/>
<path d="M206.364 117.837C205.572 118.477 204.281 116.565 203.196 115.294C202.11 114.022 198.681 112.359 197.097 116.737C195.513 121.116 198.871 126.871 201.572 127.779C206.229 129.347 206.823 125.752 206.823 125.752L207.718 145.828C211.836 151.029 225.387 149.212 222.702 144.71L222.552 138.62C222.552 138.62 226.75 139.222 228.777 138.763C232.151 137.999 234.194 134.681 235.113 130.217C236.57 123.037 237.046 117.263 235.272 103.324C233.323 88.0285 218.537 88.4778 210.72 94.8448C202.902 101.212 206.364 117.837 206.364 117.837Z" fill="#FFA8A7"/>
<path d="M238.257 88.908C237.135 88.282 235.87 88.1338 234.67 88.4874C234.733 87.392 234.51 86.3002 234.031 85.3668C233.552 84.4333 232.841 83.7056 232.001 83.2867C231.113 82.7836 230.123 82.606 229.153 82.776C228.183 82.9459 227.276 83.4559 226.544 84.2427C226.876 82.6845 225.68 81.1262 224.366 80.8011C223.028 80.631 221.678 80.9298 220.477 81.6615C218.632 82.5602 216.818 83.5735 214.933 84.3575C211.63 85.7628 208.098 86.6041 205.12 88.8507C204.398 89.3479 203.767 90.0181 203.267 90.82C202.642 92.0087 202.363 93.4148 202.475 94.8161C202.503 95.2772 202.564 95.7345 202.657 96.1832C202.428 95.89 202.16 95.6446 201.865 95.4566C201.523 95.2556 201.151 95.1399 200.771 95.1165C200.391 95.0931 200.011 95.1625 199.654 95.3205C199.297 95.4785 198.97 95.7218 198.692 96.036C198.415 96.3501 198.193 96.7286 198.04 97.1487L203.1 100.179C202.997 101.403 202.887 102.617 202.799 103.841C202.578 107.082 202.118 110.848 202.799 114.041C202.839 114.426 202.956 114.794 203.14 115.112C203.408 115.431 203.645 115.787 203.845 116.173L204.74 118.085C205.144 118.955 205.777 119.997 206.72 119.835C207.243 119.758 207.512 118.879 207.623 118.362C208.882 112.626 208.842 106.584 210.426 100.992C210.461 100.826 210.532 100.674 210.632 100.552C210.827 100.419 211.058 100.385 211.274 100.457C213.65 100.925 216.105 101.413 218.529 101.747C224.033 102.531 229.933 102.588 234.733 99.2328C236.602 97.9231 239.738 95.2272 240.031 92.407C240.049 91.6787 239.891 90.9599 239.576 90.3385C239.261 89.717 238.803 89.2199 238.257 88.908Z" fill="#263238"/>
<path d="M222.552 138.62C222.552 138.62 214.933 137.071 212.256 135.484C210.673 134.568 209.356 133.095 208.479 131.259C208.93 133.11 209.684 134.833 210.696 136.326C212.708 139.241 222.624 141.048 222.624 141.048L222.552 138.62Z" fill="#F28F8F"/>
<path d="M220.097 115.858C220.095 116.178 220.015 116.491 219.868 116.757C219.72 117.023 219.511 117.231 219.266 117.355C219.021 117.479 218.751 117.513 218.49 117.453C218.23 117.394 217.989 117.243 217.799 117.019C217.608 116.796 217.476 116.51 217.42 116.197C217.363 115.884 217.383 115.558 217.479 115.259C217.574 114.96 217.741 114.701 217.957 114.516C218.173 114.33 218.43 114.224 218.695 114.213C219.061 114.208 219.414 114.378 219.677 114.686C219.94 114.994 220.091 115.416 220.097 115.858Z" fill="#263238"/>
<path d="M218.141 108.602L214.838 110.628C214.623 110.082 214.591 109.457 214.749 108.883C214.907 108.31 215.242 107.832 215.686 107.55C215.903 107.418 216.14 107.341 216.383 107.323C216.626 107.305 216.869 107.346 217.099 107.444C217.328 107.543 217.539 107.696 217.718 107.895C217.897 108.093 218.041 108.334 218.141 108.602Z" fill="#263238"/>
<path d="M221.634 128.152L225.142 129.586C225.074 129.869 224.96 130.133 224.806 130.361C224.652 130.59 224.461 130.779 224.245 130.916C224.029 131.054 223.793 131.137 223.549 131.161C223.306 131.186 223.061 131.151 222.829 131.058C222.357 130.856 221.967 130.439 221.744 129.897C221.521 129.355 221.481 128.729 221.634 128.152Z" fill="#F28F8F"/>
<path d="M234.598 110.294L231.636 107.77C231.768 107.535 231.937 107.335 232.134 107.18C232.331 107.026 232.552 106.922 232.783 106.872C233.015 106.823 233.252 106.831 233.481 106.895C233.709 106.959 233.925 107.078 234.115 107.244C234.509 107.577 234.779 108.081 234.869 108.651C234.96 109.22 234.862 109.81 234.598 110.294Z" fill="#263238"/>
<path d="M212.256 110.896L200.376 113.888C201.042 113.896 201.698 114.089 202.293 114.452C202.888 114.815 203.405 115.339 203.805 115.982L212.208 114.07L212.256 110.896Z" fill="#263238"/>
<path d="M233.838 115.561C233.835 115.881 233.754 116.193 233.605 116.458C233.456 116.723 233.246 116.93 233.001 117.052C232.756 117.174 232.487 117.207 232.227 117.146C231.966 117.086 231.727 116.934 231.537 116.71C231.347 116.487 231.216 116.201 231.16 115.888C231.104 115.575 231.125 115.249 231.221 114.951C231.316 114.653 231.483 114.395 231.699 114.209C231.915 114.024 232.171 113.919 232.436 113.907C232.803 113.905 233.156 114.077 233.419 114.387C233.681 114.696 233.832 115.118 233.838 115.561Z" fill="#263238"/>
<path d="M239.636 110.275L238.844 110.169C236.333 109.902 233.054 109.873 231.066 110.657C228.571 111.613 227.676 112.693 226.314 112.732C224.952 112.77 223.938 111.776 221.301 110.82C219.194 110.141 215.685 110.313 212.993 110.705L212.161 110.839C211.867 110.955 211.614 111.187 211.442 111.497C211.27 111.807 211.188 112.178 211.211 112.55C211.311 113.268 211.587 113.934 212.003 114.462C212.128 114.701 212.214 114.967 212.256 115.246C212.525 116.613 212.66 119.223 213.191 120.666C213.44 121.373 213.791 122.02 214.228 122.578C214.394 122.784 214.571 122.976 214.759 123.152L215.068 123.4C215.36 123.616 215.671 123.792 215.994 123.926L216.153 123.984L216.398 124.07L216.652 124.137C216.912 124.209 217.177 124.257 217.444 124.28C217.555 124.28 217.673 124.28 217.792 124.28H218.236C221.649 124.223 223.107 122.186 223.986 120.102C224.865 118.018 224.691 115.112 226.259 115.083H226.409C226.456 115.074 226.505 115.074 226.552 115.083C227.708 115.389 227.526 118.066 228.223 119.978C228.495 120.732 228.861 121.432 229.308 122.053C229.398 122.167 229.485 122.272 229.569 122.368L229.712 122.521L229.854 122.664L229.989 122.789L230.139 122.913L230.25 122.999L230.33 123.056C230.748 123.353 231.202 123.569 231.676 123.697H231.803C232.349 123.837 232.908 123.895 233.466 123.869C234.512 123.918 235.545 123.57 236.418 122.874C237.292 122.178 237.963 121.168 238.337 119.988C238.883 118.515 239.129 115.896 239.398 114.519C239.451 114.252 239.554 114.004 239.699 113.793C240.106 113.222 240.368 112.522 240.451 111.776C240.515 111.116 240.063 110.332 239.636 110.275ZM223.146 118.334C222.945 119.4 222.522 120.386 221.919 121.202C221.431 121.79 220.846 122.248 220.202 122.544C219.558 122.841 218.869 122.97 218.18 122.922C217.495 122.987 216.807 122.835 216.185 122.481C215.563 122.128 215.028 121.584 214.632 120.905L214.521 120.705L214.426 120.504L214.339 120.313L214.268 120.141L214.212 119.997C214.209 119.959 214.209 119.921 214.212 119.882L214.141 119.672C214.077 119.475 214.022 119.274 213.975 119.07C213.975 118.946 213.919 118.821 213.896 118.707C213.872 118.592 213.816 118.295 213.785 118.123C213.782 118.088 213.782 118.053 213.785 118.018V117.913C213.547 116.469 213.278 113.649 213.872 112.999C214.466 112.349 216.026 111.642 218.568 111.89H218.838C219.226 111.939 219.612 112.013 219.994 112.11L220.437 112.234C220.819 112.351 221.195 112.494 221.562 112.665L221.911 112.837C222.035 112.899 222.157 112.969 222.275 113.047C222.301 113.042 222.328 113.042 222.354 113.047L222.489 113.133C222.78 113.311 223.035 113.566 223.233 113.879C223.637 114.854 223.455 116.728 223.146 118.334ZM237.972 117.378C237.759 118.506 237.299 120.944 235.501 122.043C234.91 122.396 234.26 122.585 233.601 122.597C232.876 122.704 232.141 122.566 231.477 122.2C230.813 121.834 230.246 121.254 229.839 120.523L229.767 120.389L229.696 120.236L229.656 120.16L229.561 119.93L229.466 119.663L229.419 119.538V119.462C229.422 119.427 229.422 119.392 229.419 119.357V119.271C229.322 118.921 229.247 118.563 229.197 118.2C228.959 116.603 228.849 114.739 229.34 113.84C229.831 112.942 231.716 111.928 233.529 111.623C233.915 111.553 234.304 111.508 234.693 111.489H235.533H235.723H236.04C236.237 111.515 236.432 111.553 236.626 111.603H236.761H236.8H236.895L237.03 111.651L237.196 111.718C237.291 111.755 237.384 111.8 237.473 111.852H237.521C237.748 111.967 237.957 112.129 238.139 112.33C238.59 113.104 238.242 115.953 237.972 117.397V117.378Z" fill="#263238"/>
<path d="M223.146 118.334C222.944 119.4 222.522 120.387 221.918 121.202C221.431 121.79 220.846 122.248 220.202 122.544C219.557 122.841 218.869 122.97 218.18 122.923C217.495 122.987 216.807 122.835 216.185 122.481C215.563 122.128 215.027 121.585 214.632 120.905L214.521 120.705L214.426 120.504L214.339 120.313L214.268 120.141L214.212 119.997C214.209 119.959 214.209 119.921 214.212 119.882L214.141 119.672C214.077 119.475 214.022 119.274 213.975 119.07C213.975 118.946 213.919 118.821 213.895 118.707C213.872 118.592 213.816 118.296 213.785 118.123C213.782 118.088 213.782 118.053 213.785 118.018V117.913C213.547 116.47 213.278 113.649 213.872 112.999C214.466 112.349 216.026 111.642 218.568 111.89H218.838C219.226 111.94 219.612 112.013 219.994 112.11L220.437 112.234C220.819 112.351 221.195 112.494 221.562 112.665L221.911 112.837C222.035 112.899 222.156 112.969 222.275 113.047C222.301 113.042 222.328 113.042 222.354 113.047L222.489 113.133C222.78 113.311 223.034 113.566 223.233 113.879C223.637 114.854 223.455 116.728 223.146 118.334Z" fill="#5B48EE"/>
<path opacity="0.4" d="M223.146 118.334C222.944 119.4 222.522 120.387 221.918 121.202C221.431 121.79 220.846 122.248 220.202 122.544C219.557 122.841 218.869 122.97 218.18 122.923C217.495 122.987 216.807 122.835 216.185 122.481C215.563 122.128 215.027 121.585 214.632 120.905L214.521 120.705L214.426 120.504L214.339 120.313L214.268 120.141L214.212 119.997C214.209 119.959 214.209 119.921 214.212 119.882L214.141 119.672C214.077 119.475 214.022 119.274 213.975 119.07C213.975 118.946 213.919 118.821 213.895 118.707C213.872 118.592 213.816 118.296 213.785 118.123C213.782 118.088 213.782 118.053 213.785 118.018V117.913C213.547 116.47 213.278 113.649 213.872 112.999C214.466 112.349 216.026 111.642 218.568 111.89H218.838C219.226 111.94 219.612 112.013 219.994 112.11L220.437 112.234C220.819 112.351 221.195 112.494 221.562 112.665L221.911 112.837C222.035 112.899 222.156 112.969 222.275 113.047C222.301 113.042 222.328 113.042 222.354 113.047L222.489 113.133C222.78 113.311 223.034 113.566 223.233 113.879C223.637 114.854 223.455 116.728 223.146 118.334Z" fill="black"/>
<path d="M237.973 117.397C237.759 118.525 237.299 120.963 235.502 122.062C234.91 122.415 234.261 122.604 233.601 122.617C232.876 122.723 232.141 122.585 231.478 122.219C230.814 121.853 230.247 121.273 229.839 120.542L229.767 120.408L229.696 120.255L229.657 120.179L229.562 119.949L229.466 119.682L229.419 119.557V119.481C229.422 119.446 229.422 119.411 229.419 119.376V119.29C229.322 118.94 229.248 118.582 229.197 118.219C228.96 116.622 228.849 114.758 229.34 113.86C229.831 112.961 231.716 111.948 233.529 111.642C233.915 111.572 234.304 111.527 234.694 111.508H235.533H235.723H236.04C236.237 111.534 236.433 111.572 236.626 111.623H236.761H236.8H236.895L237.03 111.67L237.196 111.737C237.291 111.774 237.384 111.819 237.474 111.871H237.521C237.748 111.986 237.957 112.148 238.139 112.349C238.59 113.104 238.242 115.953 237.973 117.397Z" fill="#5B48EE"/>
<path opacity="0.4" d="M237.973 117.397C237.759 118.525 237.299 120.963 235.502 122.062C234.91 122.415 234.261 122.604 233.601 122.617C232.876 122.723 232.141 122.585 231.478 122.219C230.814 121.853 230.247 121.273 229.839 120.542L229.767 120.408L229.696 120.255L229.657 120.179L229.562 119.949L229.466 119.682L229.419 119.557V119.481C229.422 119.446 229.422 119.411 229.419 119.376V119.29C229.322 118.94 229.248 118.582 229.197 118.219C228.96 116.622 228.849 114.758 229.34 113.86C229.831 112.961 231.716 111.948 233.529 111.642C233.915 111.572 234.304 111.527 234.694 111.508H235.533H235.723H236.04C236.237 111.534 236.433 111.572 236.626 111.623H236.761H236.8H236.895L237.03 111.67L237.196 111.737C237.291 111.774 237.384 111.819 237.474 111.871H237.521C237.748 111.986 237.957 112.148 238.139 112.349C238.59 113.104 238.242 115.953 237.973 117.397Z" fill="black"/>
<path d="M225.673 115.752L226.116 126.852L231.518 125.217L225.673 115.752Z" fill="#F28F8F"/>
<path d="M191.704 257.518C191.704 257.518 203.766 258.177 210.529 256.667C210.529 256.667 217.578 286.838 217.95 290.337C218.323 293.836 206.189 294.085 203.734 293.683C201.279 293.282 199.386 292.871 197.509 285.175C195.632 277.479 192.519 265.118 191.704 257.518Z" fill="#37474F"/>
<path d="M195.45 148.18C188.496 149.633 185.993 151.564 183.879 160.398C181.614 169.881 175.278 196.496 173.812 205.989C172.917 211.83 171.524 215.549 175.626 219.373C180.877 224.297 196.258 237.92 205.54 243.789C214.822 249.659 229.474 249.765 229.474 249.765L219.305 242.336L218.869 237.843L190.294 209.106L201.208 170.321C201.208 170.321 205.247 151.927 195.45 148.18Z" fill="#FFA8A7"/>
<path d="M210.023 232.423V233.57C210.01 234.143 210.123 234.709 210.35 235.213C210.576 235.716 210.909 236.139 211.314 236.438L236.658 254.975C237.062 255.27 237.524 255.432 237.997 255.444C238.47 255.456 238.936 255.317 239.351 255.042L287.085 223.494C287.501 223.221 287.851 222.82 288.097 222.331C288.343 221.843 288.478 221.284 288.486 220.712V219.918L238.02 253.321L210.023 232.423Z" fill="#5B48EE"/>
<g opacity="0.5">
<path d="M210.023 232.423V233.57C210.01 234.143 210.123 234.709 210.35 235.213C210.576 235.716 210.909 236.139 211.314 236.438L236.658 254.975C237.062 255.27 237.524 255.432 237.997 255.444C238.47 255.456 238.936 255.317 239.351 255.042L287.085 223.494C287.501 223.221 287.851 222.82 288.097 222.331C288.343 221.843 288.478 221.284 288.486 220.712V219.918L238.02 253.321L210.023 232.423Z" fill="white"/>
</g>
<g opacity="0.1">
<path d="M210.023 232.423V233.57C210.01 234.143 210.123 234.709 210.35 235.213C210.576 235.716 210.909 236.139 211.314 236.438L236.658 254.975C237.062 255.27 237.524 255.432 237.997 255.444C238.47 255.456 238.936 255.317 239.351 255.042L287.085 223.494C287.501 223.221 287.851 222.82 288.097 222.331C288.343 221.843 288.478 221.284 288.486 220.712V219.918L238.02 253.321L210.023 232.423Z" fill="black"/>
</g>
<path d="M288.51 219.88L260.917 199.661C260.676 199.493 260.403 199.405 260.125 199.405C259.847 199.405 259.574 199.493 259.333 199.661L210.229 232.165C210.175 232.202 210.13 232.257 210.098 232.322C210.067 232.388 210.05 232.462 210.05 232.538C210.05 232.613 210.067 232.687 210.098 232.753C210.13 232.818 210.175 232.873 210.229 232.91L238.084 253.331L288.51 219.88Z" fill="#5B48EE"/>
<g opacity="0.85">
<path d="M288.51 219.88L260.917 199.661C260.676 199.493 260.403 199.405 260.125 199.405C259.847 199.405 259.574 199.493 259.333 199.661L210.229 232.165C210.175 232.202 210.13 232.257 210.098 232.322C210.067 232.388 210.05 232.462 210.05 232.538C210.05 232.613 210.067 232.687 210.098 232.753C210.13 232.818 210.175 232.873 210.229 232.91L238.084 253.331L288.51 219.88Z" fill="white"/>
</g>
<path d="M238.281 250.099L223.392 239.201L267.593 209.957L282.562 220.798L238.281 250.099Z" fill="#5B48EE"/>
<g opacity="0.6">
<path d="M238.281 250.099L223.392 239.201L267.593 209.957L282.562 220.798L238.281 250.099Z" fill="white"/>
</g>
<path d="M230.963 221.008L231.241 221.209L238.535 226.553L251.841 217.739L252.118 217.567L244.546 212.022L230.963 221.008Z" fill="#5B48EE"/>
<path d="M231.24 221.209L238.535 226.553L251.84 217.739L244.538 212.395L231.24 221.209Z" fill="#5B48EE"/>
<g opacity="0.6">
<path d="M231.24 221.209L238.535 226.553L251.84 217.739L244.538 212.395L231.24 221.209Z" fill="white"/>
</g>
<path d="M238.043 253.264L238.004 255.434C238.476 255.443 238.943 255.305 239.358 255.032L287.092 223.484C287.509 223.212 287.858 222.811 288.105 222.322C288.351 221.833 288.485 221.274 288.494 220.702V219.909L238.043 253.264Z" fill="#5B48EE"/>
<g opacity="0.03">
<path d="M238.043 253.264L238.004 255.434C238.476 255.443 238.943 255.305 239.358 255.032L287.092 223.484C287.509 223.212 287.858 222.811 288.105 222.322C288.351 221.833 288.485 221.274 288.494 220.702V219.909L238.043 253.264Z" fill="white"/>
</g>
<g opacity="0.2">
<path d="M238.043 253.264L238.004 255.434C238.476 255.443 238.943 255.305 239.358 255.032L287.092 223.484C287.509 223.212 287.858 222.811 288.105 222.322C288.351 221.833 288.485 221.274 288.494 220.702V219.909L238.043 253.264Z" fill="black"/>
</g>
<path d="M238.796 253.77C239.238 253.989 239.714 254.087 240.191 254.055C240.668 254.024 241.133 253.865 241.552 253.589L289.072 222.127C289.482 221.854 289.836 221.475 290.11 221.017C290.384 220.559 290.57 220.034 290.656 219.478L296.493 182.596C296.523 182.387 296.542 182.177 296.549 181.965C296.559 181.456 296.486 180.949 296.332 180.475C296.178 180 295.948 179.567 295.654 179.202L246.264 211.897C245.964 212.094 245.703 212.367 245.498 212.697C245.293 213.027 245.149 213.406 245.076 213.809L238.796 253.77Z" fill="#5B48EE"/>
<g opacity="0.4">
<path d="M238.796 253.77C239.238 253.989 239.714 254.087 240.191 254.055C240.668 254.024 241.133 253.865 241.552 253.589L289.072 222.127C289.482 221.854 289.836 221.475 290.11 221.017C290.384 220.559 290.57 220.034 290.656 219.478L296.493 182.596C296.523 182.387 296.542 182.177 296.549 181.965C296.559 181.456 296.486 180.949 296.332 180.475C296.178 180 295.948 179.567 295.654 179.202L246.264 211.897C245.964 212.094 245.703 212.367 245.498 212.697C245.293 213.027 245.149 213.406 245.076 213.809L238.796 253.77Z" fill="white"/>
</g>
<path d="M238.044 253.273L238.361 253.502C238.502 253.601 238.647 253.69 238.796 253.77L245.077 213.886C245.149 213.483 245.293 213.103 245.498 212.773C245.703 212.443 245.965 212.171 246.265 211.974L295.654 179.279C295.463 179.042 295.248 178.836 295.013 178.667L245.52 211.372C245.217 211.574 244.954 211.855 244.751 212.194C244.547 212.532 244.407 212.92 244.34 213.331L238.044 253.273Z" fill="#5B48EE"/>
<g opacity="0.6">
<path d="M238.044 253.273L238.361 253.502C238.502 253.601 238.647 253.69 238.796 253.77L245.077 213.886C245.149 213.483 245.293 213.103 245.498 212.773C245.703 212.443 245.965 212.171 246.265 211.974L295.654 179.279C295.463 179.042 295.248 178.836 295.013 178.667L245.52 211.372C245.217 211.574 244.954 211.855 244.751 212.194C244.547 212.532 244.407 212.92 244.34 213.331L238.044 253.273Z" fill="white"/>
</g>
<path d="M245.52 212.681L244.776 212.127C244.547 212.48 244.389 212.892 244.316 213.332L238.02 253.273L238.337 253.503C238.478 253.601 238.623 253.691 238.772 253.77L245.053 213.886C245.126 213.445 245.287 213.032 245.52 212.681Z" fill="#5B48EE"/>
<path opacity="0.5" d="M245.52 212.681L244.776 212.127C244.547 212.48 244.389 212.892 244.316 213.332L238.02 253.273L238.337 253.503C238.478 253.601 238.623 253.691 238.772 253.77L245.053 213.886C245.126 213.445 245.287 213.032 245.52 212.681Z" fill="white"/>
<path opacity="0.1" d="M245.52 212.681L244.776 212.127C244.547 212.48 244.389 212.892 244.316 213.332L238.02 253.273L238.337 253.503C238.478 253.601 238.623 253.691 238.772 253.77L245.053 213.886C245.126 213.445 245.287 213.032 245.52 212.681Z" fill="black"/>
<path d="M265.851 220.329C266.239 217.863 268.417 214.593 270.714 213.112C273.01 211.63 274.555 212.356 274.167 214.823C273.779 217.289 271.601 220.559 269.304 222.041C267.007 223.522 265.463 222.796 265.851 220.329Z" fill="#455A64"/>
<path d="M209.809 228.666C212.462 230.922 215.353 229.622 218.861 230.109C222.37 230.597 225.411 231.668 228.239 231.562C231.066 231.457 232.468 232.165 230.488 234.899C228.508 237.633 222.814 236.065 221.285 236.897C219.756 237.729 218.79 240.721 220.564 243.207C222.227 245.539 211.06 241.027 209.611 238.264C208.162 235.501 207.789 229.019 209.809 228.666Z" fill="#FFA8A7"/>
<path d="M279.236 109.118L276.78 100.686L278.752 93.8026V89.5962L272.709 93.8026V98.0185L275.307 106.317C275.347 106.399 275.408 106.463 275.481 106.498L279.236 109.118Z" fill="#5B48EE"/>
<path opacity="0.2" d="M279.236 109.118L276.78 100.686L278.752 93.8026V89.5962L272.709 93.8026V98.0185L275.307 106.317C275.347 106.399 275.408 106.463 275.481 106.498L279.236 109.118Z" fill="black"/>
<path d="M293.674 56.098C293.644 55.3328 293.464 54.587 293.149 53.9222C292.833 53.2574 292.392 52.6925 291.86 52.274L290.379 51.2415C289.819 50.8943 289.199 50.7131 288.569 50.7131C287.94 50.7131 287.319 50.8943 286.76 51.2415L264.124 67.0824C263.59 67.4974 263.146 68.0615 262.831 68.7271C262.515 69.3927 262.337 70.1401 262.311 70.9064V100.973C262.34 101.738 262.52 102.484 262.836 103.148C263.151 103.813 263.593 104.378 264.124 104.797L265.597 105.829C266.159 106.173 266.781 106.353 267.411 106.353C268.041 106.353 268.663 106.173 269.225 105.829L276.503 100.753L279.101 108.984C279.138 109.06 279.193 109.121 279.258 109.161C279.323 109.201 279.396 109.218 279.469 109.21C279.542 109.202 279.612 109.17 279.67 109.116C279.728 109.063 279.772 108.99 279.798 108.907L282.538 96.4794L291.86 89.969C292.392 89.5505 292.833 88.9856 293.149 88.3208C293.464 87.656 293.644 86.9103 293.674 86.145V56.098Z" fill="#5B48EE"/>
<path opacity="0.2" d="M262.311 100.934C262.34 101.699 262.52 102.445 262.836 103.11C263.151 103.775 263.593 104.34 264.124 104.758L265.597 105.791C266.109 106.102 266.669 106.279 267.241 106.308C267.813 106.338 268.384 106.22 268.916 105.963C268.06 106.355 267.411 105.772 267.411 104.529V74.4244C267.434 73.6646 267.616 72.9243 267.942 72.2734L262.841 68.717C262.517 69.3685 262.334 70.1085 262.311 70.868V100.934Z" fill="black"/>
<path opacity="0.3" d="M293.61 55.4481C293.397 54.4921 292.7 54.2244 291.86 54.8076L269.225 70.6389C268.686 71.0358 268.245 71.6005 267.95 72.2737L262.849 68.7173C263.15 68.0509 263.589 67.4907 264.124 67.0921L286.752 51.2799C287.315 50.9407 287.936 50.7642 288.565 50.7642C289.195 50.7642 289.816 50.9407 290.379 51.2799L291.86 52.3124C292.313 52.6639 292.702 53.1233 293.003 53.6624C293.304 54.2016 293.511 54.8092 293.61 55.4481Z" fill="white"/>
<path d="M289.619 77.436H289.492L287.757 77.3212C287.719 77.3225 287.681 77.3146 287.646 77.2978C287.61 77.2811 287.578 77.256 287.551 77.2239C287.523 77.1918 287.502 77.1534 287.487 77.111C287.472 77.0686 287.464 77.0231 287.464 76.9771C287.464 76.652 287.504 76.3174 287.504 76.0211C287.52 75.674 287.52 75.3261 287.504 74.979C287.506 74.7545 287.573 74.5379 287.694 74.3672L289.626 71.4992C289.684 71.4211 289.725 71.3271 289.746 71.2255C289.767 71.1238 289.766 71.0176 289.745 70.916L288.827 68.4687C288.827 68.4687 288.827 68.4018 288.771 68.3922C288.719 68.3718 288.663 68.3709 288.611 68.3897C288.559 68.4085 288.512 68.446 288.478 68.4974L286.355 70.744C286.3 70.8183 286.224 70.8674 286.142 70.883C286.06 70.8987 285.976 70.88 285.904 70.83C285.638 70.5661 285.339 70.3562 285.017 70.2086C284.947 70.1767 284.888 70.1163 284.85 70.0379C284.813 69.9595 284.799 69.8678 284.811 69.7784L285.453 66.289C285.462 66.2407 285.458 66.1898 285.441 66.1447C285.424 66.0995 285.394 66.0628 285.358 66.0404C285.296 66.0142 285.229 66.0142 285.167 66.0404L283.148 66.2794C283.054 66.2907 282.964 66.3309 282.886 66.3962C282.808 66.4615 282.746 66.5496 282.704 66.6523L281.611 70.199C281.514 70.4249 281.358 70.6062 281.168 70.7153C280.732 70.9637 280.313 71.2547 279.917 71.5852C279.75 71.7286 279.56 71.7382 279.489 71.5852L278.451 69.6732C278.38 69.5394 278.214 69.5681 278.079 69.7306L275.861 72.5986C275.798 72.6761 275.75 72.7693 275.72 72.8717C275.69 72.9741 275.679 73.0832 275.687 73.1913L276.305 75.7151C276.32 75.8194 276.318 75.9263 276.299 76.0297C276.28 76.133 276.245 76.2308 276.194 76.3174C275.821 76.9847 275.48 77.6773 275.172 78.392C275.064 78.6063 274.891 78.7608 274.689 78.8221L272.796 79.3766C272.701 79.403 272.612 79.4555 272.537 79.5301C272.461 79.6048 272.401 79.6995 272.361 79.8068L271.41 83.6882C271.4 83.7312 271.399 83.7765 271.406 83.8204C271.413 83.8642 271.429 83.9053 271.453 83.94C271.476 83.9748 271.506 84.0022 271.54 84.02C271.574 84.0377 271.611 84.0452 271.648 84.0419L273.383 84.1566C273.421 84.1554 273.459 84.1633 273.494 84.18C273.53 84.1968 273.562 84.2219 273.589 84.254C273.617 84.2861 273.638 84.3244 273.653 84.3668C273.668 84.4092 273.676 84.4548 273.676 84.5008C273.624 85.1717 273.624 85.847 273.676 86.518C273.674 86.7425 273.606 86.9591 273.486 87.1298L271.553 89.9978C271.495 90.0759 271.454 90.1699 271.433 90.2715C271.413 90.3732 271.413 90.4794 271.434 90.5809L272.353 93.0283C272.365 93.0624 272.384 93.0921 272.408 93.1144C272.432 93.1232 272.456 93.1232 272.48 93.1144C272.564 93.1066 272.642 93.0625 272.701 92.9901L274.769 90.7052C274.825 90.6323 274.9 90.5843 274.982 90.5687C275.064 90.5532 275.148 90.5709 275.22 90.6192C275.484 90.8803 275.781 91.09 276.099 91.2406C276.17 91.2723 276.23 91.3322 276.269 91.4104C276.307 91.4886 276.323 91.5804 276.313 91.6708L275.671 95.1698C275.663 95.2156 275.667 95.2635 275.682 95.3065C275.698 95.3496 275.725 95.3854 275.759 95.4088C275.82 95.4342 275.887 95.4342 275.949 95.4088L277.968 95.1602C278.062 95.1489 278.153 95.1087 278.23 95.0434C278.308 94.9782 278.37 94.89 278.412 94.7874L279.513 91.2501C279.604 91.0227 279.758 90.8404 279.948 90.7339C280.162 90.6096 280.376 90.4758 280.59 90.3228C280.799 90.1792 281.003 90.0228 281.2 89.8544C281.374 89.7205 281.564 89.711 281.635 89.8544L282.673 91.7664C282.676 91.7799 282.682 91.7922 282.691 91.8023C282.699 91.8123 282.709 91.8196 282.72 91.8238C282.807 91.8907 282.934 91.8237 283.045 91.709L285.263 88.841C285.327 88.7647 285.375 88.6713 285.404 88.5684C285.433 88.4655 285.441 88.3559 285.429 88.2483L284.811 85.734C284.787 85.5194 284.829 85.3015 284.93 85.1222C285.307 84.4365 285.646 83.7211 285.944 82.9808C286.055 82.7697 286.227 82.6163 286.427 82.5505L288.328 81.9961C288.422 81.9698 288.51 81.9171 288.584 81.8424C288.658 81.7677 288.717 81.673 288.755 81.5659L289.714 77.6845C289.718 77.6366 289.711 77.5882 289.694 77.5445C289.678 77.5007 289.651 77.4632 289.619 77.436ZM279.489 86.9004H279.378H279.299H279.117H278.911H278.721C278.311 86.9067 277.909 86.7617 277.569 86.485C277.23 86.2082 276.968 85.8128 276.82 85.3516C276.668 84.9498 276.575 84.5199 276.543 84.0801C276.526 83.8415 276.526 83.6017 276.543 83.3631C276.664 80.7661 277.552 78.3075 279.045 76.4321C279.492 75.8483 280.007 75.346 280.574 74.9408C280.739 74.8207 280.911 74.7152 281.089 74.6253C281.534 74.3721 282.022 74.2446 282.514 74.2525H282.744C283.095 74.3171 283.426 74.4914 283.704 74.7581C283.981 75.0247 284.197 75.3744 284.328 75.7725C285.191 78.0574 284.201 82.0534 282.134 84.692C281.442 85.7138 280.525 86.4792 279.489 86.9004Z" fill="white"/>
</svg>
