<svg width="1094" height="394" viewBox="0 0 1094 394" fill="none" xmlns="http://www.w3.org/2000/svg">
<mask id="path-1-outside-1_205_204" maskUnits="userSpaceOnUse" x="0" y="0" width="1094" height="394" fill="black">
<rect fill="white" width="1094" height="394"/>
<path fill-rule="evenodd" clip-rule="evenodd" d="M53 8C28.1472 8 8 28.1472 8 53V341C8 365.853 28.1471 386 53 386H964.569C989.422 386 1009.57 365.853 1009.57 341V334.353L1076 299.414L1009.57 264.474V53C1009.57 28.1472 989.422 8 964.569 8H53Z"/>
</mask>
<path fill-rule="evenodd" clip-rule="evenodd" d="M53 8C28.1472 8 8 28.1472 8 53V341C8 365.853 28.1471 386 53 386H964.569C989.422 386 1009.57 365.853 1009.57 341V334.353L1076 299.414L1009.57 264.474V53C1009.57 28.1472 989.422 8 964.569 8H53Z" fill="white"/>
<path d="M1009.57 334.353L1005.85 327.273L1001.57 329.522V334.353H1009.57ZM1076 299.414L1079.72 306.494L1093.19 299.414L1079.72 292.333L1076 299.414ZM1009.57 264.474H1001.57V269.306L1005.85 271.555L1009.57 264.474ZM16 53C16 32.5655 32.5655 16 53 16V0C23.7289 0 0 23.7289 0 53H16ZM16 341V53H0V341H16ZM53 378C32.5654 378 16 361.435 16 341H0C0 370.271 23.7289 394 53 394V378ZM964.569 378H53V394H964.569V378ZM1001.57 341C1001.57 361.435 985.004 378 964.569 378V394C993.84 394 1017.57 370.271 1017.57 341H1001.57ZM1001.57 334.353V341H1017.57V334.353H1001.57ZM1072.28 292.333L1005.85 327.273L1013.29 341.434L1079.72 306.494L1072.28 292.333ZM1005.85 271.555L1072.28 306.494L1079.72 292.333L1013.29 257.394L1005.85 271.555ZM1001.57 53V264.474H1017.57V53H1001.57ZM964.569 16C985.004 16 1001.57 32.5655 1001.57 53H1017.57C1017.57 23.7289 993.84 0 964.569 0V16ZM53 16H964.569V0H53V16Z" fill="#5B48EE" mask="url(#path-1-outside-1_205_204)"/>
</svg>
