<svg width="420" height="432" viewBox="0 0 420 432" fill="none" xmlns="http://www.w3.org/2000/svg">
<g clip-path="url(#clip0_25_1285)">
<path d="M398.338 271.186C386.598 292.384 348.869 300.142 328.892 298.803C305.909 297.246 287.39 282.213 271.345 267.434C251.097 248.842 238.306 238.876 209.199 243.883C183.561 248.287 159.233 257.866 133.211 259.567C79.9913 263.187 18.5797 254.512 3.72108 196.685C-9.90587 143.659 20.0373 90.5134 79.0309 90.7306C128.85 90.9357 128.748 157.088 183.357 135.878C234.204 116.079 242.114 39.6596 305.243 45.4991C367.999 51.3264 327.254 130.207 328.971 173.038C330.101 200.522 359.92 188.131 379.649 199.424C403.49 213.142 413.196 244.366 398.338 271.186Z" fill="#5B48EE"/>
<path opacity="0.9" d="M398.651 270.133C386.902 292.136 349.144 300.189 329.151 298.799C306.15 297.183 287.616 281.579 271.558 266.239C251.294 246.94 238.493 236.596 209.363 241.793C183.705 246.364 159.358 256.308 133.316 258.073C80.054 261.83 18.5939 252.826 3.72365 192.803C-9.91405 137.764 20.0527 82.5992 79.0928 82.8246C128.951 83.0375 128.849 151.702 183.501 129.686C234.388 109.136 242.304 29.8142 305.483 35.8754C368.289 41.9241 327.511 123.8 329.23 168.258C330.361 196.785 360.203 183.924 379.948 195.646C403.808 209.884 413.522 242.294 398.651 270.133Z" fill="white"/>
<path d="M202.933 368.649C314.752 368.649 405.399 364.28 405.399 358.889C405.399 353.499 314.752 349.129 202.933 349.129C91.1139 349.129 0.466797 353.499 0.466797 358.889C0.466797 364.28 91.1139 368.649 202.933 368.649Z" fill="#F5F5F5"/>
<path d="M215.332 73.4285C214.396 70.4193 213.154 67.5083 211.625 64.7385L213.927 57.4035L199.04 42.9128L191.498 45.1525C188.65 43.6651 185.657 42.4572 182.563 41.5466L178.856 34.8275H157.785L154.089 41.5466C150.994 42.4551 148.001 43.6631 145.154 45.1525L137.612 42.9128L122.713 57.4035L125.016 64.7385C123.495 67.5109 122.258 70.4215 121.32 73.4285L114.354 77.0343V97.5274L121.32 101.122C122.255 104.13 123.493 107.041 125.016 109.812L122.713 117.147L137.612 131.638L145.154 129.398C148.004 130.879 150.996 132.083 154.089 132.993L157.785 139.712H178.856L182.563 132.993C185.655 132.081 188.648 130.877 191.498 129.398L199.04 131.638L213.939 117.147L211.636 109.812C213.168 107.043 214.41 104.132 215.344 101.122L222.31 97.5274V77.0343L215.332 73.4285ZM168.32 116.386C162.399 116.386 156.612 114.678 151.688 111.479C146.765 108.279 142.928 103.732 140.663 98.4118C138.397 93.0916 137.804 87.2374 138.959 81.5895C140.114 75.9415 142.965 70.7536 147.152 66.6817C151.339 62.6097 156.673 59.8367 162.48 58.7133C168.287 57.5898 174.306 58.1664 179.777 60.3701C185.247 62.5739 189.922 66.3057 193.212 71.0938C196.501 75.8819 198.257 81.5111 198.257 87.2697C198.257 94.9917 195.103 102.397 189.489 107.858C183.874 113.318 176.26 116.386 168.32 116.386Z" fill="#5B48EE"/>
<path opacity="0.2" d="M215.332 74.3396C214.396 71.3305 213.154 68.4195 211.625 65.6497L213.927 58.3147L199.04 43.824L191.498 46.0637C188.65 44.5763 185.657 43.3684 182.563 42.4578L178.856 35.7387H157.785L154.089 42.4578C150.994 43.3663 148.001 44.5743 145.154 46.0637L137.612 43.824L122.713 58.3147L125.016 65.6497C123.495 68.4221 122.258 71.3326 121.32 74.3396L114.354 77.9455V98.4386L121.32 102.033C122.255 105.041 123.493 107.952 125.016 110.723L122.713 118.058L137.612 132.549L145.154 130.309C148.004 131.79 150.996 132.994 154.089 133.904L157.785 140.623H178.856L182.563 133.904C185.655 132.992 188.648 131.788 191.498 130.309L199.04 132.549L213.939 118.058L211.636 110.723C213.167 107.954 214.41 105.043 215.344 102.033L222.31 98.4386V77.9455L215.332 74.3396ZM168.32 117.297C162.399 117.297 156.612 115.589 151.688 112.39C146.765 109.191 142.928 104.643 140.663 99.323C138.397 94.0028 137.804 88.1486 138.959 82.5007C140.114 76.8527 142.965 71.6648 147.152 67.5929C151.339 63.5209 156.673 60.7479 162.48 59.6245C168.287 58.501 174.306 59.0776 179.777 61.2813C185.247 63.485 189.922 67.2169 193.212 72.005C196.501 76.793 198.257 82.4223 198.257 88.1809C198.257 95.9029 195.103 103.309 189.489 108.769C183.874 114.229 176.26 117.297 168.32 117.297Z" fill="white"/>
<path d="M168.32 77.6279C166.357 77.6279 164.438 78.194 162.806 79.2547C161.174 80.3154 159.902 81.823 159.151 83.5868C158.399 85.3507 158.203 87.2916 158.586 89.1641C158.969 91.0366 159.914 92.7566 161.302 94.1066C162.69 95.4566 164.459 96.376 166.384 96.7484C168.309 97.1209 170.305 96.9297 172.118 96.1991C173.932 95.4685 175.482 94.2313 176.573 92.6438C177.663 91.0564 178.245 89.1901 178.245 87.2809C178.245 84.7208 177.2 82.2655 175.338 80.4552C173.477 78.6449 170.952 77.6279 168.32 77.6279Z" fill="#5B48EE"/>
<path d="M365.28 105.937C363.941 101.635 362.171 97.4719 359.995 93.5072L363.288 83.0255L342.021 62.342L331.232 65.556C327.17 63.4147 322.891 61.6884 318.463 60.4047L313.178 50.7293H283.069L277.773 60.4047C273.347 61.6924 269.068 63.4186 265.004 65.556L254.227 62.342L232.937 83.0479L236.23 93.5296C234.044 97.4899 232.273 101.654 230.945 105.96L220.986 111.1V140.384L230.934 145.535C232.26 149.838 234.03 153.999 236.219 157.954L232.926 168.425L254.215 189.13L264.992 185.928C269.061 188.058 273.343 189.777 277.773 191.057L283.069 200.743H313.178L318.463 191.068C322.888 189.774 327.166 188.048 331.232 185.916L342.021 189.119L363.311 168.413L360.018 157.932C362.188 153.971 363.951 149.811 365.28 145.513L375.228 140.361V111.078L365.28 105.937ZM298.118 178.805C287.322 178.805 276.768 175.692 267.791 169.858C258.814 164.024 251.817 155.732 247.685 146.031C243.554 136.33 242.473 125.655 244.579 115.356C246.685 105.057 251.884 95.5974 259.519 88.1724C267.153 80.7474 276.88 75.6909 287.469 73.6423C298.058 71.5938 309.033 72.6451 319.008 76.6635C328.983 80.6819 337.508 87.4868 343.506 96.2177C349.505 104.949 352.706 115.213 352.706 125.714C352.706 132.686 351.294 139.59 348.551 146.031C345.808 152.472 341.787 158.325 336.718 163.255C331.649 168.185 325.631 172.096 319.008 174.764C312.385 177.432 305.287 178.805 298.118 178.805Z" fill="#5B48EE"/>
<path d="M298.118 80.0691C288.834 80.0713 279.759 82.7509 272.041 87.769C264.323 92.787 258.308 99.9183 254.757 108.261C251.206 116.604 250.278 125.783 252.09 134.639C253.903 143.495 258.375 151.629 264.94 158.013C271.506 164.397 279.87 168.744 288.976 170.504C298.081 172.265 307.519 171.36 316.096 167.905C324.673 164.449 332.004 158.597 337.162 151.089C342.319 143.581 345.072 134.754 345.072 125.725C345.057 113.619 340.105 102.013 331.302 93.4538C322.5 84.8946 310.565 80.081 298.118 80.0691ZM298.118 165.3C290.07 165.302 282.201 162.983 275.508 158.636C268.815 154.289 263.598 148.109 260.517 140.878C257.435 133.646 256.628 125.689 258.196 118.011C259.765 110.334 263.64 103.281 269.33 97.7451C275.02 92.2093 282.27 88.439 290.164 86.9111C298.057 85.3832 306.24 86.1662 313.675 89.1613C321.111 92.1563 327.467 97.2287 331.939 103.737C336.41 110.245 338.797 117.897 338.797 125.725C338.785 136.215 334.496 146.273 326.87 153.692C319.244 161.111 308.904 165.285 298.118 165.3Z" fill="#5B48EE"/>
<path opacity="0.2" d="M298.118 80.0691C288.834 80.0713 279.759 82.7509 272.041 87.769C264.323 92.787 258.308 99.9183 254.757 108.261C251.206 116.604 250.278 125.783 252.09 134.639C253.903 143.495 258.375 151.629 264.94 158.013C271.506 164.397 279.87 168.744 288.976 170.504C298.081 172.265 307.519 171.36 316.096 167.905C324.673 164.449 332.004 158.597 337.162 151.089C342.319 143.581 345.072 134.754 345.072 125.725C345.057 113.619 340.105 102.013 331.302 93.4538C322.5 84.8946 310.565 80.081 298.118 80.0691ZM298.118 165.3C290.07 165.302 282.201 162.983 275.508 158.636C268.815 154.289 263.598 148.109 260.517 140.878C257.435 133.646 256.628 125.689 258.196 118.011C259.765 110.334 263.64 103.281 269.33 97.7451C275.02 92.2093 282.27 88.439 290.164 86.9111C298.057 85.3832 306.24 86.1662 313.675 89.1613C321.111 92.1563 327.467 97.2287 331.939 103.737C336.41 110.245 338.797 117.897 338.797 125.725C338.785 136.215 334.496 146.273 326.87 153.692C319.244 161.111 308.904 165.285 298.118 165.3Z" fill="black"/>
<path d="M190.266 203.621C189.961 203.621 189.668 203.503 189.452 203.293C189.236 203.083 189.115 202.798 189.115 202.501V200.262C189.115 199.965 189.236 199.68 189.452 199.47C189.668 199.26 189.961 199.142 190.266 199.142C190.572 199.142 190.864 199.26 191.08 199.47C191.296 199.68 191.418 199.965 191.418 200.262V202.501C191.418 202.798 191.296 203.083 191.08 203.293C190.864 203.503 190.572 203.621 190.266 203.621Z" fill="#5B48EE"/>
<path d="M172.339 174.684C171.282 174.024 170.455 173.067 169.967 171.941C169.846 171.668 169.619 171.452 169.335 171.342C169.051 171.232 168.734 171.236 168.453 171.353C168.172 171.47 167.95 171.691 167.837 171.967C167.723 172.244 167.728 172.552 167.848 172.826C168.524 174.355 169.65 175.656 171.084 176.566C171.269 176.682 171.485 176.744 171.705 176.745C171.955 176.747 172.198 176.67 172.398 176.526C172.599 176.382 172.746 176.178 172.817 175.946C172.889 175.714 172.88 175.465 172.794 175.238C172.708 175.01 172.548 174.816 172.339 174.684Z" fill="#5B48EE"/>
<path d="M168.32 160.698C168.626 160.698 168.919 160.58 169.134 160.37C169.35 160.16 169.472 159.875 169.472 159.578V155.289C169.472 154.992 169.35 154.707 169.134 154.497C168.919 154.287 168.626 154.169 168.32 154.169C168.015 154.169 167.722 154.287 167.506 154.497C167.29 154.707 167.169 154.992 167.169 155.289V159.578C167.169 159.875 167.29 160.16 167.506 160.37C167.722 160.58 168.015 160.698 168.32 160.698Z" fill="#5B48EE"/>
<path d="M180.306 175.67H175.885C175.58 175.67 175.287 175.788 175.071 175.998C174.855 176.208 174.734 176.493 174.734 176.789C174.734 177.086 174.855 177.371 175.071 177.581C175.287 177.791 175.58 177.909 175.885 177.909H180.306C180.612 177.909 180.905 177.791 181.121 177.581C181.337 177.371 181.458 177.086 181.458 176.789C181.458 176.493 181.337 176.208 181.121 175.998C180.905 175.788 180.612 175.67 180.306 175.67Z" fill="#5B48EE"/>
<path d="M169.472 168.167V163.878C169.472 163.581 169.35 163.296 169.134 163.086C168.919 162.876 168.626 162.758 168.32 162.758C168.015 162.758 167.722 162.876 167.506 163.086C167.29 163.296 167.169 163.581 167.169 163.878V168.167C167.169 168.464 167.29 168.749 167.506 168.959C167.722 169.169 168.015 169.287 168.32 169.287C168.626 169.287 168.919 169.169 169.134 168.959C169.35 168.749 169.472 168.464 169.472 168.167Z" fill="#5B48EE"/>
<path d="M191.348 182.949C191.308 182.655 191.15 182.389 190.908 182.208C190.667 182.028 190.361 181.948 190.059 181.986C189.909 182.01 189.765 182.063 189.636 182.142C189.508 182.22 189.396 182.323 189.308 182.444C189.221 182.565 189.158 182.701 189.125 182.846C189.092 182.99 189.088 183.139 189.115 183.285C189.151 183.545 189.171 183.806 189.172 184.069V187.428C189.172 187.725 189.294 188.01 189.509 188.22C189.725 188.43 190.018 188.548 190.324 188.548C190.629 188.548 190.922 188.43 191.138 188.22C191.354 188.01 191.475 187.725 191.475 187.428V184.069C191.458 183.693 191.416 183.319 191.348 182.949Z" fill="#5B48EE"/>
<path d="M190.266 190.553C189.961 190.553 189.668 190.671 189.452 190.881C189.236 191.091 189.115 191.375 189.115 191.672V195.973C189.115 196.27 189.236 196.554 189.452 196.764C189.668 196.974 189.961 197.092 190.266 197.092C190.572 197.092 190.864 196.974 191.08 196.764C191.296 196.554 191.418 196.27 191.418 195.973V191.672C191.418 191.375 191.296 191.091 191.08 190.881C190.864 190.671 190.572 190.553 190.266 190.553Z" fill="#5B48EE"/>
<path d="M189.264 178.503C188.137 177.251 186.649 176.357 184.993 175.939C184.846 175.902 184.693 175.894 184.543 175.914C184.393 175.935 184.249 175.984 184.119 176.059C183.988 176.134 183.874 176.233 183.783 176.351C183.692 176.468 183.626 176.602 183.588 176.745C183.55 176.888 183.542 177.036 183.563 177.182C183.584 177.328 183.635 177.468 183.712 177.595C183.789 177.722 183.891 177.833 184.012 177.921C184.133 178.01 184.27 178.074 184.417 178.111C185.627 178.415 186.715 179.067 187.537 179.981C187.645 180.101 187.778 180.196 187.927 180.262C188.076 180.328 188.237 180.362 188.401 180.362C188.622 180.362 188.839 180.299 189.024 180.183C189.21 180.066 189.358 179.899 189.449 179.703C189.54 179.507 189.571 179.29 189.538 179.077C189.506 178.864 189.41 178.665 189.264 178.503Z" fill="#5B48EE"/>
<path d="M168.32 152.064C168.015 152.064 167.722 151.946 167.506 151.736C167.29 151.526 167.169 151.241 167.169 150.944V148.704C167.169 148.407 167.29 148.122 167.506 147.912C167.722 147.702 168.015 147.584 168.32 147.584C168.626 147.584 168.919 147.702 169.134 147.912C169.35 148.122 169.472 148.407 169.472 148.704V150.944C169.472 151.241 169.35 151.526 169.134 151.736C168.919 151.946 168.626 152.064 168.32 152.064Z" fill="#5B48EE"/>
<path d="M303.313 243.358H48.1631V246.665H303.313V243.358Z" fill="#5B48EE"/>
<path d="M303.313 246.665H358.676V243.359H303.313V246.665Z" fill="#5B48EE"/>
<path opacity="0.2" d="M303.313 246.665H358.676V243.359H303.313V246.665Z" fill="black"/>
<path d="M340.185 250.203H66.6541L57.5078 246.665H349.331L340.185 250.203Z" fill="#5B48EE"/>
<path opacity="0.6" d="M340.185 250.203H66.6541L57.5078 246.665H349.331L340.185 250.203Z" fill="white"/>
<path d="M74.9189 250.204V355.69H78.4232L82.8311 250.204H74.9189Z" fill="#5B48EE"/>
<path d="M116.287 250.204V355.69H119.791L124.199 250.204H116.287Z" fill="#5B48EE"/>
<path d="M340.184 250.204V355.69H336.691L332.272 250.204H340.184Z" fill="#5B48EE"/>
<path d="M298.828 250.204V355.69H295.324L290.916 250.204H298.828Z" fill="#5B48EE"/>
<path d="M215.563 203.318L204.048 241.264L203.728 243.358H283.158L283.489 241.264L294.993 203.318H215.563Z" fill="#5B48EE"/>
<path opacity="0.3" d="M215.563 203.318L204.048 241.264L203.728 243.358H283.158L283.489 241.264L294.993 203.318H215.563Z" fill="black"/>
<path d="M292.558 203.318H213.117L201.612 241.264H281.042L292.558 203.318Z" fill="#5B48EE"/>
<path d="M279.356 239.525L289.824 205.056H214.802L204.345 239.525H279.356Z" fill="white"/>
<path d="M260.347 241.264L260.016 243.358H172.553L172.873 241.264H260.347Z" fill="#5B48EE"/>
<path opacity="0.6" d="M260.347 241.264L260.016 243.358H172.553L172.873 241.264H260.347Z" fill="white"/>
<path d="M95.1179 236.459C95.0625 235.101 94.4053 233.805 93.2663 232.807C92.1273 231.809 90.5825 231.175 88.9138 231.022V229.997C88.9124 229.937 88.8964 229.879 88.8667 229.825C88.837 229.77 88.7942 229.721 88.7408 229.681C88.6874 229.64 88.6246 229.608 88.5559 229.588C88.4872 229.567 88.4141 229.557 88.3408 229.56H76.4395C76.3657 229.557 76.292 229.567 76.2227 229.588C76.1534 229.608 76.0898 229.64 76.0355 229.68C75.9813 229.721 75.9375 229.77 75.9066 229.824C75.8757 229.878 75.8583 229.937 75.8555 229.997V243.367H88.9138V241.905C90.5852 241.754 92.1328 241.119 93.2725 240.119C94.4121 239.118 95.0674 237.819 95.1179 236.459ZM88.9138 240.176V232.751C90.0151 232.882 91.0213 233.33 91.7488 234.011C92.4763 234.693 92.8766 235.563 92.8766 236.464C92.8766 237.364 92.4763 238.234 91.7488 238.916C91.0213 239.598 90.0151 240.045 88.9138 240.176Z" fill="#5B48EE"/>
<path d="M317.848 243.358H328.912L325.639 223.757H317.848V243.358Z" fill="#263238"/>
<path d="M301.627 243.358H322.587L326.477 220.414H305.528L301.627 243.358Z" fill="#5B48EE"/>
<path opacity="0.3" d="M301.627 243.358H322.587L326.477 220.414H305.528L301.627 243.358Z" fill="black"/>
<path d="M298.828 243.358H320.636L324.537 220.414H302.729L298.828 243.358Z" fill="#5B48EE"/>
<path opacity="0.4" d="M318.708 241.549L321.991 222.224H304.657L301.374 241.549H318.708Z" fill="white"/>
<path d="M166.216 214.27L165.528 215.028L164.79 215.89C164.294 216.477 163.799 217.072 163.33 217.684C162.39 218.908 161.484 220.158 160.636 221.443C158.95 223.928 157.543 226.6 156.441 229.41C155.928 230.746 155.529 232.125 155.249 233.531C155.115 234.325 155.031 234.67 154.989 235.006C154.943 235.274 154.943 235.548 154.989 235.816C155.13 236.238 155.351 236.626 155.639 236.959C155.927 237.292 156.277 237.563 156.667 237.756C157.234 238.115 157.829 238.424 158.446 238.679C158.771 238.817 159.106 238.946 159.453 239.067C159.772 239.188 160.175 239.308 160.426 239.412V244.163C159.839 244.249 159.411 244.318 158.916 244.352C158.421 244.387 157.943 244.395 157.448 244.352C156.43 244.331 155.417 244.198 154.427 243.956C153.311 243.686 152.242 243.244 151.255 242.645C150.095 241.948 149.099 240.997 148.335 239.86C147.55 238.65 147.029 237.279 146.808 235.842C146.752 235.506 146.716 235.166 146.699 234.825C146.683 234.497 146.683 234.169 146.699 233.842V233.359C146.69 233.23 146.69 233.1 146.699 232.971L146.766 232.212C146.981 230.242 147.386 228.298 147.975 226.41C149.111 222.782 150.711 219.326 152.732 216.132C153.703 214.563 154.759 213.052 155.895 211.605C156.458 210.881 157.037 210.174 157.641 209.476C157.934 209.122 158.245 208.777 158.564 208.432C158.882 208.087 159.176 207.786 159.612 207.355L166.216 214.27Z" fill="#B55B52"/>
<path d="M158.757 239.308L162.667 236.359L164.89 244.62C164.89 244.62 161.425 245.939 158.782 244.163L158.757 239.308Z" fill="#B55B52"/>
<path d="M168.096 234.376L169.623 241.291L164.89 244.62L162.667 236.36L168.096 234.376Z" fill="#B55B52"/>
<path d="M192.823 182.574C192.647 183.083 192.772 183.591 193.1 183.703C193.427 183.816 193.83 183.505 193.997 182.997C194.165 182.488 194.048 181.971 193.729 181.859C193.41 181.747 192.999 182.057 192.823 182.574Z" fill="#263238"/>
<path d="M192.73 183.575C192.796 185.35 193.098 187.108 193.628 188.8C193.206 188.924 192.762 188.953 192.327 188.885C191.893 188.816 191.478 188.652 191.111 188.403L192.73 183.575Z" fill="#A02724"/>
<path d="M192.017 179.108C192.08 179.13 192.148 179.13 192.21 179.108C192.578 178.982 192.97 178.947 193.354 179.007C193.738 179.067 194.102 179.22 194.417 179.453C194.48 179.5 194.558 179.521 194.636 179.511C194.713 179.502 194.784 179.463 194.835 179.402C194.886 179.341 194.912 179.263 194.909 179.183C194.907 179.103 194.875 179.027 194.82 178.97C194.426 178.669 193.967 178.468 193.483 178.386C192.998 178.303 192.501 178.341 192.034 178.496C191.973 178.518 191.92 178.558 191.882 178.612C191.844 178.667 191.824 178.731 191.824 178.798C191.824 178.864 191.844 178.929 191.882 178.983C191.92 179.037 191.973 179.078 192.034 179.099L192.017 179.108Z" fill="#263238"/>
<path d="M174.422 184.454C175.362 189.36 176.293 198.353 172.954 201.629C172.954 201.629 174.263 206.604 183.14 206.604C192.898 206.604 187.805 201.629 187.805 201.629C182.477 200.319 182.611 196.258 183.543 192.447L174.422 184.454Z" fill="#B55B52"/>
<path d="M171.678 203.337C170.974 201.759 170.21 199.957 171.796 199.396C173.55 198.775 183.148 198.137 186.454 199.301C186.891 199.424 187.3 199.634 187.657 199.921C188.014 200.207 188.312 200.564 188.533 200.97C188.754 201.377 188.894 201.824 188.945 202.287C188.996 202.749 188.956 203.218 188.829 203.664L171.678 203.337Z" fill="#263238"/>
<path d="M205.199 211.752C207.255 215.554 209.462 219.469 211.694 223.228C213.925 226.987 216.266 230.729 218.767 234.144C219.388 235.006 220.034 235.825 220.672 236.644C220.99 237.067 221.326 237.411 221.653 237.799L222.14 238.368L222.266 238.515L222.325 238.584L222.383 238.662C222.774 239.05 223.244 239.345 223.759 239.524C224.552 239.807 225.37 240.012 226.201 240.136C230.28 240.559 234.392 240.51 238.46 239.989L239.735 244.559C238.602 245.077 237.545 245.421 236.421 245.853C235.296 246.284 234.189 246.568 233.065 246.861C230.681 247.476 228.238 247.811 225.781 247.861C224.402 247.884 223.026 247.743 221.678 247.439C220.025 247.101 218.465 246.389 217.114 245.352L216.552 244.878L216.417 244.757L216.334 244.671L216.174 244.507L215.52 243.844C215.092 243.404 214.622 242.981 214.236 242.516C213.397 241.61 212.608 240.705 211.878 239.774C208.947 236.134 206.242 232.306 203.781 228.315C202.556 226.349 201.376 224.363 200.24 222.357C199.099 220.331 198 218.348 196.934 216.209L205.199 211.752Z" fill="#B55B52"/>
<path d="M161.266 203.147C155.14 204.587 148.126 221.736 148.126 221.736L160.418 230.358C163.475 225.853 166.188 221.111 168.532 216.175C172.165 208.363 167.525 201.673 161.266 203.147Z" fill="#5B48EE"/>
<path opacity="0.2" d="M165.645 214.08L159.839 229.979L160.41 230.393C160.41 230.393 162.927 226.763 165.645 221.866V214.08Z" fill="black"/>
<path d="M197.849 203.483C197.849 203.483 204.796 211.554 198.235 261.476H163.305C163.07 255.966 166.434 229.1 161.266 203.138C165.126 202.375 169.03 201.868 172.954 201.621C177.9 201.323 182.859 201.323 187.805 201.621C191.195 201.972 194.553 202.594 197.849 203.483Z" fill="#5B48EE"/>
<path opacity="0.2" d="M193.964 217.925C194.875 223.591 197.258 228.9 200.861 233.29C201.004 230.074 201.062 227.186 201.054 224.607L193.964 217.925Z" fill="black"/>
<path d="M190.935 208.932C190.096 215.287 202.262 231.514 202.262 231.514L214.504 222.892C214.504 222.892 211.106 213.95 205.392 208.087C198.881 201.362 191.892 202.017 190.935 208.932Z" fill="#5B48EE"/>
<path d="M237.084 240.033L242.068 237.929L247.194 241.912C247.194 241.912 242.303 246.361 237.856 244.628L237.084 240.033Z" fill="#B55B52"/>
<path d="M245.357 237.722L249.116 240.481L247.169 241.912L242.042 237.929L245.357 237.722Z" fill="#B55B52"/>
<path d="M176.595 175.556C174.85 181.971 173.507 185.635 175.504 189.955C178.5 196.465 187.016 196.284 190.608 190.541C193.83 185.368 196.145 175.746 191.01 171.116C189.883 170.086 188.518 169.371 187.046 169.036C185.573 168.702 184.042 168.76 182.598 169.205C181.153 169.65 179.843 170.467 178.793 171.578C177.742 172.69 176.986 174.059 176.595 175.556Z" fill="#B55B52"/>
<path d="M189.886 175.625C187.369 182.988 184.407 191.076 177.174 189.541C172.509 188.55 172.14 180.833 170.462 177.324C168.977 174.245 169.069 168.055 172.14 167.977C170.764 165.925 177.72 158.415 182.469 162.381C183.685 160.657 192.454 155.578 198.948 163.64C205.065 171.262 202.069 177.617 189.886 175.625Z" fill="#263238"/>
<path d="M184.222 180.333C184.054 181.977 184.414 183.634 185.246 185.049C186.362 186.894 187.998 186.187 188.602 184.299C189.139 182.574 189.198 179.6 187.646 178.401C186.093 177.203 184.457 178.35 184.222 180.333Z" fill="#B55B52"/>
<path d="M237.822 350.818C238.661 350.818 239.5 350.698 239.744 350.31C239.813 350.207 239.85 350.086 239.85 349.961C239.85 349.836 239.813 349.714 239.744 349.612C239.632 349.43 239.458 349.298 239.257 349.241C238.166 348.939 235.901 350.275 235.791 350.336C235.763 350.35 235.74 350.374 235.726 350.404C235.712 350.434 235.709 350.467 235.716 350.499C235.721 350.53 235.735 350.559 235.756 350.582C235.777 350.605 235.804 350.621 235.833 350.629C236.49 350.752 237.155 350.815 237.822 350.818ZM238.862 349.517C238.96 349.503 239.059 349.503 239.156 349.517C239.219 349.529 239.279 349.555 239.332 349.594C239.384 349.633 239.427 349.683 239.458 349.741C239.567 349.939 239.534 350.034 239.458 350.086C239.156 350.525 237.503 350.534 236.287 350.353C237.084 349.905 237.959 349.621 238.862 349.517Z" fill="#5B48EE"/>
<path d="M235.85 350.628H235.917C236.706 350.266 238.267 348.818 238.141 348.042C238.141 347.861 237.99 347.646 237.57 347.594C237.42 347.581 237.268 347.598 237.124 347.645C236.98 347.693 236.846 347.769 236.731 347.87C235.892 348.568 235.724 350.378 235.716 350.456C235.713 350.483 235.717 350.511 235.727 350.537C235.737 350.563 235.754 350.585 235.775 350.602C235.798 350.616 235.823 350.625 235.85 350.628ZM237.444 347.913H237.537C237.814 347.913 237.83 348.06 237.839 348.094C237.914 348.551 236.849 349.689 236.043 350.18C236.11 349.421 236.403 348.702 236.882 348.12C237.039 347.982 237.239 347.909 237.444 347.913Z" fill="#5B48EE"/>
<path d="M228.257 350.474H234.785L236.27 334.928H229.742L228.257 350.474Z" fill="#B55B52"/>
<path d="M235.154 349.698H228.03C227.899 349.699 227.772 349.745 227.67 349.83C227.567 349.914 227.496 350.032 227.468 350.164L226.176 356.096C226.142 356.24 226.142 356.391 226.174 356.535C226.206 356.68 226.269 356.816 226.36 356.931C226.451 357.047 226.566 357.14 226.697 357.203C226.828 357.265 226.971 357.297 227.115 357.294C229.683 357.251 233.4 357.096 236.63 357.096C240.415 357.096 243.679 357.303 248.109 357.303C250.794 357.303 251.541 354.518 250.416 354.268C245.306 353.121 241.136 353 236.723 350.198C236.254 349.886 235.711 349.713 235.154 349.698Z" fill="#263238"/>
<path opacity="0.2" d="M236.261 334.937L235.506 342.947H228.97L229.734 334.937H236.261Z" fill="black"/>
<path d="M211.652 350.81C211.928 350.847 212.21 350.827 212.479 350.752C212.748 350.676 213 350.547 213.221 350.37C213.298 350.261 213.339 350.13 213.339 349.995C213.339 349.86 213.298 349.729 213.221 349.62C213.171 349.526 213.102 349.443 213.017 349.379C212.933 349.315 212.837 349.271 212.734 349.25C211.777 349.017 209.973 350.284 209.898 350.336C209.874 350.355 209.855 350.38 209.843 350.409C209.832 350.437 209.827 350.469 209.831 350.499C209.837 350.529 209.851 350.556 209.872 350.578C209.893 350.599 209.919 350.614 209.948 350.62C210.508 350.745 211.079 350.809 211.652 350.81ZM212.491 349.534C212.552 349.525 212.614 349.525 212.675 349.534C212.735 349.543 212.792 349.566 212.842 349.602C212.891 349.638 212.932 349.686 212.96 349.741C213.103 350.008 213.019 350.112 212.96 350.155C212.684 350.525 211.349 350.534 210.368 350.37C210.999 349.931 211.719 349.645 212.474 349.534H212.491Z" fill="#5B48EE"/>
<path d="M209.99 350.628H210.057C210.737 350.249 212.046 348.784 211.903 348.042C211.882 347.924 211.82 347.816 211.73 347.739C211.64 347.662 211.526 347.62 211.408 347.62C211.291 347.605 211.172 347.616 211.06 347.652C210.947 347.687 210.843 347.747 210.754 347.827C209.999 348.465 209.839 350.413 209.831 350.482C209.83 350.511 209.837 350.539 209.85 350.565C209.864 350.591 209.883 350.612 209.906 350.628C209.934 350.637 209.963 350.637 209.99 350.628ZM211.308 347.913H211.375C211.576 347.913 211.593 348.034 211.601 348.077C211.685 348.516 210.846 349.628 210.175 350.154C210.22 349.389 210.489 348.656 210.947 348.051C211.047 347.962 211.175 347.913 211.308 347.913Z" fill="#5B48EE"/>
<path d="M202.506 350.474H209.034L212.314 334.928H205.786L202.506 350.474Z" fill="#B55B52"/>
<path d="M209.495 349.698H202.162C202.032 349.699 201.906 349.746 201.805 349.83C201.704 349.915 201.635 350.033 201.608 350.163L200.316 356.096C200.285 356.241 200.287 356.392 200.322 356.537C200.356 356.681 200.421 356.816 200.513 356.931C200.605 357.046 200.721 357.139 200.852 357.202C200.984 357.264 201.127 357.296 201.272 357.294C203.831 357.251 205.082 357.096 208.304 357.096C210.292 357.096 212.835 357.303 215.578 357.303C218.322 357.303 218.674 354.518 217.55 354.268C212.516 353.138 212.172 351.578 210.561 350.086C210.264 349.827 209.884 349.689 209.495 349.698Z" fill="#263238"/>
<g opacity="0.2">
<path d="M205.786 334.937H212.314L210.62 342.947H204.092L205.786 334.937Z" fill="black"/>
</g>
<path d="M198.235 261.484C198.235 261.484 247.153 266.804 246.616 292.447C246.269 308.551 243.256 324.477 237.705 339.541H228.005C228.005 339.541 228.5 323.271 228.173 297.016C228.072 289.144 212.608 286.549 197.497 285.635C191.097 285.222 184.938 282.979 179.713 279.159C174.488 275.34 170.406 270.096 167.928 264.019L166.896 261.484H198.235Z" fill="#263238"/>
<path d="M240.079 336.868C240.129 336.868 239.45 341.584 239.45 341.584H226.025L225.656 337.377L240.079 336.868Z" fill="#5B48EE"/>
<path d="M187.763 261.484C187.763 261.484 223.222 273.556 224.12 288.524C225.798 316.063 212.616 339.541 212.616 339.541H202.824C202.824 339.541 206.542 327.901 207.859 302.948C209.537 271.607 152.623 302.897 163.288 261.484H187.763Z" fill="#263238"/>
<path d="M215.578 336.868C215.629 336.868 214.345 341.584 214.345 341.584H200.92L201.163 337.377L215.578 336.868Z" fill="#5B48EE"/>
<path d="M213.338 287.886H158.799C158.799 286.189 159.455 284.562 160.622 283.362C161.79 282.162 163.373 281.488 165.024 281.488H207.112C208.763 281.488 210.347 282.162 211.514 283.362C212.682 284.562 213.338 286.189 213.338 287.886Z" fill="#5B48EE"/>
<path d="M161.324 287.877L153.101 358.717H154.863L165.293 287.877H161.324Z" fill="#5B48EE"/>
<path opacity="0.4" d="M161.324 287.877L153.101 358.717H154.863L165.293 287.877H161.324Z" fill="black"/>
<path d="M172.324 287.877L172.165 358.717H173.919L176.293 287.877H172.324Z" fill="#5B48EE"/>
<path opacity="0.4" d="M172.324 287.877L172.165 358.717H173.919L176.293 287.877H172.324Z" fill="black"/>
<path d="M210.812 287.877L219.035 358.717H217.273L206.852 287.877H210.812Z" fill="#5B48EE"/>
<path opacity="0.4" d="M210.812 287.877L219.035 358.717H217.273L206.852 287.877H210.812Z" fill="black"/>
<path d="M199.812 287.877L199.972 358.717H198.218L195.844 287.877H199.812Z" fill="#5B48EE"/>
<path opacity="0.4" d="M199.812 287.877L199.972 358.717H198.218L195.844 287.877H199.812Z" fill="black"/>
</g>
<defs>
<clipPath id="clip0_25_1285">
<rect width="419.533" height="431.108" fill="white" transform="translate(0.466797)"/>
</clipPath>
</defs>
</svg>
