<svg width="530" height="544" viewBox="0 0 530 544" fill="none" xmlns="http://www.w3.org/2000/svg">
<path d="M404.698 444.644L326.13 423.972H400.299L480.657 444.644H404.698Z" fill="#5B48EE"/>
<path d="M124.773 444.644L203.34 423.972H129.182L48.813 444.644H124.773Z" fill="#5B48EE"/>
<path d="M268.36 358.648C268.36 358.648 268.286 358.268 268.169 357.56" stroke="#2E353A" stroke-miterlimit="10"/>
<path d="M267.82 355.428C266.685 347.888 264.767 329.076 271.964 320.677C281.091 310.047 292.03 319.154 322.516 320.677C353.001 322.2 368.689 317.642 369.007 290.812C369.325 263.981 351.443 262.208 351.443 262.208H340.143" stroke="#2E353A" stroke-miterlimit="10" stroke-dasharray="2.01 2.01"/>
<path d="M339.073 262.251H338.013" stroke="#2E353A" stroke-miterlimit="10"/>
<path d="M338.013 179.835H339.073" stroke="#2E353A" stroke-miterlimit="10"/>
<path d="M341.193 179.835H379.353C379.353 179.835 390.854 180.858 390.377 194.48C389.9 208.102 370.767 220.864 371.986 248.064C373.205 275.264 418.424 271.206 424.583 298.438C430.742 325.671 385.501 324.311 381.293 338.368C379.97 341.519 379.319 344.925 379.385 348.356C379.385 352.925 379.385 363.784 379.385 368.429" stroke="#2E353A" stroke-miterlimit="10" stroke-dasharray="2 2"/>
<path d="M379.385 369.528V370.616" stroke="#2E353A" stroke-miterlimit="10"/>
<path d="M197.541 102.74H196.481" stroke="#2E353A" stroke-miterlimit="10"/>
<path d="M194.372 102.74H175.684C175.684 102.74 124.804 102.141 124.804 146.26C124.804 166.682 131.715 181.946 152.195 207.035C172.674 232.125 172.335 310.548 165.678 324.616C159.021 338.683 144.902 336.584 139.941 344.2C139.941 344.2 136.369 348.04 136.061 352.73C135.818 356.418 135.955 368.506 136.061 373.467" stroke="#2E353A" stroke-miterlimit="10" stroke-dasharray="1.99 1.99"/>
<path d="M136.009 374.609C136.009 375.295 136.009 375.697 136.009 375.697" stroke="#2E353A" stroke-miterlimit="10"/>
<path d="M181.429 129.781C177.834 129.786 174.304 130.625 171.194 132.215C171.481 130.807 171.626 129.379 171.627 127.948C171.632 121.733 169.003 115.741 164.255 111.146C159.506 106.551 152.981 103.684 145.958 103.107C138.935 102.531 131.921 104.287 126.291 108.03C120.661 111.774 116.821 117.235 115.524 123.343C112.109 122.245 108.463 121.818 104.84 122.09C101.218 122.363 97.7075 123.329 94.5533 124.921C91.3991 126.513 88.6776 128.694 86.5792 131.309C84.4807 133.924 83.0559 136.912 82.4043 140.063C81.7527 143.214 81.89 146.453 82.8067 149.552C83.7234 152.652 85.3973 155.537 87.7115 158.008C90.0256 160.478 92.9242 162.473 96.2045 163.853C99.4848 165.234 103.068 165.966 106.703 166H181.446C186.897 166 192.125 164.092 195.98 160.696C199.834 157.3 202 152.693 202 147.89C202 143.087 199.834 138.481 195.98 135.085C192.125 131.689 186.897 129.781 181.446 129.781H181.429Z" fill="white" stroke="#2E353A" stroke-miterlimit="10"/>
<path d="M435.847 219.754C432.493 219.755 429.197 220.591 426.293 222.177C426.549 220.772 426.681 219.349 426.686 217.923C426.687 211.713 424.236 205.727 419.811 201.136C415.387 196.546 409.308 193.683 402.766 193.107C396.224 192.532 389.691 194.286 384.446 198.026C379.201 201.766 375.623 207.222 374.412 213.325C371.221 212.206 367.809 211.76 364.416 212.021C361.023 212.282 357.732 213.242 354.774 214.833C351.816 216.425 349.262 218.61 347.294 221.235C345.325 223.86 343.988 226.86 343.378 230.025C342.767 233.19 342.898 236.444 343.761 239.556C344.623 242.668 346.197 245.564 348.371 248.04C350.544 250.516 353.266 252.512 356.343 253.887C359.42 255.262 362.779 255.983 366.183 256H435.847C440.927 256 445.798 254.093 449.39 250.698C452.982 247.303 455 242.699 455 237.898C455 233.096 452.982 228.492 449.39 225.097C445.798 221.702 440.927 219.795 435.847 219.795V219.754Z" fill="white" stroke="#2E353A" stroke-miterlimit="10"/>
<path d="M401.21 246.432H405.45" stroke="#2E353A" stroke-linecap="round" stroke-linejoin="round"/>
<path d="M380.54 246.432H395.38" stroke="#2E353A" stroke-linecap="round" stroke-linejoin="round"/>
<path d="M366.505 193.871C368.675 191.998 371.355 190.859 374.18 190.607" stroke="#2E353A" stroke-linecap="round" stroke-linejoin="round"/>
<path d="M361.46 201.824C361.842 200.103 362.564 198.482 363.58 197.058" stroke="#2E353A" stroke-linecap="round" stroke-linejoin="round"/>
<path d="M199.124 263.42C194.485 263.422 189.929 264.499 185.914 266.542C186.281 264.734 186.465 262.9 186.464 261.063C186.47 253.074 183.083 245.37 176.967 239.464C170.85 233.558 162.445 229.875 153.401 229.137C144.357 228.399 135.326 230.66 128.079 235.477C120.832 240.293 115.892 247.317 114.228 255.171C109.829 253.751 105.129 253.194 100.459 253.539C95.789 253.885 91.2612 255.124 87.1927 257.17C83.1243 259.216 79.6136 262.02 76.9065 265.385C74.1993 268.75 72.3613 272.595 71.521 276.65C70.6807 280.705 70.8586 284.873 72.042 288.862C73.2255 292.851 75.386 296.564 78.3722 299.741C81.3584 302.918 85.0982 305.482 89.3295 307.254C93.5609 309.026 98.1815 309.964 102.868 310H199.124C206.039 309.863 212.62 307.35 217.456 303C222.292 298.649 225 292.806 225 286.722C225 280.637 222.292 274.794 217.456 270.443C212.62 266.093 206.039 263.58 199.124 263.443V263.42Z" fill="white" stroke="#2E353A" stroke-miterlimit="10"/>
<path d="M104.781 321.199C105.847 321.926 106.963 322.573 108.12 323.136" stroke="#2E353A" stroke-linecap="round" stroke-linejoin="round"/>
<path d="M96.46 311.168C97.4752 313.646 98.9514 315.896 100.806 317.794" stroke="#2E353A" stroke-linecap="round" stroke-linejoin="round"/>
<path d="M143.45 246.976C147.853 243.866 153.133 242.336 158.47 242.624" stroke="#2E353A" stroke-linecap="round" stroke-linejoin="round"/>
<path d="M138.86 251.328C139.599 250.337 140.437 249.429 141.361 248.619" stroke="#2E353A" stroke-linecap="round" stroke-linejoin="round"/>
<path d="M363.37 152.44H356.412V169.402H363.37V152.44Z" fill="#2E353A" stroke="#2E353A" stroke-miterlimit="10"/>
<path d="M363.37 252.497H356.412V269.459H363.37V252.497Z" fill="#2E353A" stroke="#2E353A" stroke-miterlimit="10"/>
<path d="M176.217 54.3016H169.26V71.2636H176.217V54.3016Z" fill="#2E353A" stroke="#2E353A" stroke-miterlimit="10"/>
<path d="M176.217 203.11H169.26V220.072H176.217V203.11Z" fill="#2E353A" stroke="#2E353A" stroke-miterlimit="10"/>
<path d="M358.698 44.9158H175.559V81.4866H358.698V44.9158Z" fill="white" stroke="#2E353A" stroke-miterlimit="10"/>
<path d="M310.58 54.2474H184.362V72.1547H310.58V54.2474Z" fill="#5B48EE" stroke="#2E353A" stroke-miterlimit="10"/>
<path d="M327.674 66.9284C330.376 66.9284 332.566 64.9089 332.566 62.4178C332.566 59.9267 330.376 57.9072 327.674 57.9072C324.972 57.9072 322.782 59.9267 322.782 62.4178C322.782 64.9089 324.972 66.9284 327.674 66.9284Z" fill="white" stroke="#2E353A" stroke-miterlimit="10"/>
<path d="M351.74 62.4178C351.74 61.5257 351.453 60.6536 350.916 59.9119C350.378 59.1701 349.614 58.592 348.72 58.2506C347.826 57.9092 346.842 57.8199 345.893 57.9939C344.944 58.1679 344.073 58.5975 343.388 59.2283C342.704 59.8592 342.238 60.6629 342.05 61.5378C341.861 62.4128 341.958 63.3197 342.328 64.1439C342.698 64.9681 343.325 65.6726 344.13 66.1682C344.934 66.6638 345.88 66.9284 346.848 66.9284C348.145 66.9284 349.39 66.4532 350.307 65.6073C351.225 64.7614 351.74 63.6141 351.74 62.4178Z" fill="#5B48EE" stroke="#2E353A" stroke-miterlimit="10"/>
<path d="M299.125 66.9284C301.827 66.9284 304.018 64.9089 304.018 62.4178C304.018 59.9267 301.827 57.9072 299.125 57.9072C296.423 57.9072 294.233 59.9267 294.233 62.4178C294.233 64.9089 296.423 66.9284 299.125 66.9284Z" fill="white" stroke="#2E353A" stroke-miterlimit="10"/>
<path d="M351.754 81.4866H182.516V94.0055H351.754V81.4866Z" fill="#2E353A" stroke="#2E353A" stroke-miterlimit="10"/>
<path d="M358.698 94.0055H175.559V130.576H358.698V94.0055Z" fill="white" stroke="#2E353A" stroke-miterlimit="10"/>
<path d="M310.58 103.337H184.362V121.245H310.58V103.337Z" fill="#5B48EE" stroke="#2E353A" stroke-miterlimit="10"/>
<path d="M327.674 116.032C330.376 116.032 332.566 114.012 332.566 111.521C332.566 109.03 330.376 107.01 327.674 107.01C324.972 107.01 322.782 109.03 322.782 111.521C322.782 114.012 324.972 116.032 327.674 116.032Z" fill="#5B48EE" stroke="#2E353A" stroke-miterlimit="10"/>
<path d="M351.74 111.521C351.74 110.629 351.453 109.757 350.916 109.015C350.378 108.273 349.614 107.695 348.72 107.354C347.826 107.012 346.842 106.923 345.893 107.097C344.944 107.271 344.073 107.701 343.388 108.332C342.704 108.962 342.238 109.766 342.05 110.641C341.861 111.516 341.958 112.423 342.328 113.247C342.698 114.071 343.325 114.776 344.13 115.271C344.934 115.767 345.88 116.032 346.848 116.032C347.491 116.033 348.128 115.918 348.722 115.692C349.317 115.466 349.857 115.134 350.312 114.715C350.766 114.295 351.127 113.797 351.372 113.249C351.617 112.701 351.742 112.114 351.74 111.521Z" fill="white" stroke="#2E353A" stroke-miterlimit="10"/>
<path d="M299.125 116.032C301.827 116.032 304.018 114.012 304.018 111.521C304.018 109.03 301.827 107.01 299.125 107.01C296.423 107.01 294.233 109.03 294.233 111.521C294.233 114.012 296.423 116.032 299.125 116.032Z" fill="white" stroke="#2E353A" stroke-miterlimit="10"/>
<path d="M351.754 130.59H182.516V143.109H351.754V130.59Z" fill="#2E353A" stroke="#2E353A" stroke-miterlimit="10"/>
<path d="M358.698 143.109H175.559V179.679H358.698V143.109Z" fill="white" stroke="#2E353A" stroke-miterlimit="10"/>
<path d="M310.58 152.44H184.362V170.348H310.58V152.44Z" fill="#5B48EE" stroke="#2E353A" stroke-miterlimit="10"/>
<path d="M327.674 165.121C330.376 165.121 332.566 163.102 332.566 160.611C332.566 158.12 330.376 156.1 327.674 156.1C324.972 156.1 322.782 158.12 322.782 160.611C322.782 163.102 324.972 165.121 327.674 165.121Z" fill="white" stroke="#2E353A" stroke-miterlimit="10"/>
<path d="M351.74 160.611C351.74 159.719 351.453 158.847 350.916 158.105C350.378 157.363 349.614 156.785 348.72 156.444C347.826 156.102 346.842 156.013 345.893 156.187C344.944 156.361 344.073 156.791 343.388 157.421C342.704 158.052 342.238 158.856 342.05 159.731C341.861 160.606 341.958 161.513 342.328 162.337C342.698 163.161 343.325 163.866 344.13 164.361C344.934 164.857 345.88 165.121 346.848 165.121C348.145 165.121 349.39 164.646 350.307 163.8C351.225 162.954 351.74 161.807 351.74 160.611Z" fill="#5B48EE" stroke="#2E353A" stroke-miterlimit="10"/>
<path d="M299.125 165.121C301.827 165.121 304.018 163.102 304.018 160.611C304.018 158.12 301.827 156.1 299.125 156.1C296.423 156.1 294.233 158.12 294.233 160.611C294.233 163.102 296.423 165.121 299.125 165.121Z" fill="white" stroke="#2E353A" stroke-miterlimit="10"/>
<path d="M351.754 179.679H182.516V192.198H351.754V179.679Z" fill="#2E353A" stroke="#2E353A" stroke-miterlimit="10"/>
<path d="M358.698 192.198H175.559V228.769H358.698V192.198Z" fill="white" stroke="#2E353A" stroke-miterlimit="10"/>
<path d="M310.58 201.53H184.362V219.437H310.58V201.53Z" fill="#5B48EE" stroke="#2E353A" stroke-miterlimit="10"/>
<path d="M327.674 214.225C330.376 214.225 332.566 212.205 332.566 209.714C332.566 207.223 330.376 205.203 327.674 205.203C324.972 205.203 322.782 207.223 322.782 209.714C322.782 212.205 324.972 214.225 327.674 214.225Z" fill="#5B48EE" stroke="#2E353A" stroke-miterlimit="10"/>
<path d="M351.74 209.714C351.74 208.822 351.453 207.95 350.916 207.208C350.378 206.466 349.614 205.888 348.72 205.547C347.826 205.205 346.842 205.116 345.893 205.29C344.944 205.464 344.073 205.894 343.388 206.525C342.704 207.155 342.238 207.959 342.05 208.834C341.861 209.709 341.958 210.616 342.328 211.44C342.698 212.264 343.325 212.969 344.13 213.464C344.934 213.96 345.88 214.225 346.848 214.225C347.491 214.226 348.128 214.111 348.722 213.885C349.317 213.659 349.857 213.327 350.312 212.908C350.766 212.488 351.127 211.99 351.372 211.442C351.617 210.894 351.742 210.307 351.74 209.714Z" fill="white" stroke="#2E353A" stroke-miterlimit="10"/>
<path d="M299.125 214.225C301.827 214.225 304.018 212.205 304.018 209.714C304.018 207.223 301.827 205.203 299.125 205.203C296.423 205.203 294.233 207.223 294.233 209.714C294.233 212.205 296.423 214.225 299.125 214.225Z" fill="white" stroke="#2E353A" stroke-miterlimit="10"/>
<path d="M351.754 228.783H182.516V241.302H351.754V228.783Z" fill="#2E353A" stroke="#2E353A" stroke-miterlimit="10"/>
<path d="M358.698 241.302H175.559V277.872H358.698V241.302Z" fill="white" stroke="#2E353A" stroke-miterlimit="10"/>
<path d="M310.58 250.633H184.362V268.541H310.58V250.633Z" fill="#5B48EE" stroke="#2E353A" stroke-miterlimit="10"/>
<path d="M327.674 263.314C330.376 263.314 332.566 261.295 332.566 258.804C332.566 256.313 330.376 254.293 327.674 254.293C324.972 254.293 322.782 256.313 322.782 258.804C322.782 261.295 324.972 263.314 327.674 263.314Z" fill="white" stroke="#2E353A" stroke-miterlimit="10"/>
<path d="M351.74 258.804C351.74 257.912 351.453 257.039 350.916 256.298C350.378 255.556 349.614 254.978 348.72 254.636C347.826 254.295 346.842 254.206 345.893 254.38C344.944 254.554 344.073 254.983 343.388 255.614C342.704 256.245 342.238 257.049 342.05 257.924C341.861 258.799 341.958 259.706 342.328 260.53C342.698 261.354 343.325 262.058 344.13 262.554C344.934 263.05 345.88 263.314 346.848 263.314C348.145 263.314 349.39 262.839 350.307 261.993C351.225 261.147 351.74 260 351.74 258.804Z" fill="#5B48EE" stroke="#2E353A" stroke-miterlimit="10"/>
<path d="M299.125 263.314C301.827 263.314 304.018 261.295 304.018 258.804C304.018 256.313 301.827 254.293 299.125 254.293C296.423 254.293 294.233 256.313 294.233 258.804C294.233 261.295 296.423 263.314 299.125 263.314Z" fill="white" stroke="#2E353A" stroke-miterlimit="10"/>
<path d="M279.322 40H289.576" stroke="#2E353A" stroke-linecap="round" stroke-linejoin="round"/>
<path d="M208.281 40H267.604" stroke="#2E353A" stroke-linecap="round" stroke-linejoin="round"/>
<path d="M168 262.153V268.905" stroke="#2E353A" stroke-linecap="round" stroke-linejoin="round"/>
<path d="M168 241.22V255.4" stroke="#2E353A" stroke-linecap="round" stroke-linejoin="round"/>
<path d="M392.104 144.802L384.684 129.733C384.643 129.628 384.58 129.533 384.501 129.453C384.422 129.374 384.328 129.312 384.224 129.271C384.121 129.231 384.011 129.213 383.9 129.218C383.789 129.224 383.681 129.252 383.582 129.303C383.483 129.353 383.395 129.423 383.323 129.51C383.252 129.597 383.198 129.698 383.166 129.806C383.135 129.915 383.125 130.03 383.138 130.142C383.151 130.255 383.187 130.364 383.243 130.462L390.334 145.694C390.188 145.848 390.087 146.04 390.043 146.25C389.998 146.459 390.01 146.678 390.08 146.88L397.584 161.318C397.786 161.731 398.422 161.818 399.026 161.514C399.63 161.209 399.948 160.632 399.747 160.23L393.175 145.313C393.066 145.129 392.906 144.981 392.715 144.89C392.525 144.799 392.312 144.768 392.104 144.802Z" fill="#2E353A"/>
<path d="M433.19 144.802L440.663 129.733C440.755 129.538 440.918 129.389 441.116 129.318C441.315 129.246 441.533 129.259 441.723 129.352C441.909 129.45 442.051 129.618 442.12 129.82C442.189 130.023 442.18 130.245 442.094 130.44L434.992 145.672C435.141 145.824 435.243 146.018 435.284 146.229C435.326 146.44 435.305 146.659 435.225 146.858L427.72 161.296C427.519 161.709 426.872 161.796 426.279 161.492C425.685 161.187 425.357 160.61 425.547 160.208L432.13 145.291C432.241 145.113 432.401 144.971 432.589 144.884C432.777 144.797 432.986 144.769 433.19 144.802Z" fill="#2E353A"/>
<path d="M436.031 161.97H389.422L392.92 155.878H432.533L436.031 161.97Z" fill="white" stroke="#2E353A" stroke-linecap="round" stroke-linejoin="round"/>
<path d="M436.02 161.97H389.422V168.063H436.02V161.97Z" fill="white" stroke="#2E353A" stroke-linecap="round" stroke-linejoin="round"/>
<path d="M411.916 166.366H394.002C393.655 166.363 393.323 166.22 393.079 165.967C392.835 165.714 392.698 165.373 392.698 165.017C392.698 164.662 392.835 164.322 393.08 164.071C393.324 163.82 393.656 163.679 394.002 163.679H411.916C412.261 163.679 412.593 163.82 412.837 164.071C413.082 164.322 413.219 164.662 413.219 165.017C413.219 165.373 413.082 165.714 412.838 165.967C412.594 166.22 412.262 166.363 411.916 166.366Z" fill="white" stroke="#2E353A" stroke-miterlimit="10"/>
<path d="M422.76 166.029C423.392 166.029 423.904 165.503 423.904 164.854C423.904 164.205 423.392 163.679 422.76 163.679C422.127 163.679 421.615 164.205 421.615 164.854C421.615 165.503 422.127 166.029 422.76 166.029Z" fill="white" stroke="#2E353A" stroke-miterlimit="10"/>
<path d="M428.653 164.854C428.653 164.619 428.585 164.39 428.458 164.195C428.331 164 428.151 163.848 427.94 163.758C427.729 163.668 427.496 163.645 427.272 163.691C427.048 163.736 426.842 163.849 426.681 164.015C426.519 164.181 426.409 164.392 426.364 164.622C426.32 164.852 426.343 165.091 426.43 165.308C426.518 165.524 426.666 165.71 426.856 165.84C427.046 165.97 427.269 166.04 427.498 166.04C427.65 166.041 427.801 166.011 427.941 165.952C428.082 165.893 428.21 165.806 428.318 165.696C428.425 165.585 428.51 165.454 428.568 165.309C428.626 165.165 428.655 165.01 428.653 164.854Z" fill="white" stroke="#2E353A" stroke-miterlimit="10"/>
<path d="M432.246 166.029C432.879 166.029 433.391 165.503 433.391 164.854C433.391 164.205 432.879 163.679 432.246 163.679C431.614 163.679 431.102 164.205 431.102 164.854C431.102 165.503 431.614 166.029 432.246 166.029Z" fill="white" stroke="#2E353A" stroke-miterlimit="10"/>
<path d="M452.312 127.709C452.463 128.457 452.537 129.219 452.535 129.983C452.535 130.081 452.535 130.168 452.535 130.266" stroke="#2E353A" stroke-width="0.5" stroke-linecap="round" stroke-linejoin="round"/>
<path d="M435.479 120.529C436.848 119.604 438.4 119.005 440.022 118.775C441.645 118.545 443.297 118.689 444.858 119.198C446.42 119.707 447.85 120.567 449.046 121.716C450.242 122.865 451.174 124.273 451.772 125.838" stroke="#2E353A" stroke-width="0.5" stroke-linecap="round" stroke-linejoin="round"/>
<path d="M438.554 122.172C437.963 122.408 437.401 122.715 436.879 123.085" stroke="#2E353A" stroke-width="0.5" stroke-linecap="round" stroke-linejoin="round"/>
<path d="M449.673 130.19C449.679 130.121 449.679 130.052 449.673 129.983C449.673 127.759 448.812 125.625 447.279 124.052C445.747 122.479 443.668 121.595 441.501 121.595C441.074 121.592 440.649 121.629 440.229 121.704" stroke="#2E353A" stroke-width="0.5" stroke-linecap="round" stroke-linejoin="round"/>
<path d="M447.023 130.125V129.983C447.023 128.483 446.442 127.044 445.409 125.983C444.375 124.922 442.973 124.326 441.511 124.326C440.307 124.325 439.136 124.734 438.183 125.49" stroke="#2E353A" stroke-width="0.5" stroke-linecap="round" stroke-linejoin="round"/>
<path d="M440.355 127.1C440.004 127.25 439.684 127.468 439.412 127.742" stroke="#2E353A" stroke-width="0.5" stroke-linecap="round" stroke-linejoin="round"/>
<path d="M444.553 130.059V129.983C444.553 129.155 444.232 128.361 443.662 127.775C443.091 127.19 442.318 126.861 441.511 126.861" stroke="#2E353A" stroke-width="0.5" stroke-linecap="round" stroke-linejoin="round"/>
<path d="M373.035 128.384C372.959 128.921 372.92 129.463 372.918 130.005C372.918 130.103 372.918 130.19 372.918 130.288" stroke="#2E353A" stroke-width="0.5" stroke-linecap="round" stroke-linejoin="round"/>
<path d="M386.137 118.897C385.415 118.743 384.679 118.666 383.942 118.668C381.634 118.667 379.383 119.41 377.508 120.792C375.633 122.174 374.228 124.126 373.491 126.371" stroke="#2E353A" stroke-width="0.5" stroke-linecap="round" stroke-linejoin="round"/>
<path d="M389.974 120.529C389.274 120.055 388.523 119.664 387.737 119.364" stroke="#2E353A" stroke-width="0.5" stroke-linecap="round" stroke-linejoin="round"/>
<path d="M383.285 121.627C383.497 121.627 383.72 121.627 383.942 121.627C385.601 121.629 387.221 122.149 388.585 123.118" stroke="#2E353A" stroke-width="0.5" stroke-linecap="round" stroke-linejoin="round"/>
<path d="M375.78 130.19C375.78 130.125 375.78 130.06 375.78 129.983C375.781 128.335 376.255 126.723 377.143 125.349C378.03 123.975 379.293 122.9 380.773 122.259" stroke="#2E353A" stroke-width="0.5" stroke-linecap="round" stroke-linejoin="round"/>
<path d="M378.42 130.125V129.983C378.42 128.483 379.001 127.044 380.034 125.983C381.068 124.922 382.47 124.326 383.932 124.326C385.136 124.325 386.307 124.734 387.26 125.49" stroke="#2E353A" stroke-width="0.5" stroke-linecap="round" stroke-linejoin="round"/>
<path d="M380.911 130.059C380.905 130.034 380.905 130.008 380.911 129.983C380.907 129.369 381.081 128.768 381.41 128.255C381.739 127.742 382.208 127.341 382.759 127.101C383.31 126.862 383.917 126.795 384.505 126.909C385.093 127.023 385.635 127.313 386.062 127.742" stroke="#2E353A" stroke-width="0.5" stroke-linecap="round" stroke-linejoin="round"/>
<path d="M245.528 329.033L238.108 313.964C238.016 313.77 237.853 313.62 237.654 313.549C237.456 313.477 237.237 313.49 237.048 313.583C236.862 313.681 236.72 313.849 236.651 314.051C236.582 314.254 236.591 314.476 236.677 314.671L243.779 329.903C243.632 330.054 243.531 330.246 243.49 330.455C243.449 330.664 243.468 330.881 243.545 331.078L251.05 345.527C251.252 345.93 251.898 346.017 252.492 345.723C253.085 345.429 253.414 344.842 253.223 344.428L246.641 329.512C246.519 329.331 246.349 329.191 246.152 329.106C245.955 329.021 245.738 328.996 245.528 329.033Z" fill="#2E353A"/>
<path d="M286.624 329.033L294.044 313.964C294.085 313.859 294.148 313.764 294.227 313.684C294.306 313.605 294.4 313.543 294.503 313.503C294.607 313.462 294.717 313.444 294.828 313.449C294.938 313.455 295.047 313.483 295.146 313.534C295.245 313.584 295.333 313.654 295.405 313.741C295.476 313.828 295.53 313.929 295.561 314.038C295.593 314.146 295.603 314.261 295.59 314.373C295.577 314.486 295.541 314.595 295.485 314.693L288.394 329.925C288.539 330.077 288.637 330.27 288.677 330.478C288.716 330.687 288.695 330.903 288.616 331.1L281.112 345.549C280.91 345.951 280.274 346.038 279.67 345.745C279.066 345.451 278.748 344.863 278.939 344.45L285.521 329.533C285.64 329.351 285.806 329.207 286.001 329.119C286.197 329.03 286.412 329 286.624 329.033Z" fill="#2E353A"/>
<path d="M289.454 346.202H242.856L246.344 340.12H285.956L289.454 346.202Z" fill="white" stroke="#2E353A" stroke-linecap="round" stroke-linejoin="round"/>
<path d="M289.454 346.202H242.856V352.294H289.454V346.202Z" fill="white" stroke="#2E353A" stroke-linecap="round" stroke-linejoin="round"/>
<path d="M265.349 347.91H247.425C246.705 347.91 246.121 348.509 246.121 349.248V349.259C246.121 349.998 246.705 350.597 247.425 350.597H265.349C266.07 350.597 266.653 349.998 266.653 349.259V349.248C266.653 348.509 266.07 347.91 265.349 347.91Z" fill="white" stroke="#2E353A" stroke-miterlimit="10"/>
<path d="M276.183 350.271C276.815 350.271 277.328 349.745 277.328 349.096C277.328 348.447 276.815 347.921 276.183 347.921C275.551 347.921 275.038 348.447 275.038 349.096C275.038 349.745 275.551 350.271 276.183 350.271Z" fill="white" stroke="#2E353A" stroke-miterlimit="10"/>
<path d="M282.076 349.096C282.078 348.86 282.012 348.629 281.886 348.433C281.76 348.236 281.58 348.082 281.368 347.991C281.157 347.9 280.923 347.876 280.698 347.921C280.473 347.967 280.266 348.08 280.104 348.246C279.942 348.413 279.832 348.625 279.787 348.856C279.743 349.087 279.767 349.327 279.856 349.544C279.944 349.761 280.094 349.946 280.286 350.075C280.477 350.205 280.702 350.273 280.932 350.271C281.235 350.271 281.526 350.147 281.741 349.927C281.956 349.706 282.076 349.407 282.076 349.096Z" fill="white" stroke="#2E353A" stroke-miterlimit="10"/>
<path d="M285.67 350.271C286.302 350.271 286.814 349.745 286.814 349.096C286.814 348.447 286.302 347.921 285.67 347.921C285.037 347.921 284.525 348.447 284.525 349.096C284.525 349.745 285.037 350.271 285.67 350.271Z" fill="white" stroke="#2E353A" stroke-miterlimit="10"/>
<path d="M300.446 304.411C302.122 305.403 303.515 306.83 304.484 308.549C305.453 310.268 305.965 312.218 305.969 314.203C305.969 314.301 305.969 314.388 305.969 314.486" stroke="#2E353A" stroke-width="0.5" stroke-linecap="round" stroke-linejoin="round"/>
<path d="M288.903 304.76C290.698 303.551 292.798 302.908 294.945 302.91C296.161 302.905 297.368 303.111 298.517 303.519" stroke="#2E353A" stroke-width="0.5" stroke-linecap="round" stroke-linejoin="round"/>
<path d="M293.514 305.956C292.373 306.176 291.289 306.64 290.334 307.316" stroke="#2E353A" stroke-width="0.5" stroke-linecap="round" stroke-linejoin="round"/>
<path d="M303.16 314.432C303.16 314.367 303.16 314.301 303.16 314.225C303.157 312.145 302.402 310.139 301.041 308.598C299.68 307.056 297.81 306.088 295.793 305.88" stroke="#2E353A" stroke-width="0.5" stroke-linecap="round" stroke-linejoin="round"/>
<path d="M298.92 310.287C298.408 309.741 297.794 309.307 297.114 309.011C296.435 308.716 295.704 308.565 294.966 308.568C293.76 308.568 292.588 308.973 291.627 309.721" stroke="#2E353A" stroke-width="0.5" stroke-linecap="round" stroke-linejoin="round"/>
<path d="M300.446 314.356C300.446 314.356 300.446 314.269 300.446 314.214C300.442 313.467 300.294 312.727 300.012 312.038" stroke="#2E353A" stroke-width="0.5" stroke-linecap="round" stroke-linejoin="round"/>
<path d="M294.203 311.168C293.688 311.303 293.217 311.573 292.835 311.951" stroke="#2E353A" stroke-width="0.5" stroke-linecap="round" stroke-linejoin="round"/>
<path d="M297.976 314.291C297.976 314.291 297.976 314.291 297.976 314.214C297.986 313.524 297.771 312.85 297.366 312.298C296.961 311.747 296.389 311.349 295.74 311.168" stroke="#2E353A" stroke-width="0.5" stroke-linecap="round" stroke-linejoin="round"/>
<path d="M226.5 312.321C226.394 312.946 226.34 313.58 226.341 314.214C226.341 314.312 226.341 314.399 226.341 314.497" stroke="#2E353A" stroke-width="0.5" stroke-linecap="round" stroke-linejoin="round"/>
<path d="M233.02 303.813C231.664 304.417 230.439 305.291 229.416 306.386C228.394 307.481 227.593 308.773 227.062 310.189" stroke="#2E353A" stroke-width="0.5" stroke-linecap="round" stroke-linejoin="round"/>
<path d="M243.397 304.76C241.606 303.552 239.509 302.909 237.366 302.91C236.622 302.908 235.879 302.984 235.15 303.139" stroke="#2E353A" stroke-width="0.5" stroke-linecap="round" stroke-linejoin="round"/>
<path d="M231.196 308.72C232.516 307.164 234.348 306.161 236.342 305.902C238.336 305.643 240.353 306.147 242.008 307.316" stroke="#2E353A" stroke-width="0.5" stroke-linecap="round" stroke-linejoin="round"/>
<path d="M229.204 314.432C229.204 314.367 229.204 314.301 229.204 314.225C229.204 312.984 229.472 311.758 229.988 310.635" stroke="#2E353A" stroke-width="0.5" stroke-linecap="round" stroke-linejoin="round"/>
<path d="M233.422 310.265C234.362 309.281 235.619 308.683 236.958 308.583C238.297 308.482 239.625 308.887 240.694 309.721" stroke="#2E353A" stroke-width="0.5" stroke-linecap="round" stroke-linejoin="round"/>
<path d="M231.864 314.356C231.864 314.356 231.864 314.269 231.864 314.214C231.862 313.37 232.047 312.537 232.405 311.777" stroke="#2E353A" stroke-width="0.5" stroke-linecap="round" stroke-linejoin="round"/>
<path d="M235.373 311.853C235.95 311.349 236.688 311.082 237.446 311.104C238.204 311.126 238.927 311.436 239.475 311.973" stroke="#2E353A" stroke-width="0.5" stroke-linecap="round" stroke-linejoin="round"/>
<path d="M234.334 314.291C234.334 314.291 234.334 314.291 234.334 314.214C234.334 313.702 234.458 313.197 234.694 312.746" stroke="#2E353A" stroke-width="0.5" stroke-linecap="round" stroke-linejoin="round"/>
<path d="M73.4788 237.282L66.0588 222.213C66.0171 222.108 65.9548 222.012 65.8757 221.933C65.7966 221.854 65.7023 221.792 65.5989 221.751C65.4955 221.711 65.3851 221.693 65.2745 221.698C65.164 221.704 65.0557 221.732 64.9564 221.783C64.8571 221.833 64.769 221.903 64.6975 221.99C64.626 222.077 64.5727 222.178 64.5409 222.286C64.509 222.395 64.4994 222.51 64.5125 222.622C64.5257 222.735 64.5613 222.844 64.6172 222.942L71.7086 238.174C71.5611 238.327 71.4581 238.519 71.4113 238.728C71.3645 238.938 71.3757 239.157 71.4436 239.36L78.9484 253.809C79.1498 254.211 79.7858 254.298 80.39 253.994C80.9942 253.689 81.3122 253.123 81.1108 252.71L74.5388 237.793C74.425 237.616 74.2658 237.475 74.0788 237.385C73.8918 237.294 73.6842 237.259 73.4788 237.282Z" fill="#2E353A"/>
<path d="M114.565 237.282L121.985 222.213C122.076 222.019 122.239 221.869 122.438 221.798C122.637 221.726 122.855 221.739 123.045 221.832C123.23 221.931 123.372 222.098 123.441 222.3C123.51 222.503 123.501 222.725 123.416 222.92L116.314 238.152C116.476 238.3 116.59 238.494 116.641 238.71C116.692 238.926 116.678 239.153 116.6 239.36L109.095 253.809C108.894 254.211 108.247 254.298 107.653 253.994C107.06 253.689 106.731 253.123 106.922 252.71L113.505 237.793C113.617 237.615 113.776 237.473 113.964 237.383C114.151 237.293 114.359 237.258 114.565 237.282Z" fill="#2E353A"/>
<path d="M117.405 254.45H70.8076L74.295 248.358H113.907L117.405 254.45Z" fill="white" stroke="#2E353A" stroke-linecap="round" stroke-linejoin="round"/>
<path d="M117.395 254.451H70.7974V260.543H117.395V254.451Z" fill="white" stroke="#2E353A" stroke-linecap="round" stroke-linejoin="round"/>
<path d="M93.28 258.846H75.3766C75.0298 258.843 74.6982 258.7 74.454 258.447C74.2098 258.194 74.0727 257.853 74.0728 257.497C74.0728 257.142 74.2101 256.802 74.4546 256.551C74.6991 256.3 75.0308 256.159 75.3766 256.159H93.28C93.6257 256.159 93.9574 256.3 94.2019 256.551C94.4464 256.802 94.5838 257.142 94.5838 257.497C94.5838 257.853 94.4467 258.194 94.2025 258.447C93.9583 258.7 93.6267 258.843 93.28 258.846Z" fill="white" stroke="#2E353A" stroke-miterlimit="10"/>
<path d="M104.134 258.509C104.766 258.509 105.279 257.983 105.279 257.334C105.279 256.685 104.766 256.159 104.134 256.159C103.502 256.159 102.989 256.685 102.989 257.334C102.989 257.983 103.502 258.509 104.134 258.509Z" fill="white" stroke="#2E353A" stroke-miterlimit="10"/>
<path d="M108.872 258.509C109.505 258.509 110.017 257.983 110.017 257.334C110.017 256.685 109.505 256.159 108.872 256.159C108.24 256.159 107.728 256.685 107.728 257.334C107.728 257.983 108.24 258.509 108.872 258.509Z" fill="white" stroke="#2E353A" stroke-miterlimit="10"/>
<path d="M114.766 257.334C114.766 257.099 114.698 256.869 114.57 256.674C114.443 256.478 114.262 256.326 114.05 256.237C113.838 256.148 113.606 256.125 113.381 256.171C113.157 256.218 112.951 256.332 112.79 256.499C112.629 256.666 112.519 256.878 112.476 257.109C112.433 257.34 112.457 257.579 112.546 257.795C112.635 258.012 112.785 258.196 112.976 258.325C113.168 258.454 113.392 258.522 113.621 258.52C113.772 258.52 113.922 258.489 114.062 258.429C114.201 258.369 114.328 258.282 114.434 258.172C114.541 258.061 114.625 257.931 114.682 257.787C114.739 257.643 114.767 257.489 114.766 257.334Z" fill="white" stroke="#2E353A" stroke-miterlimit="10"/>
<path d="M133.305 218.753C133.706 219.947 133.91 221.201 133.909 222.463C133.909 222.561 133.909 222.648 133.909 222.746" stroke="#2E353A" stroke-width="0.5" stroke-linecap="round" stroke-linejoin="round"/>
<path d="M125.08 211.366C126.767 211.716 128.351 212.464 129.707 213.552C131.063 214.64 132.153 216.037 132.892 217.633" stroke="#2E353A" stroke-width="0.5" stroke-linecap="round" stroke-linejoin="round"/>
<path d="M116.854 213.009C118.325 212.013 120.009 211.397 121.762 211.213" stroke="#2E353A" stroke-width="0.5" stroke-linecap="round" stroke-linejoin="round"/>
<path d="M129.034 216.936C127.715 215.388 125.887 214.392 123.898 214.139C121.91 213.886 119.9 214.394 118.253 215.565" stroke="#2E353A" stroke-width="0.5" stroke-linecap="round" stroke-linejoin="round"/>
<path d="M131.047 222.67C131.053 222.601 131.053 222.532 131.047 222.463C131.049 221.12 130.736 219.795 130.136 218.601" stroke="#2E353A" stroke-width="0.5" stroke-linecap="round" stroke-linejoin="round"/>
<path d="M121.751 216.936C120.95 217.125 120.2 217.497 119.557 218.024" stroke="#2E353A" stroke-width="0.5" stroke-linecap="round" stroke-linejoin="round"/>
<path d="M128.398 222.605V222.463C128.398 221.177 127.971 219.929 127.186 218.926C126.402 217.923 125.307 217.225 124.083 216.947" stroke="#2E353A" stroke-width="0.5" stroke-linecap="round" stroke-linejoin="round"/>
<path d="M125.281 220.538C125.02 220.193 124.691 219.909 124.316 219.704C123.94 219.499 123.527 219.378 123.103 219.348C122.678 219.318 122.253 219.38 121.854 219.531C121.455 219.682 121.091 219.917 120.787 220.222" stroke="#2E353A" stroke-width="0.5" stroke-linecap="round" stroke-linejoin="round"/>
<path d="M125.928 222.539V222.463C125.93 222.158 125.887 221.853 125.801 221.56" stroke="#2E353A" stroke-width="0.5" stroke-linecap="round" stroke-linejoin="round"/>
<path d="M63.3878 211.322C60.8385 211.787 58.53 213.159 56.8671 215.196C55.2041 217.233 54.2928 219.806 54.293 222.463C54.293 222.561 54.293 222.648 54.293 222.746" stroke="#2E353A" stroke-width="0.5" stroke-linecap="round" stroke-linejoin="round"/>
<path d="M71.3483 213.009C69.7638 211.942 67.9386 211.313 66.0483 211.181" stroke="#2E353A" stroke-width="0.5" stroke-linecap="round" stroke-linejoin="round"/>
<path d="M67.1191 214.336C68.1321 214.562 69.0954 214.978 69.9599 215.565" stroke="#2E353A" stroke-width="0.5" stroke-linecap="round" stroke-linejoin="round"/>
<path d="M57.1548 222.67C57.1548 222.605 57.1548 222.539 57.1548 222.463C57.1548 220.239 58.0158 218.105 59.5485 216.532C61.0811 214.959 63.1599 214.075 65.3274 214.075" stroke="#2E353A" stroke-width="0.5" stroke-linecap="round" stroke-linejoin="round"/>
<path d="M61.0664 218.873C61.9677 217.741 63.2629 217.014 64.6777 216.845C66.0924 216.677 67.5154 217.08 68.6454 217.97" stroke="#2E353A" stroke-width="0.5" stroke-linecap="round" stroke-linejoin="round"/>
<path d="M59.8052 222.605V222.463C59.8048 221.715 59.9527 220.975 60.2398 220.287" stroke="#2E353A" stroke-width="0.5" stroke-linecap="round" stroke-linejoin="round"/>
<path d="M65.8574 219.395C66.4482 219.506 66.9939 219.794 67.4262 220.222" stroke="#2E353A" stroke-width="0.5" stroke-linecap="round" stroke-linejoin="round"/>
<path d="M62.2852 222.539C62.2852 222.539 62.2852 222.539 62.2852 222.463C62.2876 221.725 62.5442 221.011 63.0097 220.447C63.4751 219.884 64.1196 219.507 64.8292 219.384" stroke="#2E353A" stroke-width="0.5" stroke-linecap="round" stroke-linejoin="round"/>
<path d="M315.943 358.648H221.487V425.071H315.943V358.648Z" fill="#2E353A" stroke="#2E353A" stroke-miterlimit="10"/>
<path d="M330.116 454.436H207.325L221.487 425.071H315.943L330.116 454.436Z" fill="white" stroke="#2E353A" stroke-linecap="round" stroke-linejoin="round"/>
<path d="M310.22 363.903H227.211V419.816H310.22V363.903Z" fill="white" stroke="#2E353A" stroke-miterlimit="10"/>
<path d="M281.154 386.49L268.742 371.421L256.329 386.49H261.523V410.089H275.96V386.49H281.154Z" fill="#5B48EE"/>
<path d="M264.777 434.373L264.936 430.794H259.954L259.615 434.373H264.777Z" fill="white" stroke="#2E353A" stroke-miterlimit="10"/>
<path d="M275.091 434.373L274.922 430.794H269.929L269.94 434.373H275.091Z" fill="white" stroke="#2E353A" stroke-miterlimit="10"/>
<path d="M301.951 438.192H307.294L306.032 434.373H300.881L301.951 438.192Z" fill="white" stroke="#2E353A" stroke-miterlimit="10"/>
<path d="M259.615 434.373L259.955 430.794H254.962L254.464 434.373H259.615Z" fill="white" stroke="#2E353A" stroke-miterlimit="10"/>
<path d="M249.302 434.373L249.969 430.794H244.977L244.15 434.373H249.302Z" fill="white" stroke="#2E353A" stroke-miterlimit="10"/>
<path d="M295.719 434.373L294.881 430.794H289.889L290.567 434.373H295.719Z" fill="white" stroke="#2E353A" stroke-miterlimit="10"/>
<path d="M300.881 434.373L299.874 430.794H294.881L295.719 434.373H300.881Z" fill="white" stroke="#2E353A" stroke-miterlimit="10"/>
<path d="M244.15 434.373L244.977 430.794H239.984L238.988 434.373H244.15Z" fill="white" stroke="#2E353A" stroke-miterlimit="10"/>
<path d="M280.253 434.373L279.914 430.794H274.921L275.091 434.373H280.253Z" fill="white" stroke="#2E353A" stroke-miterlimit="10"/>
<path d="M306.033 434.373L304.867 430.794H299.874L300.881 434.373H306.033Z" fill="white" stroke="#2E353A" stroke-miterlimit="10"/>
<path d="M290.567 434.373L289.889 430.794H284.907L285.405 434.373H290.567Z" fill="white" stroke="#2E353A" stroke-miterlimit="10"/>
<path d="M285.405 434.373L284.907 430.794H279.914L280.253 434.373H285.405Z" fill="white" stroke="#2E353A" stroke-miterlimit="10"/>
<path d="M269.94 434.373L269.929 430.794H264.936L264.777 434.373H269.94Z" fill="white" stroke="#2E353A" stroke-miterlimit="10"/>
<path d="M233.836 434.373H228.674L227.253 438.192H232.585L233.836 434.373Z" fill="white" stroke="#2E353A" stroke-miterlimit="10"/>
<path d="M234.991 430.794H230.009L228.674 434.373H233.836L234.991 430.794Z" fill="white" stroke="#2E353A" stroke-miterlimit="10"/>
<path d="M238.988 434.373L239.984 430.794H234.991L233.836 434.373H238.988Z" fill="white" stroke="#2E353A" stroke-miterlimit="10"/>
<path d="M225.727 442.294L224.084 446.7H229.819L231.25 442.294H225.727Z" fill="white" stroke="#2E353A" stroke-miterlimit="10"/>
<path d="M232.585 438.192H227.253L225.727 442.294H231.25L232.585 438.192Z" fill="white" stroke="#2E353A" stroke-miterlimit="10"/>
<path d="M231.25 442.294L229.819 446.7H235.553L236.783 442.294H231.25Z" fill="white" stroke="#2E353A" stroke-miterlimit="10"/>
<path d="M254.463 434.373L254.962 430.794H249.969L249.301 434.373H254.463Z" fill="white" stroke="#2E353A" stroke-miterlimit="10"/>
<path d="M253.934 438.192L254.464 434.373H249.302L248.591 438.192H253.934Z" fill="white" stroke="#2E353A" stroke-miterlimit="10"/>
<path d="M248.591 438.192L249.301 434.373H244.15L243.259 438.192H248.591Z" fill="white" stroke="#2E353A" stroke-miterlimit="10"/>
<path d="M259.265 438.192L259.615 434.373H254.464L253.934 438.192H259.265Z" fill="white" stroke="#2E353A" stroke-miterlimit="10"/>
<path d="M238.987 434.373H233.836L232.585 438.192H237.927L238.987 434.373Z" fill="white" stroke="#2E353A" stroke-miterlimit="10"/>
<path d="M303.107 442.294H308.63L307.294 438.192H301.952L303.107 442.294Z" fill="white" stroke="#2E353A" stroke-miterlimit="10"/>
<path d="M243.26 438.192L244.15 434.373H238.988L237.928 438.192H243.26Z" fill="white" stroke="#2E353A" stroke-miterlimit="10"/>
<path d="M232.585 438.192L231.25 442.294H236.783L237.928 438.192H232.585Z" fill="white" stroke="#2E353A" stroke-miterlimit="10"/>
<path d="M291.278 438.192L290.567 434.373H285.405L285.946 438.192H291.278Z" fill="white" stroke="#2E353A" stroke-miterlimit="10"/>
<path d="M285.946 438.192L285.405 434.373H280.253L280.614 438.192H285.946Z" fill="white" stroke="#2E353A" stroke-miterlimit="10"/>
<path d="M301.952 438.192L300.881 434.373H295.719L296.62 438.192H301.952Z" fill="white" stroke="#2E353A" stroke-miterlimit="10"/>
<path d="M269.94 438.192V434.373H264.777L264.597 438.192H269.94Z" fill="white" stroke="#2E353A" stroke-miterlimit="10"/>
<path d="M280.614 438.192L280.254 434.373H275.091L275.272 438.192H280.614Z" fill="white" stroke="#2E353A" stroke-miterlimit="10"/>
<path d="M275.271 438.192L275.091 434.373H269.939V438.192H275.271Z" fill="white" stroke="#2E353A" stroke-miterlimit="10"/>
<path d="M264.597 438.192L264.778 434.373H259.615L259.266 438.192H264.597Z" fill="white" stroke="#2E353A" stroke-miterlimit="10"/>
<path d="M280.614 438.192L280.995 442.294H286.529L285.946 438.192H280.614Z" fill="white" stroke="#2E353A" stroke-miterlimit="10"/>
<path d="M285.946 438.192L286.529 442.294H292.051L291.278 438.192H285.946Z" fill="white" stroke="#2E353A" stroke-miterlimit="10"/>
<path d="M237.928 438.192L236.783 442.294H242.305L243.259 438.192H237.928Z" fill="white" stroke="#2E353A" stroke-miterlimit="10"/>
<path d="M291.277 438.192L292.051 442.294H297.574L296.62 438.192H291.277Z" fill="white" stroke="#2E353A" stroke-miterlimit="10"/>
<path d="M269.939 438.192V442.294H275.473L275.271 438.192H269.939Z" fill="white" stroke="#2E353A" stroke-miterlimit="10"/>
<path d="M296.62 438.192L297.574 442.294H303.107L301.951 438.192H296.62Z" fill="white" stroke="#2E353A" stroke-miterlimit="10"/>
<path d="M275.271 438.192L275.473 442.294H280.995L280.614 438.192H275.271Z" fill="white" stroke="#2E353A" stroke-miterlimit="10"/>
<path d="M248.591 438.192L247.828 442.294H253.361L253.934 438.192H248.591Z" fill="white" stroke="#2E353A" stroke-miterlimit="10"/>
<path d="M243.26 438.192L242.306 442.294H247.828L248.591 438.192H243.26Z" fill="white" stroke="#2E353A" stroke-miterlimit="10"/>
<path d="M264.597 438.192L264.417 442.294H269.94V438.192H264.597Z" fill="white" stroke="#2E353A" stroke-miterlimit="10"/>
<path d="M259.265 438.192L258.884 442.294H264.417L264.597 438.192H259.265Z" fill="white" stroke="#2E353A" stroke-miterlimit="10"/>
<path d="M253.934 438.192L253.361 442.294H258.884L259.266 438.192H253.934Z" fill="white" stroke="#2E353A" stroke-miterlimit="10"/>
<path d="M296.62 438.192L295.719 434.373H290.567L291.278 438.192H296.62Z" fill="white" stroke="#2E353A" stroke-miterlimit="10"/>
<path d="M234.991 430.794L236.189 427.127H231.366L230.009 430.794H234.991Z" fill="white" stroke="#2E353A" stroke-miterlimit="10"/>
<path d="M230.01 430.794H225.399L223.915 434.373H228.674L230.01 430.794Z" fill="white" stroke="#2E353A" stroke-miterlimit="10"/>
<path d="M231.366 427.127H226.925L225.398 430.794H230.009L231.366 427.127Z" fill="white" stroke="#2E353A" stroke-miterlimit="10"/>
<path d="M228.674 434.373H223.914L222.324 438.192H227.253L228.674 434.373Z" fill="white" stroke="#2E353A" stroke-miterlimit="10"/>
<path d="M227.253 438.192H222.324L220.618 442.294H225.727L227.253 438.192Z" fill="white" stroke="#2E353A" stroke-miterlimit="10"/>
<path d="M225.727 442.294H220.618L218.794 446.7H224.084L225.727 442.294Z" fill="white" stroke="#2E353A" stroke-miterlimit="10"/>
<path d="M311.195 434.373L312.626 438.192H317.343L315.753 434.373H311.195Z" fill="white" stroke="#2E353A" stroke-miterlimit="10"/>
<path d="M314.163 442.294H319.05L317.343 438.192H312.626L314.163 442.294Z" fill="white" stroke="#2E353A" stroke-miterlimit="10"/>
<path d="M315.806 446.7H320.872L319.049 442.294H314.163L315.806 446.7Z" fill="white" stroke="#2E353A" stroke-miterlimit="10"/>
<path d="M274.922 430.794L274.752 427.127H269.929V430.794H274.922Z" fill="white" stroke="#2E353A" stroke-miterlimit="10"/>
<path d="M311.195 434.373H315.753L314.269 430.794H309.859L311.195 434.373Z" fill="white" stroke="#2E353A" stroke-miterlimit="10"/>
<path d="M308.63 442.294H314.163L312.626 438.192H307.294L308.63 442.294Z" fill="white" stroke="#2E353A" stroke-miterlimit="10"/>
<path d="M239.984 430.794L241.012 427.127H236.189L234.991 430.794H239.984Z" fill="white" stroke="#2E353A" stroke-miterlimit="10"/>
<path d="M304.867 430.794L306.033 434.373H311.195L309.859 430.794H304.867Z" fill="white" stroke="#2E353A" stroke-miterlimit="10"/>
<path d="M314.269 430.794L312.753 427.127H308.481L309.859 430.794H314.269Z" fill="white" stroke="#2E353A" stroke-miterlimit="10"/>
<path d="M309.859 430.794L308.481 427.127H303.669L304.867 430.794H309.859Z" fill="white" stroke="#2E353A" stroke-miterlimit="10"/>
<path d="M292.051 442.294L292.878 446.7H298.613L297.574 442.294H292.051Z" fill="white" stroke="#2E353A" stroke-miterlimit="10"/>
<path d="M310.071 446.7H315.806L314.163 442.294H308.63L310.071 446.7Z" fill="white" stroke="#2E353A" stroke-miterlimit="10"/>
<path d="M304.866 430.794L303.669 427.127H298.846L299.874 430.794H304.866Z" fill="white" stroke="#2E353A" stroke-miterlimit="10"/>
<path d="M303.107 442.294L304.337 446.7H310.071L308.63 442.294H303.107Z" fill="white" stroke="#2E353A" stroke-miterlimit="10"/>
<path d="M297.574 442.294L298.613 446.7H304.337L303.107 442.294H297.574Z" fill="white" stroke="#2E353A" stroke-miterlimit="10"/>
<path d="M307.294 438.192H312.626L311.195 434.373H306.033L307.294 438.192Z" fill="white" stroke="#2E353A" stroke-miterlimit="10"/>
<path d="M259.955 430.794L260.294 427.127H255.471L254.962 430.794H259.955Z" fill="white" stroke="#2E353A" stroke-miterlimit="10"/>
<path d="M299.874 430.794L298.846 427.127H294.023L294.882 430.794H299.874Z" fill="white" stroke="#2E353A" stroke-miterlimit="10"/>
<path d="M254.962 430.794L255.471 427.127H250.648L249.969 430.794H254.962Z" fill="white" stroke="#2E353A" stroke-miterlimit="10"/>
<path d="M269.929 430.794V427.127H265.106L264.937 430.794H269.929Z" fill="white" stroke="#2E353A" stroke-miterlimit="10"/>
<path d="M249.969 430.794L250.648 427.127H245.825L244.977 430.794H249.969Z" fill="white" stroke="#2E353A" stroke-miterlimit="10"/>
<path d="M244.976 430.794L245.824 427.127H241.012L239.984 430.794H244.976Z" fill="white" stroke="#2E353A" stroke-miterlimit="10"/>
<path d="M264.937 430.794L265.106 427.127H260.294L259.955 430.794H264.937Z" fill="white" stroke="#2E353A" stroke-miterlimit="10"/>
<path d="M294.881 430.794L294.023 427.127H289.21L289.889 430.794H294.881Z" fill="white" stroke="#2E353A" stroke-miterlimit="10"/>
<path d="M289.889 430.794L289.21 427.127H284.387L284.907 430.794H289.889Z" fill="white" stroke="#2E353A" stroke-miterlimit="10"/>
<path d="M279.914 430.794L279.564 427.127H274.752L274.922 430.794H279.914Z" fill="white" stroke="#2E353A" stroke-miterlimit="10"/>
<path d="M292.051 442.294H286.529H280.995H275.473H269.94H264.417H258.884H253.361H247.828H242.305H236.783L235.553 446.7H241.288H247.012H252.746H258.481H264.216H269.94H275.674H281.409H287.143H292.878L292.051 442.294Z" fill="white" stroke="#2E353A" stroke-miterlimit="10"/>
<path d="M284.907 430.794L284.387 427.127H279.564L279.914 430.794H284.907Z" fill="white" stroke="#2E353A" stroke-miterlimit="10"/>
<path d="M330.169 454.436H207.325V456.22H330.169V454.436Z" fill="#2E353A" stroke="#2E353A" stroke-miterlimit="10"/>
<path d="M350.701 358.648H422.781V425.071H350.701C350.246 425.071 349.809 424.885 349.487 424.554C349.165 424.224 348.984 423.776 348.984 423.308V360.422C348.983 360.189 349.026 359.959 349.112 359.744C349.197 359.529 349.323 359.333 349.483 359.168C349.643 359.004 349.832 358.873 350.041 358.783C350.251 358.694 350.475 358.648 350.701 358.648Z" fill="white" stroke="#2E353A" stroke-linecap="round" stroke-linejoin="round"/>
<path d="M425.262 358.648H350.924V425.071H425.262V358.648Z" fill="#2E353A" stroke="#2E353A" stroke-miterlimit="10"/>
<path d="M421.201 363.903H356.647V419.816H421.201V363.903Z" fill="white" stroke="#2E353A" stroke-linecap="round" stroke-linejoin="round"/>
<path d="M378.696 386.49L388.321 371.421L397.945 386.49H393.917V410.089H382.724V386.49H378.696Z" fill="#5B48EE"/>
<path d="M350.924 425.071L407.273 441.793H483.244L425.262 425.071H350.924Z" fill="white" stroke="#2E353A" stroke-linecap="round" stroke-linejoin="round"/>
<path d="M411.1 431.686L404.051 429.629L400.966 429.597L407.994 431.664L411.1 431.686Z" fill="white" stroke="#2E353A" stroke-width="0.25" stroke-miterlimit="10"/>
<path d="M417.237 431.74L410.167 429.695L407.125 429.662L414.174 431.718L417.237 431.74Z" fill="white" stroke="#2E353A" stroke-width="0.25" stroke-miterlimit="10"/>
<path d="M439.519 433.905L442.465 433.927L435.141 431.871L432.205 431.849L439.519 433.905Z" fill="white" stroke="#2E353A" stroke-width="0.25" stroke-miterlimit="10"/>
<path d="M407.994 431.664L400.966 429.597L397.86 429.564L404.867 431.642L407.994 431.664Z" fill="white" stroke="#2E353A" stroke-width="0.25" stroke-miterlimit="10"/>
<path d="M401.729 431.62L394.723 429.542L391.575 429.51L398.56 431.599L401.729 431.62Z" fill="white" stroke="#2E353A" stroke-width="0.25" stroke-miterlimit="10"/>
<path d="M429.258 431.827L422.135 429.804L419.177 429.782L426.279 431.805L429.258 431.827Z" fill="white" stroke="#2E353A" stroke-width="0.25" stroke-miterlimit="10"/>
<path d="M432.204 431.849L425.07 429.836L422.134 429.803L429.257 431.827L432.204 431.849Z" fill="white" stroke="#2E353A" stroke-width="0.25" stroke-miterlimit="10"/>
<path d="M398.56 431.599L391.575 429.51L388.395 429.477L395.359 431.577L398.56 431.599Z" fill="white" stroke="#2E353A" stroke-width="0.25" stroke-miterlimit="10"/>
<path d="M420.269 431.762L413.188 429.716L410.167 429.695L417.237 431.74L420.269 431.762Z" fill="white" stroke="#2E353A" stroke-width="0.25" stroke-miterlimit="10"/>
<path d="M435.141 431.871L427.996 429.869L425.071 429.836L432.205 431.849L435.141 431.871Z" fill="white" stroke="#2E353A" stroke-width="0.25" stroke-miterlimit="10"/>
<path d="M426.279 431.805L419.177 429.782L416.188 429.749L423.29 431.784L426.279 431.805Z" fill="white" stroke="#2E353A" stroke-width="0.25" stroke-miterlimit="10"/>
<path d="M423.29 431.784L416.188 429.749L413.188 429.716L420.269 431.762L423.29 431.784Z" fill="white" stroke="#2E353A" stroke-width="0.25" stroke-miterlimit="10"/>
<path d="M414.174 431.718L407.125 429.662L404.051 429.629L411.1 431.686L414.174 431.718Z" fill="white" stroke="#2E353A" stroke-width="0.25" stroke-miterlimit="10"/>
<path d="M392.147 431.544L388.903 431.523L396.026 433.688L399.281 433.709L392.147 431.544Z" fill="white" stroke="#2E353A" stroke-width="0.25" stroke-miterlimit="10"/>
<path d="M385.194 429.445L381.971 429.412L388.904 431.523L392.147 431.544L385.194 429.445Z" fill="white" stroke="#2E353A" stroke-width="0.25" stroke-miterlimit="10"/>
<path d="M395.359 431.577L388.395 429.477L385.193 429.444L392.147 431.544L395.359 431.577Z" fill="white" stroke="#2E353A" stroke-width="0.25" stroke-miterlimit="10"/>
<path d="M403.33 435.907L410.845 438.192H414.131L406.605 435.918L403.33 435.907Z" fill="white" stroke="#2E353A" stroke-width="0.25" stroke-miterlimit="10"/>
<path d="M399.281 433.709L396.026 433.688L403.33 435.907L406.605 435.918L399.281 433.709Z" fill="white" stroke="#2E353A" stroke-width="0.25" stroke-miterlimit="10"/>
<path d="M406.605 435.918L414.131 438.192H417.396L409.849 435.929L406.605 435.918Z" fill="white" stroke="#2E353A" stroke-width="0.25" stroke-miterlimit="10"/>
<path d="M404.867 431.642L397.86 429.564L394.723 429.542L401.729 431.62L404.867 431.642Z" fill="white" stroke="#2E353A" stroke-width="0.25" stroke-miterlimit="10"/>
<path d="M412.064 433.775L404.867 431.642L401.729 431.62L408.906 433.753L412.064 433.775Z" fill="white" stroke="#2E353A" stroke-width="0.25" stroke-miterlimit="10"/>
<path d="M408.906 433.753L401.729 431.621L398.56 431.599L405.726 433.742L408.906 433.753Z" fill="white" stroke="#2E353A" stroke-width="0.25" stroke-miterlimit="10"/>
<path d="M415.202 433.786L407.994 431.664L404.867 431.642L412.065 433.775L415.202 433.786Z" fill="white" stroke="#2E353A" stroke-width="0.25" stroke-miterlimit="10"/>
<path d="M395.359 431.577L392.147 431.544L399.281 433.709L402.514 433.72L395.359 431.577Z" fill="white" stroke="#2E353A" stroke-width="0.25" stroke-miterlimit="10"/>
<path d="M447.023 436.027L449.97 436.038L442.465 433.927L439.519 433.905L447.023 436.027Z" fill="white" stroke="#2E353A" stroke-width="0.25" stroke-miterlimit="10"/>
<path d="M405.726 433.742L398.56 431.599L395.359 431.577L402.514 433.72L405.726 433.742Z" fill="white" stroke="#2E353A" stroke-width="0.25" stroke-miterlimit="10"/>
<path d="M399.281 433.709L406.605 435.918L409.849 435.929L402.514 433.72L399.281 433.709Z" fill="white" stroke="#2E353A" stroke-width="0.25" stroke-miterlimit="10"/>
<path d="M433.572 433.884L426.279 431.805L423.29 431.784L430.562 433.862L433.572 433.884Z" fill="white" stroke="#2E353A" stroke-width="0.25" stroke-miterlimit="10"/>
<path d="M430.562 433.862L423.29 431.784L420.269 431.762L427.541 433.851L430.562 433.862Z" fill="white" stroke="#2E353A" stroke-width="0.25" stroke-miterlimit="10"/>
<path d="M439.519 433.905L432.205 431.849L429.258 431.827L436.561 433.894L439.519 433.905Z" fill="white" stroke="#2E353A" stroke-width="0.25" stroke-miterlimit="10"/>
<path d="M421.413 433.818L414.174 431.718L411.1 431.686L418.318 433.797L421.413 433.818Z" fill="white" stroke="#2E353A" stroke-width="0.25" stroke-miterlimit="10"/>
<path d="M427.541 433.851L420.269 431.762L417.237 431.74L424.488 433.829L427.541 433.851Z" fill="white" stroke="#2E353A" stroke-width="0.25" stroke-miterlimit="10"/>
<path d="M424.488 433.829L417.237 431.74L414.174 431.718L421.414 433.818L424.488 433.829Z" fill="white" stroke="#2E353A" stroke-width="0.25" stroke-miterlimit="10"/>
<path d="M418.319 433.797L411.1 431.686L407.994 431.664L415.202 433.786L418.319 433.797Z" fill="white" stroke="#2E353A" stroke-width="0.25" stroke-miterlimit="10"/>
<path d="M427.541 433.851L434.992 435.994L438.035 436.005L430.562 433.862L427.541 433.851Z" fill="white" stroke="#2E353A" stroke-width="0.25" stroke-miterlimit="10"/>
<path d="M430.562 433.862L438.035 436.005L441.045 436.016L433.572 433.883L430.562 433.862Z" fill="white" stroke="#2E353A" stroke-width="0.25" stroke-miterlimit="10"/>
<path d="M402.514 433.72L409.849 435.929L413.082 435.94L405.725 433.742L402.514 433.72Z" fill="white" stroke="#2E353A" stroke-width="0.25" stroke-miterlimit="10"/>
<path d="M433.572 433.884L441.045 436.016H444.045L436.561 433.894L433.572 433.884Z" fill="white" stroke="#2E353A" stroke-width="0.25" stroke-miterlimit="10"/>
<path d="M421.414 433.818L428.844 435.972L431.929 435.983L424.488 433.829L421.414 433.818Z" fill="white" stroke="#2E353A" stroke-width="0.25" stroke-miterlimit="10"/>
<path d="M436.561 433.894L444.045 436.016L447.023 436.027L439.518 433.905L436.561 433.894Z" fill="white" stroke="#2E353A" stroke-width="0.25" stroke-miterlimit="10"/>
<path d="M424.488 433.829L431.929 435.983L434.992 435.994L427.541 433.851L424.488 433.829Z" fill="white" stroke="#2E353A" stroke-width="0.25" stroke-miterlimit="10"/>
<path d="M408.906 433.753L416.273 435.951H419.453L412.065 433.775L408.906 433.753Z" fill="white" stroke="#2E353A" stroke-width="0.25" stroke-miterlimit="10"/>
<path d="M405.726 433.742L413.082 435.94L416.273 435.951L408.906 433.753L405.726 433.742Z" fill="white" stroke="#2E353A" stroke-width="0.25" stroke-miterlimit="10"/>
<path d="M418.318 433.797L425.738 435.973H428.844L421.414 433.818L418.318 433.797Z" fill="white" stroke="#2E353A" stroke-width="0.25" stroke-miterlimit="10"/>
<path d="M415.202 433.786L422.612 435.962L425.739 435.973L418.319 433.797L415.202 433.786Z" fill="white" stroke="#2E353A" stroke-width="0.25" stroke-miterlimit="10"/>
<path d="M412.064 433.775L419.453 435.951L422.611 435.962L415.202 433.786L412.064 433.775Z" fill="white" stroke="#2E353A" stroke-width="0.25" stroke-miterlimit="10"/>
<path d="M436.561 433.894L429.257 431.827L426.279 431.805L433.572 433.884L436.561 433.894Z" fill="white" stroke="#2E353A" stroke-width="0.25" stroke-miterlimit="10"/>
<path d="M385.194 429.444L377.784 427.203L374.583 427.171L381.971 429.412L385.194 429.444Z" fill="white" stroke="#2E353A" stroke-width="0.25" stroke-miterlimit="10"/>
<path d="M381.971 429.412L378.971 429.379L385.893 431.501L388.903 431.523L381.971 429.412Z" fill="white" stroke="#2E353A" stroke-width="0.25" stroke-miterlimit="10"/>
<path d="M374.583 427.171L371.604 427.127L378.971 429.379L381.971 429.412L374.583 427.171Z" fill="white" stroke="#2E353A" stroke-width="0.25" stroke-miterlimit="10"/>
<path d="M388.903 431.523L385.893 431.501L392.995 433.677L396.027 433.688L388.903 431.523Z" fill="white" stroke="#2E353A" stroke-width="0.25" stroke-miterlimit="10"/>
<path d="M396.027 433.688L392.995 433.677L400.288 435.907H403.33L396.027 433.688Z" fill="white" stroke="#2E353A" stroke-width="0.25" stroke-miterlimit="10"/>
<path d="M403.33 435.907H400.288L407.782 438.192H410.846L403.33 435.907Z" fill="white" stroke="#2E353A" stroke-width="0.25" stroke-miterlimit="10"/>
<path d="M438.056 431.892L445.391 433.938L447.956 433.96L440.61 431.914L438.056 431.892Z" fill="white" stroke="#2E353A" stroke-width="0.25" stroke-miterlimit="10"/>
<path d="M452.906 436.038L455.482 436.049L447.956 433.96L445.391 433.938L452.906 436.038Z" fill="white" stroke="#2E353A" stroke-width="0.25" stroke-miterlimit="10"/>
<path d="M460.623 438.192H463.199L455.482 436.049L452.906 436.038L460.623 438.192Z" fill="white" stroke="#2E353A" stroke-width="0.25" stroke-miterlimit="10"/>
<path d="M410.167 429.695L402.62 427.508L399.588 427.475L407.125 429.662L410.167 429.695Z" fill="white" stroke="#2E353A" stroke-width="0.25" stroke-miterlimit="10"/>
<path d="M438.056 431.892L440.61 431.914L433.445 429.923L430.89 429.891L438.056 431.892Z" fill="white" stroke="#2E353A" stroke-width="0.25" stroke-miterlimit="10"/>
<path d="M449.97 436.038H452.906L445.391 433.938L442.465 433.927L449.97 436.038Z" fill="white" stroke="#2E353A" stroke-width="0.25" stroke-miterlimit="10"/>
<path d="M388.395 429.477L380.964 427.247L377.784 427.203L385.194 429.445L388.395 429.477Z" fill="white" stroke="#2E353A" stroke-width="0.25" stroke-miterlimit="10"/>
<path d="M427.996 429.869L435.141 431.871L438.056 431.892L430.89 429.891L427.996 429.869Z" fill="white" stroke="#2E353A" stroke-width="0.25" stroke-miterlimit="10"/>
<path d="M433.444 429.923L425.791 427.791L423.258 427.758L430.89 429.891L433.444 429.923Z" fill="white" stroke="#2E353A" stroke-width="0.25" stroke-miterlimit="10"/>
<path d="M430.89 429.891L423.258 427.758L420.364 427.725L427.996 429.869L430.89 429.891Z" fill="white" stroke="#2E353A" stroke-width="0.25" stroke-miterlimit="10"/>
<path d="M441.045 436.016L448.719 438.192H451.73L444.045 436.016H441.045Z" fill="white" stroke="#2E353A" stroke-width="0.25" stroke-miterlimit="10"/>
<path d="M457.676 438.192H460.623L452.906 436.038H449.97L457.676 438.192Z" fill="white" stroke="#2E353A" stroke-width="0.25" stroke-miterlimit="10"/>
<path d="M427.996 429.869L420.364 427.726L417.46 427.693L425.071 429.836L427.996 429.869Z" fill="white" stroke="#2E353A" stroke-width="0.25" stroke-miterlimit="10"/>
<path d="M447.023 436.027L454.708 438.192H457.676L449.97 436.038L447.023 436.027Z" fill="white" stroke="#2E353A" stroke-width="0.25" stroke-miterlimit="10"/>
<path d="M444.044 436.016L451.729 438.192H454.708L447.023 436.027L444.044 436.016Z" fill="white" stroke="#2E353A" stroke-width="0.25" stroke-miterlimit="10"/>
<path d="M442.465 433.927L445.391 433.938L438.056 431.892L435.141 431.871L442.465 433.927Z" fill="white" stroke="#2E353A" stroke-width="0.25" stroke-miterlimit="10"/>
<path d="M400.966 429.597L393.472 427.399L390.377 427.355L397.861 429.564L400.966 429.597Z" fill="white" stroke="#2E353A" stroke-width="0.25" stroke-miterlimit="10"/>
<path d="M425.071 429.836L417.46 427.693L414.534 427.649L422.134 429.804L425.071 429.836Z" fill="white" stroke="#2E353A" stroke-width="0.25" stroke-miterlimit="10"/>
<path d="M397.86 429.564L390.377 427.356L387.26 427.323L394.723 429.542L397.86 429.564Z" fill="white" stroke="#2E353A" stroke-width="0.25" stroke-miterlimit="10"/>
<path d="M407.125 429.662L399.588 427.475L396.546 427.432L404.051 429.629L407.125 429.662Z" fill="white" stroke="#2E353A" stroke-width="0.25" stroke-miterlimit="10"/>
<path d="M394.723 429.542L387.261 427.323L384.123 427.279L391.575 429.51L394.723 429.542Z" fill="white" stroke="#2E353A" stroke-width="0.25" stroke-miterlimit="10"/>
<path d="M391.574 429.51L384.123 427.279L380.964 427.247L388.394 429.477L391.574 429.51Z" fill="white" stroke="#2E353A" stroke-width="0.25" stroke-miterlimit="10"/>
<path d="M404.051 429.629L396.546 427.432L393.472 427.399L400.966 429.597L404.051 429.629Z" fill="white" stroke="#2E353A" stroke-width="0.25" stroke-miterlimit="10"/>
<path d="M422.134 429.804L414.534 427.649L411.587 427.617L419.177 429.782L422.134 429.804Z" fill="white" stroke="#2E353A" stroke-width="0.25" stroke-miterlimit="10"/>
<path d="M419.177 429.782L411.588 427.617L408.62 427.584L416.188 429.749L419.177 429.782Z" fill="white" stroke="#2E353A" stroke-width="0.25" stroke-miterlimit="10"/>
<path d="M413.188 429.716L405.63 427.54L402.62 427.508L410.167 429.695L413.188 429.716Z" fill="white" stroke="#2E353A" stroke-width="0.25" stroke-miterlimit="10"/>
<path d="M441.045 436.016L438.035 436.005L434.992 435.994L431.929 435.983L428.844 435.972H425.739L422.612 435.962L419.453 435.951H416.273L413.082 435.94L409.849 435.929L417.396 438.192H420.629H423.852H427.042H430.201H433.349H436.466H439.561H442.635H445.688H448.719L441.045 436.016Z" fill="white" stroke="#2E353A" stroke-width="0.25" stroke-miterlimit="10"/>
<path d="M416.188 429.749L408.62 427.584L405.63 427.541L413.188 429.717L416.188 429.749Z" fill="white" stroke="#2E353A" stroke-width="0.25" stroke-miterlimit="10"/>
<path d="M350.924 425.071V427.29L407.252 444.644L407.273 441.793L350.924 425.071Z" fill="white" stroke="#2E353A" stroke-linecap="round" stroke-linejoin="round"/>
<path d="M483.244 441.793H407.273V444.633H483.244V441.793Z" fill="#2E353A" stroke="#2E353A" stroke-linecap="round" stroke-linejoin="round"/>
<path d="M183.942 425.071H111.862L111.862 358.648H183.942C184.397 358.648 184.834 358.834 185.156 359.165C185.478 359.495 185.659 359.943 185.659 360.411V423.297C185.661 423.53 185.617 423.76 185.531 423.975C185.446 424.19 185.32 424.386 185.16 424.551C185 424.715 184.811 424.846 184.602 424.936C184.393 425.025 184.168 425.071 183.942 425.071Z" fill="white" stroke="#2E353A" stroke-linecap="round" stroke-linejoin="round"/>
<path d="M109.381 425.071H183.719V358.648H109.381L109.381 425.071Z" fill="#2E353A" stroke="#2E353A" stroke-miterlimit="10"/>
<path d="M113.441 419.816H177.995V363.903H113.441V419.816Z" fill="white" stroke="#2E353A" stroke-linecap="round" stroke-linejoin="round"/>
<path d="M151.909 386.49L142.284 371.421L132.659 386.49H136.687V410.089H147.881V386.49H151.909Z" fill="#5B48EE"/>
<path d="M183.719 425.071L127.37 441.793H51.3994L109.381 425.071H183.719Z" fill="white" stroke="#2E353A" stroke-linecap="round" stroke-linejoin="round"/>
<path d="M123.543 431.686L130.592 429.629L133.677 429.597L126.649 431.664L123.543 431.686Z" fill="white" stroke="#2E353A" stroke-width="0.25" stroke-miterlimit="10"/>
<path d="M117.406 431.74L124.476 429.695L127.518 429.662L120.469 431.718L117.406 431.74Z" fill="white" stroke="#2E353A" stroke-width="0.25" stroke-miterlimit="10"/>
<path d="M95.1245 433.905L92.1777 433.927L99.5023 431.871L102.439 431.849L95.1245 433.905Z" fill="white" stroke="#2E353A" stroke-width="0.25" stroke-miterlimit="10"/>
<path d="M126.649 431.664L133.677 429.597L136.783 429.564L129.776 431.642L126.649 431.664Z" fill="white" stroke="#2E353A" stroke-width="0.25" stroke-miterlimit="10"/>
<path d="M132.914 431.62L139.92 429.542L143.068 429.51L136.083 431.599L132.914 431.62Z" fill="white" stroke="#2E353A" stroke-width="0.25" stroke-miterlimit="10"/>
<path d="M105.385 431.827L112.508 429.804L115.466 429.782L108.364 431.805L105.385 431.827Z" fill="white" stroke="#2E353A" stroke-width="0.25" stroke-miterlimit="10"/>
<path d="M102.438 431.849L109.572 429.836L112.508 429.803L105.385 431.827L102.438 431.849Z" fill="white" stroke="#2E353A" stroke-width="0.25" stroke-miterlimit="10"/>
<path d="M136.083 431.599L143.068 429.51L146.248 429.477L139.284 431.577L136.083 431.599Z" fill="white" stroke="#2E353A" stroke-width="0.25" stroke-miterlimit="10"/>
<path d="M114.374 431.762L121.455 429.716L124.476 429.695L117.406 431.74L114.374 431.762Z" fill="white" stroke="#2E353A" stroke-width="0.25" stroke-miterlimit="10"/>
<path d="M99.5024 431.871L106.647 429.869L109.572 429.836L102.439 431.849L99.5024 431.871Z" fill="white" stroke="#2E353A" stroke-width="0.25" stroke-miterlimit="10"/>
<path d="M108.364 431.805L115.466 429.782L118.455 429.749L111.353 431.784L108.364 431.805Z" fill="white" stroke="#2E353A" stroke-width="0.25" stroke-miterlimit="10"/>
<path d="M111.353 431.784L118.455 429.749L121.455 429.716L114.374 431.762L111.353 431.784Z" fill="white" stroke="#2E353A" stroke-width="0.25" stroke-miterlimit="10"/>
<path d="M120.469 431.718L127.518 429.662L130.592 429.629L123.543 431.686L120.469 431.718Z" fill="white" stroke="#2E353A" stroke-width="0.25" stroke-miterlimit="10"/>
<path d="M142.496 431.544L145.739 431.523L138.616 433.688L135.362 433.709L142.496 431.544Z" fill="white" stroke="#2E353A" stroke-width="0.25" stroke-miterlimit="10"/>
<path d="M149.449 429.445L152.672 429.412L145.739 431.523L142.496 431.544L149.449 429.445Z" fill="white" stroke="#2E353A" stroke-width="0.25" stroke-miterlimit="10"/>
<path d="M139.284 431.577L146.248 429.477L149.45 429.444L142.496 431.544L139.284 431.577Z" fill="white" stroke="#2E353A" stroke-width="0.25" stroke-miterlimit="10"/>
<path d="M131.313 435.907L123.797 438.192H120.511L128.037 435.918L131.313 435.907Z" fill="white" stroke="#2E353A" stroke-width="0.25" stroke-miterlimit="10"/>
<path d="M135.362 433.709L138.616 433.688L131.313 435.907L128.038 435.918L135.362 433.709Z" fill="white" stroke="#2E353A" stroke-width="0.25" stroke-miterlimit="10"/>
<path d="M128.037 435.918L120.511 438.192H117.247L124.783 435.929L128.037 435.918Z" fill="white" stroke="#2E353A" stroke-width="0.25" stroke-miterlimit="10"/>
<path d="M129.776 431.642L136.782 429.564L139.92 429.542L132.913 431.62L129.776 431.642Z" fill="white" stroke="#2E353A" stroke-width="0.25" stroke-miterlimit="10"/>
<path d="M122.579 433.775L129.776 431.642L132.914 431.62L125.737 433.753L122.579 433.775Z" fill="white" stroke="#2E353A" stroke-width="0.25" stroke-miterlimit="10"/>
<path d="M125.737 433.753L132.914 431.621L136.083 431.599L128.917 433.742L125.737 433.753Z" fill="white" stroke="#2E353A" stroke-width="0.25" stroke-miterlimit="10"/>
<path d="M119.441 433.786L126.649 431.664L129.776 431.642L122.579 433.775L119.441 433.786Z" fill="white" stroke="#2E353A" stroke-width="0.25" stroke-miterlimit="10"/>
<path d="M139.284 431.577L142.496 431.544L135.362 433.709L132.129 433.72L139.284 431.577Z" fill="white" stroke="#2E353A" stroke-width="0.25" stroke-miterlimit="10"/>
<path d="M87.6197 436.027L84.6729 436.038L92.1777 433.927L95.1245 433.905L87.6197 436.027Z" fill="white" stroke="#2E353A" stroke-width="0.25" stroke-miterlimit="10"/>
<path d="M128.917 433.742L136.083 431.599L139.284 431.577L132.129 433.72L128.917 433.742Z" fill="white" stroke="#2E353A" stroke-width="0.25" stroke-miterlimit="10"/>
<path d="M135.362 433.709L128.037 435.918L124.783 435.929L132.129 433.72L135.362 433.709Z" fill="white" stroke="#2E353A" stroke-width="0.25" stroke-miterlimit="10"/>
<path d="M101.071 433.884L108.364 431.805L111.353 431.784L104.081 433.862L101.071 433.884Z" fill="white" stroke="#2E353A" stroke-width="0.25" stroke-miterlimit="10"/>
<path d="M104.082 433.862L111.353 431.784L114.374 431.762L107.103 433.851L104.082 433.862Z" fill="white" stroke="#2E353A" stroke-width="0.25" stroke-miterlimit="10"/>
<path d="M95.1245 433.905L102.439 431.849L105.385 431.827L98.0819 433.894L95.1245 433.905Z" fill="white" stroke="#2E353A" stroke-width="0.25" stroke-miterlimit="10"/>
<path d="M113.229 433.818L120.469 431.718L123.543 431.686L116.324 433.797L113.229 433.818Z" fill="white" stroke="#2E353A" stroke-width="0.25" stroke-miterlimit="10"/>
<path d="M107.103 433.851L114.374 431.762L117.406 431.74L110.155 433.829L107.103 433.851Z" fill="white" stroke="#2E353A" stroke-width="0.25" stroke-miterlimit="10"/>
<path d="M110.155 433.829L117.406 431.74L120.469 431.718L113.229 433.818L110.155 433.829Z" fill="white" stroke="#2E353A" stroke-width="0.25" stroke-miterlimit="10"/>
<path d="M116.324 433.797L123.543 431.686L126.649 431.664L119.441 433.786L116.324 433.797Z" fill="white" stroke="#2E353A" stroke-width="0.25" stroke-miterlimit="10"/>
<path d="M107.102 433.851L99.6506 435.994L96.6084 436.005L104.081 433.862L107.102 433.851Z" fill="white" stroke="#2E353A" stroke-width="0.25" stroke-miterlimit="10"/>
<path d="M104.082 433.862L96.6085 436.005L93.5981 436.016L101.071 433.883L104.082 433.862Z" fill="white" stroke="#2E353A" stroke-width="0.25" stroke-miterlimit="10"/>
<path d="M132.129 433.72L124.783 435.929L121.561 435.94L128.917 433.742L132.129 433.72Z" fill="white" stroke="#2E353A" stroke-width="0.25" stroke-miterlimit="10"/>
<path d="M101.071 433.884L93.5979 436.016H90.5981L98.0817 433.894L101.071 433.884Z" fill="white" stroke="#2E353A" stroke-width="0.25" stroke-miterlimit="10"/>
<path d="M113.229 433.818L105.798 435.972L102.714 435.983L110.155 433.829L113.229 433.818Z" fill="white" stroke="#2E353A" stroke-width="0.25" stroke-miterlimit="10"/>
<path d="M98.0818 433.894L90.5982 436.016L87.6196 436.027L95.1244 433.905L98.0818 433.894Z" fill="white" stroke="#2E353A" stroke-width="0.25" stroke-miterlimit="10"/>
<path d="M110.155 433.829L102.714 435.983L99.6504 435.994L107.102 433.851L110.155 433.829Z" fill="white" stroke="#2E353A" stroke-width="0.25" stroke-miterlimit="10"/>
<path d="M125.737 433.753L118.37 435.951H115.19L122.579 433.775L125.737 433.753Z" fill="white" stroke="#2E353A" stroke-width="0.25" stroke-miterlimit="10"/>
<path d="M128.917 433.742L121.561 435.94L118.37 435.951L125.737 433.753L128.917 433.742Z" fill="white" stroke="#2E353A" stroke-width="0.25" stroke-miterlimit="10"/>
<path d="M116.325 433.797L108.905 435.973H105.799L113.229 433.818L116.325 433.797Z" fill="white" stroke="#2E353A" stroke-width="0.25" stroke-miterlimit="10"/>
<path d="M119.441 433.786L112.031 435.962L108.904 435.973L116.324 433.797L119.441 433.786Z" fill="white" stroke="#2E353A" stroke-width="0.25" stroke-miterlimit="10"/>
<path d="M122.578 433.775L115.19 435.951L112.031 435.962L119.441 433.786L122.578 433.775Z" fill="white" stroke="#2E353A" stroke-width="0.25" stroke-miterlimit="10"/>
<path d="M98.082 433.894L105.385 431.827L108.364 431.805L101.071 433.884L98.082 433.894Z" fill="white" stroke="#2E353A" stroke-width="0.25" stroke-miterlimit="10"/>
<path d="M149.449 429.444L156.859 427.203L160.06 427.171L152.672 429.412L149.449 429.444Z" fill="white" stroke="#2E353A" stroke-width="0.25" stroke-miterlimit="10"/>
<path d="M152.672 429.412L155.671 429.379L148.75 431.501L145.739 431.523L152.672 429.412Z" fill="white" stroke="#2E353A" stroke-width="0.25" stroke-miterlimit="10"/>
<path d="M160.06 427.171L163.039 427.127L155.672 429.379L152.672 429.412L160.06 427.171Z" fill="white" stroke="#2E353A" stroke-width="0.25" stroke-miterlimit="10"/>
<path d="M145.739 431.523L148.75 431.501L141.648 433.677L138.616 433.688L145.739 431.523Z" fill="white" stroke="#2E353A" stroke-width="0.25" stroke-miterlimit="10"/>
<path d="M138.616 433.688L141.648 433.677L134.355 435.907H131.313L138.616 433.688Z" fill="white" stroke="#2E353A" stroke-width="0.25" stroke-miterlimit="10"/>
<path d="M131.313 435.907H134.355L126.861 438.192H123.797L131.313 435.907Z" fill="white" stroke="#2E353A" stroke-width="0.25" stroke-miterlimit="10"/>
<path d="M96.5874 431.892L89.2522 433.938L86.687 433.96L94.0328 431.914L96.5874 431.892Z" fill="white" stroke="#2E353A" stroke-width="0.25" stroke-miterlimit="10"/>
<path d="M81.7364 436.038L79.1606 436.049L86.6866 433.96L89.2518 433.938L81.7364 436.038Z" fill="white" stroke="#2E353A" stroke-width="0.25" stroke-miterlimit="10"/>
<path d="M74.0196 438.192H71.4438L79.1606 436.049L81.7364 436.038L74.0196 438.192Z" fill="white" stroke="#2E353A" stroke-width="0.25" stroke-miterlimit="10"/>
<path d="M124.476 429.695L132.023 427.508L135.054 427.475L127.518 429.662L124.476 429.695Z" fill="white" stroke="#2E353A" stroke-width="0.25" stroke-miterlimit="10"/>
<path d="M96.5873 431.892L94.0327 431.914L101.198 429.923L103.742 429.891L96.5873 431.892Z" fill="white" stroke="#2E353A" stroke-width="0.25" stroke-miterlimit="10"/>
<path d="M84.673 436.038H81.7368L89.2522 433.938L92.1778 433.927L84.673 436.038Z" fill="white" stroke="#2E353A" stroke-width="0.25" stroke-miterlimit="10"/>
<path d="M146.248 429.477L153.679 427.247L156.859 427.203L149.449 429.445L146.248 429.477Z" fill="white" stroke="#2E353A" stroke-width="0.25" stroke-miterlimit="10"/>
<path d="M106.647 429.869L99.5024 431.871L96.5874 431.892L103.742 429.891L106.647 429.869Z" fill="white" stroke="#2E353A" stroke-width="0.25" stroke-miterlimit="10"/>
<path d="M101.198 429.923L108.851 427.791L111.385 427.758L103.742 429.891L101.198 429.923Z" fill="white" stroke="#2E353A" stroke-width="0.25" stroke-miterlimit="10"/>
<path d="M103.742 429.891L111.385 427.758L114.279 427.725L106.647 429.869L103.742 429.891Z" fill="white" stroke="#2E353A" stroke-width="0.25" stroke-miterlimit="10"/>
<path d="M93.5979 436.016L85.9235 438.192H82.9131L90.5981 436.016H93.5979Z" fill="white" stroke="#2E353A" stroke-width="0.25" stroke-miterlimit="10"/>
<path d="M76.9668 438.192H74.02L81.7368 436.038H84.673L76.9668 438.192Z" fill="white" stroke="#2E353A" stroke-width="0.25" stroke-miterlimit="10"/>
<path d="M106.646 429.869L114.278 427.726L117.183 427.693L109.572 429.836L106.646 429.869Z" fill="white" stroke="#2E353A" stroke-width="0.25" stroke-miterlimit="10"/>
<path d="M87.6198 436.027L79.9348 438.192H76.9668L84.673 436.038L87.6198 436.027Z" fill="white" stroke="#2E353A" stroke-width="0.25" stroke-miterlimit="10"/>
<path d="M90.5982 436.016L82.9132 438.192H79.9346L87.6196 436.027L90.5982 436.016Z" fill="white" stroke="#2E353A" stroke-width="0.25" stroke-miterlimit="10"/>
<path d="M92.1776 433.927L89.252 433.938L96.5872 431.892L99.5022 431.871L92.1776 433.927Z" fill="white" stroke="#2E353A" stroke-width="0.25" stroke-miterlimit="10"/>
<path d="M133.677 429.597L141.171 427.399L144.266 427.355L136.783 429.564L133.677 429.597Z" fill="white" stroke="#2E353A" stroke-width="0.25" stroke-miterlimit="10"/>
<path d="M109.572 429.836L117.183 427.693L120.109 427.649L112.508 429.804L109.572 429.836Z" fill="white" stroke="#2E353A" stroke-width="0.25" stroke-miterlimit="10"/>
<path d="M136.782 429.564L144.266 427.356L147.382 427.323L139.92 429.542L136.782 429.564Z" fill="white" stroke="#2E353A" stroke-width="0.25" stroke-miterlimit="10"/>
<path d="M127.518 429.662L135.055 427.475L138.097 427.432L130.592 429.629L127.518 429.662Z" fill="white" stroke="#2E353A" stroke-width="0.25" stroke-miterlimit="10"/>
<path d="M139.92 429.542L147.382 427.323L150.52 427.279L143.068 429.51L139.92 429.542Z" fill="white" stroke="#2E353A" stroke-width="0.25" stroke-miterlimit="10"/>
<path d="M143.068 429.51L150.52 427.279L153.679 427.247L146.248 429.477L143.068 429.51Z" fill="white" stroke="#2E353A" stroke-width="0.25" stroke-miterlimit="10"/>
<path d="M130.592 429.629L138.097 427.432L141.171 427.399L133.676 429.597L130.592 429.629Z" fill="white" stroke="#2E353A" stroke-width="0.25" stroke-miterlimit="10"/>
<path d="M112.508 429.804L120.108 427.649L123.055 427.617L115.466 429.782L112.508 429.804Z" fill="white" stroke="#2E353A" stroke-width="0.25" stroke-miterlimit="10"/>
<path d="M115.466 429.782L123.055 427.617L126.023 427.584L118.455 429.749L115.466 429.782Z" fill="white" stroke="#2E353A" stroke-width="0.25" stroke-miterlimit="10"/>
<path d="M121.455 429.716L129.012 427.54L132.023 427.508L124.476 429.695L121.455 429.716Z" fill="white" stroke="#2E353A" stroke-width="0.25" stroke-miterlimit="10"/>
<path d="M93.5982 436.016L96.6086 436.005L99.6508 435.994L102.714 435.983L105.799 435.972H108.905L112.032 435.962L115.19 435.951H118.37L121.561 435.94L124.783 435.929L117.247 438.192H114.014H110.791H107.611H104.442H101.294H98.1774H95.0822H92.0082H88.9554H85.9238L93.5982 436.016Z" fill="white" stroke="#2E353A" stroke-width="0.25" stroke-miterlimit="10"/>
<path d="M118.455 429.749L126.023 427.584L129.013 427.541L121.455 429.717L118.455 429.749Z" fill="white" stroke="#2E353A" stroke-width="0.25" stroke-miterlimit="10"/>
<path d="M183.719 425.071V427.29L127.38 444.644L127.37 441.793L183.719 425.071Z" fill="white" stroke="#2E353A" stroke-linecap="round" stroke-linejoin="round"/>
<path d="M51.3994 444.644H127.37V441.804H51.3994V444.644Z" fill="#2E353A" stroke="#2E353A" stroke-linecap="round" stroke-linejoin="round"/>
</svg>
