<svg width="106" height="87" viewBox="0 0 106 87" fill="none" xmlns="http://www.w3.org/2000/svg">
<path d="M72.5263 50.75C74.9439 50.75 76.943 50.0653 78.5237 48.6958C80.1044 47.3264 80.8947 45.5944 80.8947 43.5C80.8947 41.4056 80.1044 39.6736 78.5237 38.3042C76.943 36.9347 74.9439 36.25 72.5263 36.25C70.1088 36.25 68.1096 36.9347 66.529 38.3042C64.9482 39.6736 64.1579 41.4056 64.1579 43.5C64.1579 45.5944 64.9482 47.3264 66.529 48.6958C68.1096 50.0653 70.1088 50.75 72.5263 50.75ZM11.1579 87C8.08947 87 5.46272 86.0535 3.27763 84.1604C1.09254 82.2674 0 79.9917 0 77.3333V9.66667C0 7.00833 1.09254 4.73264 3.27763 2.83958C5.46272 0.946528 8.08947 0 11.1579 0H89.2632C92.3316 0 94.9583 0.946528 97.1434 2.83958C99.3285 4.73264 100.421 7.00833 100.421 9.66667V21.75H89.2632V9.66667H11.1579V77.3333H89.2632V65.25H100.421V77.3333C100.421 79.9917 99.3285 82.2674 97.1434 84.1604C94.9583 86.0535 92.3316 87 89.2632 87H11.1579ZM55.7895 67.6667C52.7211 67.6667 50.0943 66.7201 47.9092 64.8271C45.7241 62.934 44.6316 60.6583 44.6316 58V29C44.6316 26.3417 45.7241 24.066 47.9092 22.1729C50.0943 20.2799 52.7211 19.3333 55.7895 19.3333H94.8421C97.9105 19.3333 100.537 20.2799 102.722 22.1729C104.907 24.066 106 26.3417 106 29V58C106 60.6583 104.907 62.934 102.722 64.8271C100.537 66.7201 97.9105 67.6667 94.8421 67.6667H55.7895ZM94.8421 58V29H55.7895V58H94.8421Z" fill="#5B48EE"/>
</svg>
